<svg id="bef55e92-9354-443a-9b2b-1f87f5917655" data-name="Layer 8" xmlns="http://www.w3.org/2000/svg" viewBox="0 0 794.87 762.95"><path d="M459,328.17c37.8,5.7,39.87,51.79,36.91,76.91-4.48,38-5.12,48.71,3.85,85.86,4.83,20,38.65,55.9,53.44,70.23,11,10.62,23.67,25.33,36.64,33.37,22.58,14,22.06,34.21,37.82,55.6,16.74,22.71,29.49,49.44,52.48,65.81,24.37,17.35,56.18,20,86.07,18.69C848.75,731,931.14,700.18,990.76,643c30.45-29.23,77.3-84.88,79.64-129.62,1.3-24.66-29.58-29-48.53-41.72-22-14.84-22.5-7.22-38.4-28.53-6.5-8.71-12.48-18-20.65-25.13C919.21,379.73,849,433.45,775.4,367.59c-17.95-16-35.19-32.29-50.18-51.13C698.34,282.69,648,261.35,607.3,246.87c-38.76-13.81-83.61-19.18-119.67-39a98.89,98.89,0,0,0-82.82-5.65c-15.54,5.84-33.38,15.37-47.31,6.36-4.23-2.73-7.33-6.87-10.14-11-8.36-12.4-15-25.93-24.07-37.84s-21.09-22.44-35.72-25.56c-18.16-3.88-37,4.37-51.43,16-7.34,5.94-14.71,13.13-24.11,13.9-12.11,1-22-9-30-18.13l-32.49-37.1c-5.31-6.06-12-12.69-20-11.66-4.12.53-7.7,3.1-10.58,6.09-14.48,15.08-13.09,39.88-4.17,58.78s23.88,34.19,35.35,51.66c2,3,3.92,6.26,4.35,9.86.62,5.09-1.84,10-3.82,14.71-13.87,33.1-4.58,74.51,22.11,98.5s82.56,33.72,105.22,5.88c71.56-87.88,48.24-10.79,111.8-41.14C407.78,293,416.22,321.71,459,328.17Z"/><path d="M447.59,299.81c75,20.92,63.13,30,79.68,106.11,4.83,22.23,6.13,45.18,12.07,67.14s17.51,43.73,37.22,55.1c8.68,5,18.49,7.74,27.4,12.32C653,565.7,661.14,636.79,707.37,666.92c36.38,23.7,84.84,14.59,125.26-1.28a449,449,0,0,0,92.14-49.33c22-15.28,63.38-40.41,73.22-66.63,9.13-24.34-16.36-41.14-29-59.29-15-21.5-28.34-48.91-55.09-57.7-20.69-6.81-43.09.55-64.87.76-42.14.41-79.76-25.92-110.24-55s-57.88-62.6-94.78-82.95C588.6,265,517.59,267.42,467.59,228.69c-16.37-12.68-44.09.33-63.79,6.72s-58.58,7.33-74.78-5.58c-19.42-15.48-16.06-49.56-36.71-63.38-6.5-4.35-14.53-5.91-22.36-6-22.11-.36-26.54,9.59-39.63,27.41-2.78,3.78-5.58,8.15-10.12,9.34-3.29.87-6.76-.17-9.95-1.37a102.19,102.19,0,0,1-55.63-50.92c-2.34-4.87-4.45-10.15-8.64-13.55s-11.35-3.93-14.43.51c-1.57,2.25-1.73,5.17-1.63,7.91,1,28.89,22.67,52.22,42.44,73.3,2.78,3,5.73,6.39,5.63,10.45-.1,4.22-.75,14.9-2.11,18.9-12.87,38,3.8,58.78,27.52,77.63s38.65,11.94,62.19-7.13c10.76-8.7,19-20.32,30.09-28.53A64.9,64.9,0,0,1,351,274.31c11.55,3.28,22.43,9.86,34.44,9.94,6.64.05,17.24-13.33,33.35-6.62C425,280.19,432.71,297.56,447.59,299.81Z" style="fill:#f8d700"/></svg>