<svg id="abdc9715-693f-4408-a402-6c8c937d6c2b" data-name="Layer 8" xmlns="http://www.w3.org/2000/svg" viewBox="0 0 866.7 739"><path d="M417.25,109.18c-12.55-16-9.63-31.47-29.68-35-17.44-3.07-25.08,10.45-36.32,23-6.81,7.59-18.91,28.14-24.4,36.72-14.18,22.17-26,31-40.19,53.19-3.21,5-13.58-8.77-21-16.92-11.42-12.82-27.67-13-43.54-6.45s-25.75,20.3-33.55,35.59C131.2,148.25,93.87,69.92,164,22.11c-87-11.76-107.63,127.17-71.1,188.3,12.9,21.59,24.39,52.36,38.81,73,1.63,2.33,5.84,10,6.42,12.76.77,3.74-.45,7.55-1.41,11.25-3.47,13.25,2.61,26.11,5.62,39.47,1.58,7.05,4.23,14.17,9.48,19.13s13.63,7.17,19.92,3.61c7.86-4.46,14.8,1.48,15.22-7.55,11.53,12.37,15.32,11,27.92,22.28,19.32,17.29,51.71,17.34,71.08.1,13.86-12.33,20.42-31.29,21.36-49.83,1-18.91-1.66-41.8,13.72-52.85,5.27-3.8,11.87-5.34,17.32-8.87,21.12-13.71,15.06-47.7,31-67.22,10.19,1.69,21.69-3.87,30.72,1.14"/><path d="M387.71,100.36c-27.84-5.65-25.75,29.32-44.28,50.84s-37.76,35.81-47.7,62.42c-9.52-.17-18.69-7.18-26.35-12.83-19.17-14.14-50.6-5.71-60.11,16.13-2.33,5.34-4.12,11.89-9.55,14-5.9,2.31-12.13-2.17-16.76-6.5-42.13-39.33-98.14-112.57-58.69-177.1-26.71,28.12-32,79.08-28.3,98.9,10.66,56.62,33.51,102.27,70.14,146.73-10.53,10.19-12.88,27.8-5.38,40.39s33.84,20.41,47.81,16c2,3.83,10.12,11.13,13.76,13.49,4.16,2.7,21.49,10.73,26.39,10,24.06-3.74,36.53-37.27,30.53-60.86-1.08-4.24,2.66-25.44,2.95-29.8.84-12.49,23.37-17.22,34.81-22.3,14.2-6.29,8.41-14.25,16.46-27.53,9.77-16.07,13.81-38.19,27.47-51.12" style="fill:#324d52"/><path d="M382,98.24a138.56,138.56,0,0,0,5.77-53.3c9.07,14,10.87,31.25,12.42,47.82.56,6,1.09,12.13-.84,17.79-2.35,6.87-15.81,19.85-23.67,13.16C368.76,117.82,380.14,104.24,382,98.24Z"/><path d="M242.17,241.59a38.61,38.61,0,0,0,40.12,5.94c4.45-2,14.06-8.55,11.52-14.86-2.67-6.64-14.85-2.45-19.9-2.29"/><path d="M211.05,355.71A90.71,90.71,0,0,0,207.6,430c-9.91-12.82-18.65-27.22-20.9-43.27-3.55-25.49,10.54-51.31,31.3-66.51,6-4.36,14.5-6.31,16,2.8C223.71,327.92,216,346.09,211.05,355.71Z"/><path d="M205.12,297.77a14.68,14.68,0,0,1-5-12,11.39,11.39,0,0,1,8-9.87c4.36-1.14,9.52,1.3,11,5.57a12,12,0,0,1-.15,7.06,14.38,14.38,0,0,1-5.07,7.79,9,9,0,0,1-9,1.09"/><path d="M364.67,201.94l53.94,29.95c17.48,9.7,39.38,19.4,56.32,8.79,8.79,15.64,19.51,32.78,37,36.79,8.24,1.89,16.87.49,25.29,1.27,19.32,1.8,35.62,14.75,49.77,28a457.5,457.5,0,0,1,70.93,85c6.36,9.86,12.73,20.34,22.8,26.37,7.95,4.76,17.41,6.22,25.88,10,13.26,5.89,23.34,17,33,27.83,26,29.05,52.07,58.3,72.4,91.53,34.93,57.11,51.91,124.56,92.26,178,2.06,2.74,4.64,5.67,8.07,5.78a11.89,11.89,0,0,0,5.29-1.55l127-60.06C1144.7,622.31,1008.4,571.18,968,543,902.61,497.33,844.88,442,784.73,389.9c-17.84-15.44-36.49-30.94-58.83-38.51-10.63-3.6-21.88-5.32-32.22-9.69-12-5.08-22.26-13.51-32.25-21.91-42.91-36.06-74.2-72.13-114.54-111-13.12-12.66-36.86-27.2-53.52-34.61-9.12-4-19.09-6.35-27.43-11.82-12.23-8-19.28-21.69-28.3-33.2-12.55-16-29.26-28.19-45.75-40.12"/><path d="M406.33,125.45c43.09,47.49,105,73.26,153.4,115.38C607,282,642.4,339.52,700,364.45c15.44,6.68,31.93,10.71,47.25,17.65,37.65,17,65.22,49.89,93.53,80,49.87,53,105.63,97.63,164.94,139.48,74.5,52.57-34.22,90.13-84.49,92-3.25.12-6.63.13-9.57-1.25-5.17-2.41-7.57-8.3-9.56-13.65A768.92,768.92,0,0,0,785.37,471.53C761.88,441.79,735,413,700.18,398.08c-6.71-2.86-13.7-5.2-19.87-9.08-9.54-6-16.49-15.25-23.17-24.33-30-40.72-62.54-84.63-110.9-99.4-13.73-4.2-28.38-5.86-41.17-12.41s-23.66-20.11-21-34.23c-14.21,17.33-41.83,9.49-62.23.21-32.51-14.79-54.34-20.8-67.07-54.17L382,98.18" style="fill:#324d52"/><ellipse cx="799.53" cy="449.18" rx="3.99" ry="6.48" transform="translate(-114.03 369.03) rotate(-24.31)"/><ellipse cx="846.33" cy="490.98" rx="1.5" ry="2" transform="translate(-127.09 392.01) rotate(-24.31)"/><path d="M541.54,296.54c3,.41,5.76-1.84,7-4.56s1.22-5.81,1.2-8.79c-.08-12.71-.74-26.87-9.83-35.76-8.69,3.84-5.12,12.87-4,21.29C536.22,271.67,539,296.2,541.54,296.54Z"/><path d="M685.34,336.94c8.55-7.83,17.6-16.57,19.4-28,3.5,7.5,2,16.58-1.89,23.87s-10.07,13.11-16.23,18.64c-3.57,3.19-18.28,11.5-18.27.92C668.36,349,682.83,339.24,685.34,336.94Z"/><path d="M739.75,447.56c-4,8.29-6.2,17.34-8.18,26.34-1.57,7.15-2.86,15.25,1.28,21.29,4-.67,5.73-5.31,6.72-9.23q2.08-8.2,4.16-16.42c.87-3.41,1.76-6.88,3.65-9.85,2.51-3.93,6.53-6.59,10.15-9.53s7.12-6.61,7.8-11.23c1.09-7.33-5.08-11-11-9.31C748.19,431.38,742.31,442.28,739.75,447.56Z"/><path d="M847.87,412.91l1.87,16.92c.39,3.49.76,7.14-.51,10.41-1.77,4.53-6.24,7.32-10.43,9.78l-9.1,5.36c-2.8,1.64-5.76,3.34-9,3.39-17.73.26,8.37-15,11-17.31C838.31,435.65,848.94,422.61,847.87,412.91Z"/><path d="M382,98.18a138.54,138.54,0,0,0,5.77-53.3c9.07,14,10.87,31.26,12.42,47.82.56,6,1.09,12.13-.84,17.79-2.35,6.87-15.81,19.85-23.67,13.17C368.72,117.76,380.1,104.18,382,98.18Z"/></svg>