<svg id="a23d6eda-f765-430e-a934-e3468de42a53" data-name="Layer 8" xmlns="http://www.w3.org/2000/svg" viewBox="0 0 818.81 802.85"><path d="M485.43,380.87c14.18,15.27,30.31,32,51.08,33,4.76.22,9.64-.42,14.2,1,5.72,1.74,16.66,7.49,20.59,12A476.94,476.94,0,0,1,611,478.13c5.32-13.51,23.62-5.84,37.68-2.21l164.86,42.65c22,5.69,46.45,13.46,60.52,30a116.35,116.35,0,0,1-11-32.54c83,55.26,86.51,69.92,133.42,134.77l21.06,29.58a263.65,263.65,0,0,1,36.76,49.27c3.67,6.37,7.19,13.57,5.75,20.77-1.32,6.61-6.53,11.66-11.65,16a246,246,0,0,1-150,58.22c-8.37.29-17.69-.23-23.61-6.18-3.75-3.77-5.43-9.08-7.15-14.11-14.76-43.19-41.65-81-68.18-118.15l-43-60.17c-9.94-13.91-20-28-32.75-39.32C676.85,545,600.86,576.61,558.18,500.2c-5.71-10.21-14.76-18.34-23.93-25.62s-16.46-14.17-27.11-9.4c10.18,25,1.14,40.29,18,61.31-35.2-32.42-46.38-61.32-65.95-105-2.85,4.16-.8,16.41-3.65,20.57-20.95-33.51-40.48-54.11-61.44-87.62.1-5.67,2.67-11.18,6.11-15.68a53,53,0,0,1,12.58-11.29c4.28-2.91,8.87-5.53,13.91-6.71s7.93-8.86,12.27-6c3.3,2.16.39-7.4,2.51-4.08,3.38,5.3,16.31,25.16,19.08,30.81,1.81,3.67,3.48,7.41,5.63,10.89C471.66,361.18,478.36,373.26,485.43,380.87Z" style="fill:#020304"/><path d="M453.53,353.42c19.62,33.06,50.59,75.13,87.32,83.85,6.18,1.46,12.66,2.47,18,5.86,4.15,2.61,7.35,6.46,10.48,10.24l40.74,49.19c9.24-5.49,20.88-4.06,31.49-2.27a926.77,926.77,0,0,1,256.78,83.32L885.7,551.89A1878.75,1878.75,0,0,1,1008,716.52c7.58,11.45,19.19,21.91,14.86,35.17-3.66,11.22-18.94,21.74-28.31,27.75-22.89,14.67-50.3,21.37-76.56,27.13-6.12,1.35-12.88,2.61-18.39-.4-4.26-2.34-6.87-6.78-9.28-11L817.41,666.84c-12.86-22.63-25.92-45.53-44.14-64.1-19.83-20.2-44.83-34.35-69.48-48.23-15.47-8.71-31.35-17.56-48.85-20.45-10.3-1.7-20.91-1.28-31.06-3.71-26.31-6.32-44.15-29.9-62.38-49.94s-44.74-43.59-70.93-36.91c0,6.94,1,18.26,1,25.19A184.84,184.84,0,0,0,451.11,393q.13,11.44.26,22.91c-16.6-41.5-27.91-55.09-60.49-85.66,0-3.15,1.49-5.73,4.53-6.55,8.84-2.37,17.55,3.84,24.15,10.17C431.45,345.31,439,328.94,453.53,353.42Z" style="fill:#575ec5"/><path d="M416.3,368.49c-1.51-1.45-3.22-3-5.3-3.09-6-.36-6.26,8.63-5.85,14.64a31.45,31.45,0,0,1-16.21,29.2c-8.7,4.63-19,4.81-28.72,6.23S340,420.32,335,428.8a97.15,97.15,0,0,0,31.23,15.49,331.5,331.5,0,0,1-40.38,10c-4.49.81-9.12,1.53-13.58.59-5.33-1.12-9.88-4.49-15-6.38s-11.78-1.83-14.95,2.59c-1.83,2.54-2,5.93-3.61,8.64-4.59,7.88-16.72,5.43-24.35.45s-15.84-11.85-24.66-9.57S215.26,464,206,464.14c-4.91.05-9.17-3.14-13.69-5.05s-10.9-1.91-13.14,2.46a11.09,11.09,0,0,0-.77,5.61,58.71,58.71,0,0,0,8.91,27.95,135.87,135.87,0,0,1-37-68.9c-2.14-10.58-3-21.37-3.85-32.13L142.32,342c-.14-1.78-.36-3.72-1.64-5a9.45,9.45,0,0,0-2.67-1.54c-6.21-2.89-10.28-8.92-13.81-14.78A279.21,279.21,0,0,1,87.14,140c3.25-23.46,10.47-48,28.66-63.21,14.44,56.84,29.81,114.18,58.23,165.47,2.42,4.36,5,8.78,8.91,11.89s8.94,4.72,13.79,6.2l32.11,9.84c21.15-32.08,66.29-45.76,101.69-30.82a101.82,101.82,0,0,0,17.9,83.23,90.53,90.53,0,0,1,42.26-36.48c9.55-4,20.86-6.19,30-1.31,6.07,3.25,10.22,9.13,14.09,14.83,7.89,11.61,12.79,25.25,18,38.28.36.9.66,2.09-.08,2.71l-7.3-5c-4.21-2.91-9.25-6-14.13-4.41a13.29,13.29,0,0,0-4.68,2.94,29.71,29.71,0,0,0-9.21,26.4C417.86,363.35,418.48,366.59,416.3,368.49Z" style="fill:#020304"/><path d="M436.16,325.66c-7-11.83-17.22-25.53-30.81-23.45-4.4.67-8.35,3-12,5.52a115.12,115.12,0,0,0-29.85,29.73c-2.57,3.73-5.61,8-10.13,8.29-3.76.21-7-2.52-9.63-5.19a141.37,141.37,0,0,1-39.12-77.64c-13.22-2.07-27.15-2-39.54,3.1s-23,15.74-25.45,28.9c-4.85-7.22-15.83-3.53-24.54-3.44-9.63.1-18.43-5.31-25.94-11.35C151.29,249.75,133,201.75,117.7,155.69c-5.1-15.36-10.08-31.89-5.64-47.46C89.72,184.51,107.5,271.35,158,332.72A340.39,340.39,0,0,0,171.45,428c7.64-5,17.67-3,26.52-.76l32.67,8.06c8.42,2.08,17,4.18,25.68,3.35s17.45-5.16,21.31-12.93a73.78,73.78,0,0,0,44.52,9.88,40.28,40.28,0,0,1-21.88-18.69l32.44-6.78c20.64-4.32,44.87-11.79,50.78-32,2-6.69,1.48-13.88,3.15-20.65s6.7-13.67,13.67-13.83c6.07-.14,8.95,4.1,13,8.6,1.56,1.72,2.76,3,4.16,4.87a23.86,23.86,0,0,0,4.41,4.11c2,1.19,4.52.87,6.71.15a15,15,0,0,0,5-2.64c2.92-2.4,20.06-4.49,18.21-7.78C445.76,340.15,440.27,332.59,436.16,325.66Z" style="fill:#575ec5"/></svg>