<svg id="ed8d46c6-88d8-4684-a16c-57048030e961" data-name="Layer 8" xmlns="http://www.w3.org/2000/svg" viewBox="0 0 898.62 715.06"><path d="M527.3,245.52c22.68.8,46,17.2,61.51,33.79s28.05,35.88,44.93,51,39.92,26.06,62,20.88c12.16-2.85,31-11.14,40.12-19.72,18.92-17.86,32.25-34.41,38-59.77,2.79-12.18-4.2-31.1,1.28-42.32,6.14-12.56,17.11-21.95,26-32.7a119.88,119.88,0,0,0,24.31-48.42c3-12.43-3.12-26.48-7-38.67S798.1,82.68,785.81,79.15c-13-3.74-35.8-11.36-45.36-1.8s4.66,36.18,5.74,49.66c.68,8.49-1.61,15.69-6.42,21.36-8.83,10.4-25.74,9.42-35.5-.12s-15.69-22.66-26.36-31.15c-8.89-7.07-20.18-10.22-31.13-13.21-8.6-2.35-17.36-4.71-26.26-4.36s-18.13,3.87-23.26,11.16c-5.25,7.48-6.17,18.55-14.19,22.94-8.7,4.75-19-1.72-27.35-7-25.37-16-75.15-27.59-112.83-2.77-4.52,3,19.74-2.37,18.28,2.84-8.73,31.17-.17,66.62,21.85,90.36a156.23,156.23,0,0,0,13.56,12.67,94.52,94.52,0,0,0,8.54,6.66C511.61,240.74,519.49,245.25,527.3,245.52Z"/><path d="M508.31,110.74c-27.25-5.27-55.23,5.05-79.15,19.12A256.56,256.56,0,0,0,360.29,189c-17.54,21.57-32.65,46.93-57.54,59.32-14.62,7.28-31.19,9.27-47.23,12.36A332.7,332.7,0,0,0,101,335.79C70.22,362.54,43.38,395.64,6,411.88c-44.95,19.49-99.65,12-141,38.19-24.37,15.45-52.74,48.75-26.84,75.19,20,20.41,23,52.4,40.42,75,15.74,20.49,42.44,31.12,68.24,30s50.46-13.06,69.54-30.47c15.31-14,27.32-31.29,43-44.81,39.68-34.16,96.21-39.21,143.29-62.14a203.26,203.26,0,0,0,84.64-77.48c16.89-28.07,28.78-62.2,57.49-78,16-8.79,35.22-10.43,51.12-19.4,23.74-13.39,38.23-41.94,64.6-48.81,8.89-2.31,18.49-.43,27.68-.65,21.9-.52,40.29-18,49.73-37.72a99.79,99.79,0,0,0,7-65.31C539.72,143.85,525.91,124.45,508.31,110.74Z"/><path d="M422.5,159.31c-29.32,20.1-51.14,51.82-74.58,78.55s-55.82,42.69-89.53,54c-26.77,9-48.48,14.39-75.42,22.84-75.79,23.74-116.08,116.41-193.52,134-17,3.88-28.95,8-46.2,10.81A155.41,155.41,0,0,0-123.19,487c-11,8-14.82,10.54-10,22.52,3.41,8.49,14.66,23.35,22.09,28.82,12.24,9,30.05,4.63,42.37-4.27s21.45-21.56,33.41-30.92c23.57-18.46,55.24-22.21,82.19-35.24,28.38-13.72,51-37.47,79.35-51.19,29.21-14.12,63.84-17.28,89.47-37.16,19.43-15.07,31.5-38.24,51.44-52.63,39.2-28.28,97.39-15.41,137-43.2,23.13-16.25,31.16-34,58.45-42.12,8.53-2.53,18.55-2.06,27.34-3.4C501.22,236.44,510.62,227,513.7,216s7.4-44.79,1.11-54.4-16.95-12.87-27.36-17.71C469.44,135.46,438.89,148.08,422.5,159.31Z" style="fill:#f4a2bf"/><path d="M-2.47,514.94c16.64-9.5,36.79-10.6,54.37-18.24,17.86-7.77,32.21-21.9,49.36-31.14,35.61-19.18,81.26-16.38,113.47-40.85,22.69-17.23,34.41-44.84,50.84-68.12s43.59-44.24,71.16-37c-35.28,13.09-50.88,52.91-72.48,83.72A193.59,193.59,0,0,1,167,475.46c-18.12,6-37.08,9.19-55,15.65C78.17,503.27,49.54,526.2,21.6,548.74,14.41,554.54,7.19,560.36.86,567.1c-6.83,7.29-12.72,15.71-21.11,21.13-13.87,9-60.71,4.78-45-19.68,6-9.3,22.31-16.82,30.55-25.06C-24.59,533.33-15.11,522.16-2.47,514.94Z" style="fill:#f4a2bf"/><path d="M509.08,225.4c10.12-11.6,15.35-10.33,30-5.69a169.6,169.6,0,0,1,69.88,43c13.11,13.4,24.2,29.18,39.94,39.36,22.17,14.34,52.38,15.14,75.27,2s37.43-39.65,36.21-66c-.45-9.9-2.9-20.15.37-29.51,3.13-9,10.88-15.32,17.41-22.21a101.46,101.46,0,0,0,24.11-43c2.55-9.47-1.78-19.08-6.07-27.9s-26-28.64-34.88-24.41c-11,5.29,4.76,33.44,3,45.55A70.47,70.47,0,0,1,743,177.36c-7.52,7.08-17,12.56-27.27,13.49s-21.36-3.39-26.78-12.19c-2.57-4.18-3.77-9.08-6.16-13.36-3.71-6.65-10-11.39-16.12-15.93-8-5.92-16.24-12-25.91-14.23s-21.18.28-26.57,8.62c-4,6.12-3.89,13.88-5,21.07s-4.66,15.15-11.71,17c-10,2.6-17.64-8.19-24.26-16.09-13.17-15.72-44.86-31-65.25-28.88s-55.58-.14-80.57,21c-8.31,7,30.9,21.38,34.83,31.52,3.2,8.26,6.6,16.77,12.95,23C483.65,220.55,497.34,223.82,509.08,225.4Z" style="fill:#f4a2bf"/></svg>