<svg id="a64b04c9-8bd2-440b-80af-6fc34c414314" data-name="Layer 8" xmlns="http://www.w3.org/2000/svg" viewBox="0 0 922.57 611.31"><path d="M528.3,110c-12.23-11.85-31.39-12.6-48.23-10-28.38,4.36-50,20.76-74.45,35.76-29.61,18.14-59.53,35.74-90.73,51.51-32.56,16.44-65.21,32.73-98.17,48.49-27.39,13.1-54.63,26.47-81.9,39.78C71.54,306.37,9.14,338.65-51.45,373.88c-35.33,20.54-71.64,39.65-107.51,59.39-7.4,4.07-14.83,8.1-22.22,12.18-1,.58-2.46,1-1.92,2.72l27,15.59L-33.94,534.3l29.83,17.23c1.31-4.4,3.82-6.47,9.16-7.14,14.22-1.79,22.28-11.58,29.33-22.21a19,19,0,0,0,1.16-2.77c1.59-3.55,3.28-5,8.38-3.32,9.83,3.33,18.29-.41,25.58-6,8.09-6.16,14.91-13.48,19.66-22.47a16.78,16.78,0,0,1,2.64.88c10.25,5.46,20.17,4.84,28.39-2.09,6.18-5.22,12.65-10.2,17.11-17,1.56-2.4,3.34-3.75,6.31-1.19,7.9,6.83,15.86,3.76,22.11-.15,8.06-5.05,16.33-10.67,19.39-20.93,12.42,7,21.39,2,30.12-5.07,7.06-5.69,13.19-11.79,15.33-20.86.59-2.5,2.1-2.79,4.73-2.13,7.78,1.92,14.26-.92,19.68-5.21,6.13-4.85,12.51-9.68,16.15-16.79,1.38-2.69,2.94-2.65,5.68-1.13,8.1,4.51,15.28,3.6,22.64-1.67,9.84-7,16-16.54,20.1-27.56.34-.9.79-1.75,1.42-3.15,11.3,6.83,19.8,3,28-3.91,6.92-5.81,12.69-12.21,15.77-20.72.9-2.48,2.07-3.85,5.2-1.62,2.59,1.83,5.2,4.49,8.72,3.8,4.88-.95,9.73-2,13.7-5.11,8.59-6.64,15.78-14.14,17.73-25.33.52-3,1.85-5.75,2.73-8.64.71-2.36,2.25-3.37,4.75-2.23,9.87,4.52,16.93.65,23.32-5.45.91-.87,2.09-1.5,2.91-2.43,2.06-2.34,4-3.75,6.59-2.37,6.82-5.95,17.83-8.28,26.42-11.11s17.45-3.89,25.78-7.06c17.14-6.52,30.08-21.36,38.17-37.81s12-34.62,15.72-52.57c1.43-6.79,2.86-13.78,1.65-20.61s-4.87-12.73-8.46-18.54C543.19,131.35,537.17,118.56,528.3,110Z" style="fill:#020304"/><path d="M454.32,151.69c-17.59,9.47-33.7,20.43-50.91,30.58-27.37,16.14-65,36.41-93.68,50.59-36.52,18.08-60,33.77-97.05,50.9-35.68,16.48-75.1,30-110.92,46.19C60.3,348.73,8.34,378.09-32.14,398.61c-33.32,16.89-45.95,29.89-80.22,45.17-14.66,6.53-29.17,13.31-43.75,20L-32.9,534.9c5.47-6.23,6.19-14.75,10.07-21.79,4.66-8.45,11.93-11.12,21.66-6.83C5,509,6.24,508.66,8.39,502.56c2-5.7,3.57-11.57,5.56-17.27,2.79-8,7.82-13.24,17.69-13a16.78,16.78,0,0,1,7.81,1.76c2.18,1.18,4.31,2.45,6.49,3.63,7.11,3.88,8.93,3.52,12.34-3.35,3.8-7.63,7.17-15.47,10.83-23.17,4.11-8.65,12.83-11.17,22.33-6.35a129.76,129.76,0,0,1,11.4,6.65c3.31,2.12,5.49,1.55,7.18-1.44,3.46-6.13,7-12.2,10.48-18.31,1.12-2,2.09-4,3.28-5.93,4.25-6.82,12.7-8.48,20.72-4.43,4.36,2.2,8.13,5.63,13.51,7,1.16-3.45,2.16-6.8,3.4-10.05,1.34-3.49,2.11-7.16,4.19-10.43,3.93-6.15,11.49-8.55,18.77-5,3.95,1.92,7.58,4.49,11.44,6.6,4.05,2.21,5.53,2,6.6-1.92,2.14-7.82,5.79-15,8.43-22.58.41-1.18,1-2.29,1.45-3.48,3.46-9.88,13.45-8.59,20.43-6.16a30.31,30.31,0,0,1,3.65,1.92c7.78,4.08,8,4.2,11.78-3.18,2.73-5.36,5.32-10.79,8.55-15.87,5.37-8.44,13.58-10,23.18-5,3.79,2,7.5,7,11.39,5.21,2.8-1.27,3.69-6.23,5.05-9.7a130.92,130.92,0,0,1,8.77-19.15c4-6.81,11.16-8.58,18.85-4.54,2.44,1.28,4.77,2.75,7.16,4.11,5.12,2.93,6.14,2.86,8.51-2.14,3.54-7.47,6.91-15,9.93-22.74,4.28-10.9,12.07-13.46,23.27-7.24.24.13.5.24.74.38,10.6,5.94,10.75,6,14.13-5,2.29-7.49,4.72-14.88,8.82-21.57,4.62-7.55,13.94-10,22.73-5.83,1,.47,1.92,1.08,2.88,1.63,3.39,2,5.62,1.3,6.68-2.2,1.16-3.87,2.3-7.74,3.59-11.56,2.46-7.25,8.55-9.6,16.34-6.33a43.41,43.41,0,0,1,8.57,4.82c3.84,2.75,4.48,2.43,6-1.91,1.43-4,2.66-8.14,4.11-12.17,2.62-7.23,9.2-9.74,16.89-6.17,9.82-9.79,20.44-22.92,20-36.78-.3-9.15-5.44-17.35-10.41-25-2.71-4.18-5.47-8.43-9.25-11.69C477.2,151.18,463,147,454.32,151.69Z" style="fill:#34a61a"/><path d="M529.94,279.93c-.18,4.8,9.26,30.46,11.49,34.72a23.49,23.49,0,0,0,5,5.93L581.85,354c14.33,13.53,26.55,17.1,45.07,23.87,30.12,11,50.56,6.06,78.79-9.17,21.16-11.41,45.12-24.78,55.75-46.34s24.58-48.31,6.6-64.27c-6.68-5.93-9.79-4.44-9.6-13.38.11-5.23,3.7-9.67,7.29-13.46,19.25-20.33,16.69-13,38-31.22s32.95-47.95,35.22-75.85c1.76-21.62-8.24-37.76-24.81-51.76s-39.27-25.48-60.29-20.14c19.88,9.14,25.57,44.14,19.27,65.09s-21.18,29.09-36.41,44.8A52.93,52.93,0,0,1,714.84,176c-12.8,4-27.4-14.7-38.49-22.23-23.29-15.79-49.76-3.07-64.49,20.92-7.28,11.88-12.34,26.11-26.2,27.56-15.63,1.63-17.7-19.15-23.61-33.71-9.49-23.36-23.21-36.81-44-51.13s-53.47-14.21-67.69,6.6c3.17-4.63,43.34,26.91,46.64,31.06,16.09,20.26,7.1,34.28,6.57,56.67C502.8,245.37,531.34,242.54,529.94,279.93Z" style="fill:#020304"/><path d="M536.68,170.24c8.1,15.12,13.55,31.92,24.63,45s30.52,21.54,45.59,13.35c10.55-5.74,11.31-21.6,18.52-31.2,9-11.94,28.51-27.44,39.75-20.86,9.85,5.78,26.08,21.37,37,24.83,20.37,6.49,37.09-11.72,52.81-26.2,12.35-11.37,34-32.61,40.51-45.77s3.07-34.83-5.76-46.55c22.51,10.27,31.54,36.86,26.64,55.86s-22.1,35.14-35.33,49.64c-16.48,18.06-9.16,13.92-30.28,26.26-11.36,6.64-25.9,16.63-21.55,29.06,1.43,4.06,4.73,7.12,7.47,10.44a45.82,45.82,0,0,1,7,45.34c-3.5,8.68-9.64,16.06-16.46,22.47C706.81,341,679,352.61,651.09,351.25S595.83,334.93,581.47,311c-9.49-15.83-13.07-34.42-20.06-51.51s-19.21-34-37.22-38c-28.73-6.48-120.06,24.62-104-32.69C434,139.72,513.49,127,536.68,170.24Z" style="fill:#34a61a"/></svg>