<svg id="ef73c5b8-8d28-45e3-805a-c923d2597e3e" data-name="Layer 8" xmlns="http://www.w3.org/2000/svg" viewBox="0 0 906.61 746.99"><path d="M486.38,359.49c7.75-16.24,15.91-75.13,7.67-91.14s-26.32-12.84-40.6-1.88c-32.63-3.44-65.41,50.95-82.7,78.84L353.69,334.2c-4.57,13.56-9.58,27.8-20.42,37.15s-29.45,11.28-38.47.16a199.26,199.26,0,0,1-33.77,49c-4.42,4.7-9.52,9.42-15.9,10.31s-13.85-4.08-13-10.47a450.4,450.4,0,0,1-77.5,99A25.69,25.69,0,0,1,147,500.91a420.77,420.77,0,0,1-39.56,62.46c-4.43,5.79-9.4,11.75-16.33,14s-16.14-1-17.53-8.13a188.29,188.29,0,0,1-48.91,64.94L9.15,611.13a139.87,139.87,0,0,1-53.48,64.24c-4.4,2.83-9.17,5.47-14.39,5.75-4.85.26-9.54-1.55-14-3.35q-66.54-26.5-130.58-58.77c-7.38-3.72-10.46-23.38-3.91-28.42a368.82,368.82,0,0,0,95.51-110A61.23,61.23,0,0,1-99.9,505.46L-24,415c6.71-8,14.14-16.46,24.3-18.88s23.06,4.95,21.89,15.33A909.79,909.79,0,0,1,86,319a31.27,31.27,0,0,1,17,15.08l56.24-58.5c5.72-6,12-12.21,20.08-13.8s18.07,4.12,17.5,12.36a407.4,407.4,0,0,1,86-96.58L281,203.41c8.5-18,17.15-36.31,30-51.59s30.55-27.46,50.4-29.39l-1.1,11.06a144.34,144.34,0,0,1,83.44-83.15,8.18,8.18,0,0,1-1.52,11.42c.76,7.58.15,18.14.91,25.72A146.74,146.74,0,0,1,514.6,75.87a27.34,27.34,0,0,1-13.93,24.21A119.76,119.76,0,0,1,566.29,153l-27,0a79,79,0,0,0,33.51,8.48c11.32.29,23.66-6.13,26.26-17.15l-.67,16.35c9.83,2.34,20.95,7.63,29.41,13.15A31.83,31.83,0,0,0,609.12,192a129.23,129.23,0,0,0,59.06-50.45,91.69,91.69,0,0,1,5.36,32.82,138.23,138.23,0,0,1,40.11-5c7.14.16,15.05,1.28,19.61,6.77s2,16.29-5.19,16.34c20.59-8.75,35.95-26.81,46.71-46.43C788,121.88,795,91.11,781.18,67.28c15.71,9,31.61,18.17,44.55,30.85s22.81,29.47,23.41,47.57c.32,9.61-1.95,19.12-4.89,28.28-10.38,32.34-16.74,60.94-41.92,83.73,8.77-2.19,14-.55,22.24-4.33-8,18.46-21.6,29-29.59,47.46,8.26,3.66,12.74,11.48,21,15.14l-46.25,47.07c-19.52,19.86-39.4,40-63.74,53.54s-43.52,27.68-69.66,18.05c1.14,13.8-2.08,19,9.19,27.09a383.79,383.79,0,0,1-71.41-19.91,31,31,0,0,0,3,23.11c-11.89-.36-19.49-12.5-24.38-23.34A408.8,408.8,0,0,1,533,388.08a69.5,69.5,0,0,0-25,27.1,167.81,167.81,0,0,1-11.9-50.61C491.79,362.94,490.68,361.12,486.38,359.49Z"/><path d="M514.69,236.76c-11-13.58-20.54-3-37.43-7.55s-59,20.63-71.26,33.15c-15.37,15.74-25.55,34-33.41,54.53-.06-6.88-7.94-11.59-14.77-10.76s-12.51,5.51-17.43,10.32A151.11,151.11,0,0,0,313,352.84c4-8.88-3.62-19.9-13.2-21.64s-19.29,3.84-25.19,11.58-8.7,17.33-11.25,26.72-5.07,19-10.51,27.07c-4.39-9.36-16.56-13.26-26.53-10.51s-17.75,10.75-23,19.66-8.41,18.86-12.4,28.4A171.51,171.51,0,0,1,169.76,471c-3.69-10.74-17.35-16.76-27.76-12.21-8.09,3.53-13,11.69-17.34,19.35-11.81,20.75-15.4,52.4-30.72,63.9,1.23-9.47-3.57-12.16-7.13-14.48s-8.44-1.72-12.1.44-6.36,5.6-8.85,9.05A186,186,0,0,0,41,585.18c-1.83-7-8.79-11.69-15.91-12.72s-14.34,1-21,3.7S-9.2,582.42-13.73,588c-4.75,5.87-6.81,13.4-9.23,20.57a172.6,172.6,0,0,1-24.15,46.54c-1.47,2-3.07,4.07-5.32,5.16-3.74,1.82-8.18.51-12.12-.83q-26.33-9-52.43-18.62c-6.09-2.25-12.26-4.57-17.53-8.36s-9.31-8.75-13.23-13.81c-8.35-10.79-17-19.23-24-30.92a202.6,202.6,0,0,0,43.81-55c2.67-4.9,5.61-10.34,10.87-12.22s12.17,15.19,9.78,20.24c36.52-29.87,70-80.63,107.94-112.62,3.55,3.38,12.14,12.61,13,17.43,27.58-24.38,50.95-59.15,69.88-90.71,3.48,8.34,15.87,16,23.82,11.74s13-12.39,18.1-19.82c13.73-19.87,31-41.16,50.63-55.23,2.24,5.07,1.43,23.43-.72,28.55,35-21.41,60.42-76.71,88.85-105.77-1,9.37-.89,29.72,4.39,37.52,25-34.22,43.85-76.08,75.07-107.39-.81,9.21,2.39,19.36,9.21,19.13s12-5.87,16.69-10.89a212.46,212.46,0,0,1,56.29-43.27l-1.08,11.06a134.8,134.8,0,0,1,53-15.19L466,120.24a115.87,115.87,0,0,1,50.9,17.47c-6.4.19-9.84,8.51-7.74,14.55s7.58,10.14,12.64,14.05A139.91,139.91,0,0,1,575.6,180.1a69.18,69.18,0,0,0-24.8,13.65,92.46,92.46,0,0,1,55.26,30.46l-15.89,11.87C599,237.92,608,232.67,614,225.9s10-15.08,15.53-22.24A64.37,64.37,0,0,1,663.85,181l-18,30c16-19.5,45.53-26.42,68.51-16.05a132.69,132.69,0,0,0-28.77,40.27c8.17,2.58,16.87-1.41,24.28-5.73C774,192.1,800.71,170.55,802.65,96.34c20.81,35.74,30.1,55.92,18.21,95.53-14,46.66-37.66,57.68-75.75,88.06l31.44-8.57-11.13,14.37A20.85,20.85,0,0,0,775.87,281c4.58,1.73,4.88,8.06,4,12.87-6.27,33.64-30.72,61.09-57.73,82.09-22.29,17.34-48.28,32-76.5,33.06s-58.54-14.73-66.77-41.75a101.74,101.74,0,0,1,2,39.62,96.87,96.87,0,0,1-26.5-74.65l-17.58,27c-10.52-12-9.7-29.76-12.16-45.54S530.56,234.91,514.69,236.76Z" style="fill:#675647"/><path d="M343.64,189.84Q330,205.65,316.46,221.58c-2.56,3-5.27,6.54-4.83,10.47,1.53,13.78,16.21,4.37,19.52-2.08a125.58,125.58,0,0,0,8-19.46C340.59,205.79,340.81,193.12,343.64,189.84Z"/><path d="M634.37,328.25a43.05,43.05,0,0,1-15.68,22.12c8.45,8.32,22.46,6.23,33.55,2A129,129,0,0,0,700.44,320c-6.5,13.19-13.11,26.54-22.68,37.71s-22.61,20.1-37.23,21.7a72,72,0,0,1-16-.42c-7-.8-14.56-2.24-19.55-7.29s-5.63-14.82.44-18.48c-20.21-2.08-39.94-19.28-42.24-39.8C570.44,319.28,628.76,346.82,634.37,328.25Z"/></svg>