<?xml version="1.0" encoding="utf-8"?>
<!-- Generator: Adobe Illustrator 26.0.3, SVG Export Plug-In . SVG Version: 6.00 Build 0)  -->
<svg version="1.1" id="Calque_1" xmlns="http://www.w3.org/2000/svg" xmlns:xlink="http://www.w3.org/1999/xlink" x="0px" y="0px"
	 viewBox="0 0 640 640" style="enable-background:new 0 0 640 640;" xml:space="preserve">
<style type="text/css">
	.st0{clip-path:url(#SVGID_00000090282611658839413240000017949994439716003744_);}
	.st1{fill:#020304;}
	.st2{fill:#F7F7F7;}
	.st3{fill:#34A61A;}
	.st4{fill:#020303;}
	.st5{fill:#FFFFFF;}
</style>
<g>
	<defs>
		<rect id="SVGID_1_" width="640" height="640"/>
	</defs>
	<clipPath id="SVGID_00000007401185163645141670000016654579276332739202_">
		<use xlink:href="#SVGID_1_"  style="overflow:visible;"/>
	</clipPath>
	<g style="clip-path:url(#SVGID_00000007401185163645141670000016654579276332739202_);">
		<path class="st1" d="M394.27,237.01c2.05,2.88,19.3,3.89,24.4,3.04c0.38-0.06-16.42,41.14-12.13,66.4
			c4.4,25.94,24.88,35.29,17.24,50.23c-1.56,3.05-4.89,15.32-17.88,27.03c-10.59,9.55-25.01,20.9-31.38,24.56
			c-10.37,5.95-20.48,12.23-29.93,19.41c-6.56,4.99-13.51,9.5-21.02,13.23c-1.57,0.78-3.18,1.48-4.88,1.97
			c-5.99,1.71-12.05,3.14-18.41,2.87c-11.77-0.49-22.22-3.8-30.64-11.77c-7.67-7.26-13.65-15.55-18.8-24.46
			c-4.92-8.49-7.87-17.61-10.78-26.74c-2.52-7.9-4.52-15.94-5.47-24.15c-0.3-2.61-0.61-5.21-0.73-7.83
			c-1.41-31.99,13.32-87.71,23.05-95.75c1.6-1.32,2.7-2.92,4.14-4.26c4.85-4.48,9.15-9.45,14.38-13.6c4.5-3.58,9.81-5.65,15.3-7.39
			c2.99-0.95,14.41-5.04,16.63-2.78c8.02,8.12,16.44,14.07,31.16,18.14C367.8,253.24,381,218.34,394.27,237.01z"/>
		<path d="M454.14,465.98c7.38,38.19,12.88,77.05,10.86,115.89c-2.03,38.84-9.08,97.45-20.89,105.14c-9.9,0-21.06-0.15-26.2-0.7
			c-30.33-3.2-60.65-6.4-90.98-9.6c3.44-6.39,11.13-8.88,17.14-12.94c5.16-3.49,9.25-8.32,13.03-13.27
			c21.37-27.95,35.01-61.32,42.48-95.7s8.92-69.84,7.5-104.99c-0.84-20.84-3.13-42.9-15.69-59.55c1.03,1.37,23.39-22.31,23.39-22.31
			c9.79-12.13,3.64-10.56,16.6,17.45C443.29,411.16,449.14,440.11,454.14,465.98z"/>
		<path class="st1" d="M164.87,546.81c-5.03,1.81-10.55,1.8-15.7,0.27c-9.43-2.8-17.96-7.35-25.7-13.19
			c-4.49-3.39-7.69-7.67-10.17-12.36c-5.87-11.07-7.12-22.63-4.32-34.41c1.66-6.97,4.74-13.46,8.29-19.75
			c2.95-5.21,5.96-10.41,9.92-15c7.07-8.21,14-16.54,21.75-24.21c5.52-5.46,11.32-10.67,17.66-15.35c3.74-2.76,7.97-4.77,12.65-5.8
			c6.98-1.55,13.41,0.09,18.89,4.37c5.34,4.17,9.86,8.96,12.92,14.98c3.14,6.19,5.75,12.54,8.6,18.82
			c4.76,10.47,7.3,21.48,11.08,32.17c3.7,10.48,7.59,20.88,12.17,31.09c4.78,10.65,9.61,21.28,14.62,31.84
			c4.17,8.78,8.24,17.59,12.34,26.39c9.5,20.43,18.51,41.03,26.46,62c4.64,12.23,9.81,24.29,14.75,36.43c1.02,2.5,2.05,5,3.07,7.51
			c0.14,0.35,0.41,0.75-0.07,1.06c-3.28-0.52-6.57-1.04-9.85-1.57l-44.58-7.09c-3.63-0.58-7.26-1.15-10.89-1.73
			c0.56-1.36,0.35-2.38-0.84-3.62c-3.17-3.31-3.2-7.37-2.81-11.43c0.03-0.31,0.19-0.61,0.27-0.92c0.32-1.2,0.2-1.91-1.41-2.51
			c-3.11-1.15-4.46-3.79-5.15-6.64c-0.77-3.16-0.99-6.36-0.36-9.55c-0.36-0.14-0.59-0.27-0.83-0.31c-3.65-0.71-5.99-2.86-6.64-6.24
			c-0.48-2.54-1.09-5.09-0.82-7.68c0.09-0.91-0.07-1.61-1.33-1.57c-3.34,0.1-4.7-2.26-5.47-4.5c-0.99-2.88-1.91-5.94-0.6-9.11
			c-4.49-0.77-5.71-3.82-6.46-7.33c-0.61-2.84-0.9-5.59,0.4-8.27c0.36-0.74,0.04-1.12-0.75-1.49c-2.32-1.09-3.36-3.1-3.84-5.26
			c-0.55-2.44-1.16-4.92-0.63-7.43c0.2-0.95-0.2-1.25-1.18-1.42c-2.92-0.51-4.53-2.19-5.29-4.98c-1.03-3.74-0.64-7.34,0.56-10.9
			c0.1-0.29,0.16-0.59,0.28-1.07c-4.18-0.58-5.52-3.25-6.18-6.62c-0.55-2.84-0.69-5.59,0.26-8.33c0.28-0.8,0.26-1.37-0.97-1.45
			c-1.01-0.06-2.2,0.07-2.93-0.81c-1.02-1.22-2.01-2.47-2.38-4.03c-0.79-3.38-1.07-6.7,0.7-9.87c0.47-0.84,0.7-1.8,1.06-2.7
			c0.3-0.73,0.12-1.29-0.73-1.51c-3.36-0.87-4.34-3.25-4.69-6.06c-0.05-0.4-0.22-0.79-0.24-1.19c-0.05-1.28-0.35-2.13-2.12-1.94
			c-2.02,0.22-3.51-1.69-4.15-4.08c-0.52-1.95-0.83-3.95-0.77-5.97c-4.23,0.28-5.46-2.3-6.22-5.03c-1.09-3.94-0.34-7.66,0.69-11.4
			c0.13-0.46,0.23-0.94,0.39-1.39c0.5-1.36,0.16-2.38-1.19-3.31c-1.84-1.27-3.34-2.85-4.57-4.7c-1.65-2.47-4.42-3.68-7.11-4.9
			c-0.99-0.45-1.38,0.37-1.88,0.88c-4.25,4.27-8.45,8.58-12.45,13.06c-2.52,2.82-4.95,5.71-7.45,8.54
			c-1.02,1.16-1.48,2.44-1.56,3.96c-0.19,3.68,0.41,7.19,2.24,10.57c2.02,3.71,3.91,7.46,6.45,10.91c1.72,2.34,3.91,3.6,6.99,3.71
			c4.68,0.17,8.73-3.99,10.19-8.44c1.46-4.45,0.67-9.38-1.17-13.68c2.52,0.54,4.54,2.44,6.08,4.51c1.86,2.51,3.22,5.37,4.32,8.3
			c2.51,6.63,3.83,13.7,3.88,20.79c0.03,4.12-0.47,8.5-3.05,11.72C174.32,544.34,169.39,545.19,164.87,546.81z"/>
		<path class="st1" d="M340.18,250.05c-20.86-1.28-29.16-2.98-48.1-7.87s-3.74-10.97,6.74-13.45c4.76-1.13,9.36-3.14,10.78-7.15
			c1.18-3.32,2.53-6.59,4.18-9.69c1.68-3.16,2.36-6.41,2.46-9.82c0.19-6.34-0.22-12.64-1.46-18.88c-0.92-4.64-2.82-9.01-4.39-13.47
			c-3.04-8.66-6.3-17.25-9.24-25.95c-2.33-6.87-5.56-13.42-8.82-19.95c-1.42-2.84-3.88-5.11-5.99-7.57
			c-3.94-4.59-8.68-8.5-13.04-12.72c-2.96-2.87-6.55-5.19-9.82-7.79c-5.15-4.09-10.65-7.77-16.1-11.5
			c-2.42-1.66-4.64-3.54-6.73-5.54c-1.47-1.41-2.47-3.1-3.3-4.86c-0.94-2.01-0.42-3.07,1.82-3.8c3.55-1.16,7.2-1.48,10.9-0.61
			c4.42,1.03,8.84,2.07,13.15,3.46c5.26,1.7,9.88,4.41,14.13,7.63c3.57,2.71,6.98,5.61,10.42,8.47c4.15,3.45,7.33,7.68,10.91,11.59
			c6.39,6.96,11.26,14.79,15.86,22.76c3.11,5.39,6.54,10.69,8.31,16.64c1.4,4.73,2.57,9.51,3.8,14.28
			c1.61,6.22,3.39,12.4,4.15,18.77c0.69,5.72,0.91,11.44,0.52,17.2c-0.24,3.55-1.55,6.79-2.42,10.17c-0.5,1.94-1.03,3.86-0.3,5.86
			c0.26,0.72,0.64,1.23,1.38,1.6c1.57,0.79,2.96,1.79,3.98,3.17c0.85,1.14,1.17,2.36,1.34,3.76c0.61,5.21,1.09,10.45,2.73,15.51
			c0.31,0.96,0.75,1.85,1.43,2.65c1.4,1.64,2.91,2.01,4.84,0.93c2.8-1.56,5.17-3.6,7.21-5.95c2.56-2.94,5.19-5.83,7.62-8.86
			c2.5-3.12,5.49-5.59,9.54-6.81c1.45-0.44,1.97-1.14,2.05-2.61c0.22-4.14,1.59-8.09,2.81-12.05c2.91-9.46,7.16-18.48,10.66-27.75
			c2.16-5.71,4.65-11.32,7.77-16.65c4.44-7.59,7.94-15.59,12.15-23.27c6.37-11.62,12.58-23.31,19.94-34.45
			c1.13-1.71,2.47-3.24,3.97-4.7c4.35-4.25,9-8.17,13.99-11.79c7.37-5.35,15.55-8.68,24.96-9.23c2.38-0.14,4.8-0.15,7.03,0.85
			c1.53,0.69,1.72,1.05,1.34,2.52c-0.61,2.4-1.74,4.4-3.99,6.03c-4.55,3.29-9,6.69-13.2,10.38c-5.21,4.57-10.35,9.16-14.89,14.32
			c-7.3,8.29-13.01,17.41-18.06,26.99c-6.12,11.59-11.69,23.39-16.68,35.41c-4,9.63-7.35,19.47-10.67,29.31
			c-1.9,5.63-3.84,11.27-7.35,16.3c-0.75,1.08-1.48,2.19-2.78,2.79c-0.67,0.31-0.88,0.73-0.55,1.38c1.52,2.93,1.38,6.06,1.4,9.19
			c0.02,3.49,0.41,7.35,3.05,9.72C419.78,260.27,361.04,251.33,340.18,250.05z"/>
		<path class="st1" d="M448.98,218.11c11.52-2.77,24.33-2.9,34.21,3.62c9.59,6.33,15.15,17.51,17.07,28.84
			c1.93,11.33,0.65,22.94-0.86,34.33c-2.69,20.19-6.36,40.89-17.21,58.14c-2.38,3.79-5.13,7.41-8.59,10.25
			c-7.77,6.38-15.2,9.37-28.19,9.09c-10.05-0.21-24.53-1.64-24.53-17.53c-18.6-23.62-19.38-37.93-20.15-51.14s0.58-50.99,13.9-53.25
			C427.19,238.34,426.04,223.62,448.98,218.11z M454.71,320.34c8.36,0.39,14.09-1.03,21.89-4.21c5.8-2.37,8.08-11.81,8.75-17.29
			c0.48-3.89,1.73-7.5,1.52-11.41c-0.23-4.19-1.86-7.44-4.96-11.98c-5.79-5.37-9.53-5.63-16.18-5.97c-3.01-0.15-6.02-0.25-9.03-0.29
			c-7.39-0.1-15.14,0.24-21.55,3.86c-7.85,4.43-12.41,13.39-12.63,22.26c-0.11,4.35,0.73,8.72,2.43,12.74
			c0.98,2.3,1.95,6.14,3.89,7.75c2.06,1.72,5.02,3.35,7.63,4.05C441.22,321.12,449.79,320.12,454.71,320.34z"/>
		<path class="st1" d="M440.8,295.85c0.06-2.93,1.52-5.78,3.78-7.42c2.7-1.95,6.35-2.08,9.32-0.67c2.97,1.42,5.25,4.24,6.49,7.46
			c0.38,1,0.68,2.07,0.62,3.15c-0.08,1.56-0.88,2.98-1.87,4.12C453.28,309.26,440.58,306.13,440.8,295.85z"/>
		<path class="st2" d="M446.85,274.87c0.5,0.64,1,1.28,1.5,1.92c2.27,2.92,3.01,6.28,2.3,9.87c-0.65,3.3-2.93,4.67-6.6,4.52
			c-2.11-0.09-4.08-0.88-5.68-2.32c-0.77-0.69-1.27-1.48-1.56-2.44c-0.38-2.99,0.09-5.8,2.12-8.29c0.86-1.05,1.89-1.87,3.21-2.25
			C443.69,275.42,445.11,274.36,446.85,274.87z"/>
		<g>
			<path class="st1" d="M256.02,254.49c-5.67-5.98-11.87-11.37-19.5-15.27c-7.72-3.94-15.91-6.17-24.76-6.29
				c-3.71-0.05-7.4,0.3-11.09,0.52c-4.97,0.29-9.82,1.08-14.56,2.38c-5.57,1.53-10.65,3.98-14.6,7.97
				c-8.06,8.14-11.66,17.65-10.49,28.75c0.8,7.64,2.69,14.98,5.81,22.06c1.22,2.76,2.62,5.48,5.03,7.6c0.47,0.41,0.71,0.85,0.62,1.5
				c-0.33,2.52,0.33,4.93,1.07,7.33c1.43,4.66,4.24,8.67,6.94,12.74c2.27,3.42,4.86,6.6,8.55,8.86c0.69,0.42,0.81,0.87,0.64,1.6
				c-0.6,2.64-0.12,5.24,0.7,7.78c2.18,6.77,6.42,12.24,12.61,16.42c2.35,1.59,4.99,2.62,7.91,2.82c5.97,0.41,11.49-0.89,16.52-3.93
				c2.18-1.32,3.96-2.93,5.3-4.98c0.35-0.53,0.72-2.34,3.98-1.21c7.45,2.59-1.03-44.98,21.53-93.75
				C258.6,256.6,256.52,255.02,256.02,254.49z M219.9,308.13c-0.1,4.68-1.31,9.13-4.93,12.74c-1.95,1.94-4.44,3.05-7.05,3.96
				c-3.45,1.19-7.05,1.57-10.71,1.36c-2.86-0.16-5.19-1.42-7-3.37c-3.26-3.53-6.02-7.38-8.01-11.65c-1.36-2.92-1.83-5.86-1.3-9.11
				c0.75-4.58,1.95-9.03,3.37-13.45c0.19-0.6,0.79-2.87,1.28-3.82c1.71-3.84,2.55-4.4,4.84-5.98c1.47-0.85,3.9-1.87,5.64-1.77
				c2.03,0.12,4.26-0.07,7.33,0.72c3.08,1.21,5.17,2.95,7.69,5.4c1.66,1.61,2.94,3.46,3.97,5.47
				C218.18,294.8,220.04,301.28,219.9,308.13z"/>
		</g>
		<path class="st1" d="M198.97,298.39c4.38,0.07,6.31,2.61,5.68,6.31c-0.47,2.7-1.81,5.15-3.4,7.42c-1.48,2.12-4.31,2.41-6.46,0.8
			c-3.03-2.25-4.6-5.3-5.29-8.74c-0.4-1.98,0.84-3.83,2.94-4.51C194.55,299,196.67,298.28,198.97,298.39z"/>
		<path class="st2" d="M197.75,283.77c0.5,0.64,1,1.28,1.5,1.92c2.27,2.92,3.01,6.28,2.3,9.87c-0.65,3.3-2.93,4.67-6.6,4.52
			c-2.11-0.09-4.08-0.88-5.68-2.32c-0.77-0.69-1.27-1.48-1.56-2.44c-0.38-2.99,0.09-5.8,2.12-8.29c0.86-1.05,1.89-1.87,3.21-2.25
			C194.6,284.32,196.02,283.26,197.75,283.77z"/>
		<g>
			<path class="st3" d="M382.36,238.27c1.39,2.39,3.05,4.53,5.46,6.14c0.87,0.58,1.75,1.15,2.76,1.49
				c3.49,1.19,5.85,5.39,15.98,3.53c18.93-4.07-33.1,37.75,13.76,95.45c-6.75,20.93-22.3,31.26-28.67,38.49
				c-1.92,2.18-5.59,3.58-7.61,5.69c-2.39,2.5-5.03,4.72-8.01,6.56c-4.94,3.06-10.02,5.93-14.95,8.99
				c-7.4,4.59-14.68,9.32-21.53,14.62c-6.95,5.37-14.1,10.58-22.37,14.2c-6.09,2.67-12.46,3.86-19.32,3.17
				c-3.93-0.39-7.62-1.34-11.35-2.33c-4.24-1.13-7.63-3.48-10.79-6.16c-3.95-3.35-7.18-7.26-10.29-11.27
				c-5.95-7.67-10.26-16.07-13.36-25.04c-2.61-7.56-5.04-15.17-6.88-22.92c-1.33-5.61-2.34-11.26-2.76-17.02
				c-0.35-4.78-0.42-9.55-0.17-14.3c0.38-7.48,0.68-14.96,1.64-22.42c0.78-6.06,1.57-12.1,3.28-18c1.39-4.81,2.93-9.59,4.35-14.39
				c1.68-5.68,4.57-10.84,7.95-15.8c3.05-4.48,6.62-8.57,10.35-12.57c3.13-3.35,6.08-6.83,9.47-9.99c3.38-3.15,7.45-5.33,11.68-7.32
				c0.99-0.47,2.05-0.46,3.13-0.49c2.74-0.08,6.38-2.51,8.21-0.38C314.17,250.03,347.37,269.19,382.36,238.27z"/>
			<path class="st3" d="M387.89,617.35c8.09-19.28,14.93-36.73,18.98-57.24c9.22-46.64,12.19-95.11,3.85-141.92
				c-1.86-10.41-4.65-21.11-11.51-29.16c6.85-4.36,13.03-9.46,18.54-17.33c12.16,26.53,20.16,48.69,24.53,72.1
				c3.47,18.6,8.87,37.26,10.09,56.14c1.65,25.52,2.33,49.11,3.7,74.65c1.73,32.17-4.68,59.75-12.45,91.02
				c-0.43,1.74-2.24,8.2-2.85,9.88c-1.28,3.55-2.38,3.92-4.87,3.97c-26.48,0.61-62.57-3.76-94.35-7.95
				c21.28-8.37,28.72-21.32,32.78-29.23C379.33,632.54,383.94,626.76,387.89,617.35z"/>
			<path class="st3" d="M165.88,535.36c-4.48,3.69-9.23,2.68-15.24,1.89c-2.08-0.27-3.75-1.43-5.61-2.17
				c-6.78-2.69-13.15-6.09-18.94-10.39c-3.86-2.87-6.43-6.61-8.32-10.65c-3.88-8.25-4.52-16.78-2.41-25.38
				c1.65-6.76,5.02-12.84,8.46-18.91c4.4-7.76,10.11-14.63,16.34-21.15c4.57-4.78,8.58-10,13.53-14.47
				c4.93-4.46,9.83-8.98,15.28-12.92c3.29-2.37,7.04-4,11.06-5.22c6.46-1.96,12.54,1.98,14.58,6.13c1.32,2.68,6.01,8.24,7.34,10.87
				c4.53,8.92,5.72,9.12,7.25,15.96c0.98,4.37,2.68,10.03,4.1,14.3c2.88,8.7,5.4,17.49,8.61,26.11c3.55,9.53,8.82,22.16,13.08,31.46
				c5.43,11.85,8.1,20.48,13.86,32.21c5.54,11.29,12.62,22.59,18.26,33.84c6.52,13.03,13.51,30.8,19.44,44.05
				c4.88,10.91,5.4,16.69,10.83,27.4c2.32,4.58,4.57,9.19,6.85,13.78c-14.99-2.38-29.98-4.77-44.96-7.15
				c-0.1-2.65,1.43-4.91,1.89-7.45c0.55-3.04-0.72-5.17-4.01-6.06c-2.1-0.57-2.32-0.9-1.63-2.85c0.65-1.82,1.45-3.59,2.1-5.41
				c0.91-2.54,0.73-4.87-1.78-6.79c-0.71-0.55-1.41-0.97-2.3-1.14c-0.78-0.15-1.56-0.26-2.34-0.41c-2.55-0.47-2.93-0.93-2.39-3.32
				c0.59-2.66,1.34-5.29,1.98-7.94c0.72-2.98-0.94-5.36-4.27-6.08c-1.37-0.3-2.78-0.49-4.18-0.64c-1.25-0.14-1.68-0.72-1.49-1.81
				c0.38-2.22,0.72-4.44,1.08-6.66c0.12-0.71,0.29-1.42,0.38-2.14c0.32-2.55-1.45-4.67-4.25-5.28c-1.53-0.33-3.16-0.24-4.77-0.98
				c0.41-1.09,0.83-2.13,1.18-3.18c0.37-1.14,0.92-2.2,1.06-3.44c0.26-2.32-1.13-4.44-3.65-5.03c-1.37-0.32-2.79-0.41-4.17-0.67
				c-1.45-0.27-1.77-0.63-1.25-1.81c1.04-2.37,1.58-4.89,2.45-7.31c0.14-0.38,0.21-0.78,0.34-1.16c1.13-3.15-1.61-4.85-3.84-5.65
				c-0.41-0.15-0.86-0.17-1.29-0.26c-2.76-0.56-2.84-0.57-2.29-3.17c0.4-1.88,0.85-3.76,1.07-5.67c0.37-3.18-1.35-5.23-4.76-5.91
				c-1.34-0.27-3.27,0.22-3.88-1c-0.44-0.88,0.34-2.29,0.7-3.43c0.68-2.15,1.35-4.29,1.68-6.53c0.37-2.51-1.05-4.38-3.77-4.93
				c-0.86-0.17-1.74-0.28-2.61-0.42c-1.86-0.3-2.1-0.53-1.68-2.25c0.63-2.57,1.31-5.13,2.11-7.65c1.13-3.57-0.29-5.78-4.32-6.49
				c-0.09-0.02-0.17-0.04-0.26-0.06c-3.83-0.66-3.88-0.68-2.5-4.09c0.94-2.32,1.83-4.65,2.16-7.14c0.37-2.81-1.45-5.29-4.48-6.03
				c-0.34-0.08-0.69-0.12-1.04-0.18c-1.24-0.2-1.66-0.81-1.22-1.89c0.49-1.19,0.99-2.39,1.44-3.6c0.85-2.3-0.19-4.11-2.78-4.87
				c-1.01-0.29-2.03-0.47-3.1-0.53c-1.51-0.09-1.61-0.3-1.11-1.69c0.46-1.29,0.98-2.56,1.43-3.85c0.81-2.33-0.32-4.28-2.95-4.94
				c-1.27-0.32-2.6-0.47-3.92-0.59c-1.97-0.18-1.87-0.12-1.39-1.94c0.73-2.79,1.71-5.52,2.23-8.37c0.36-2.02-0.24-3.62-1.83-5.06
				c-1.46-1.32-2.84-2.72-4.5-3.84c-1.98-1.33-3.1-3.36-4.91-4.82c-4.85-3.91-10.12-6.89-16.79-7.01c-1.48-0.03-2.53,0.34-3.38,1.38
				c-5.75,7.09-12.52,13.4-18.52,20.3c-2.54,2.92-5.15,5.78-7.43,8.88c-0.99,1.35-1.61,2.77-1.8,4.43
				c-0.83,7.35,0.09,14.42,3.85,21.22c2.26,4.08,4.63,8.07,7.39,11.89c2.71,3.76,6.21,6.06,11.19,6.69
				c4.46,0.56,8.79-2.66,12.59-5.06c1.68-1.06,3.41-2.22,4.38-3.96c1.03-1.85,1.05-4.09,1.04-6.21c2.08,4.2,2.04,9.09,1.92,13.78
				c-0.02,0.9-0.45,2.4-0.96,3.14c-0.38,0.55-0.61,1.69-1.19,2.03C168.46,532.93,167.19,534.28,165.88,535.36z"/>
			<path class="st3" d="M462.41,78.06c-4.1,2.92-7.67,6.36-11.7,9.33c-4.76,3.52-9,7.57-13.08,11.76
				c-8.05,8.27-13.31,18.08-18.34,28.02c-1.92,3.8-4.22,7.43-6.01,11.3c-5.38,11.64-11.1,23.15-15.3,35.21
				c-2.49,7.17-4.84,14.39-7.36,21.55c-1.04,2.97-2.17,5.91-3.61,8.75c-1.06,2.1-2.92,3.01-5.02,3.78c-0.83,0.3-1.75,0.41-2.84,0.66
				c0.16-1.83,0.77-3.36,1.26-4.89c1.78-5.52,3.74-10.98,6.04-16.34c3.22-7.54,6.21-15.16,9.39-22.71c2.04-4.84,4.8-9.39,7.06-14.14
				c4.5-9.45,9.33-18.75,14.75-27.77c3.93-6.53,7.49-13.23,11.69-19.64c2.6-3.96,5.95-7.23,9.44-10.45
				c4.93-4.55,10.49-8.37,16.41-11.77C457.43,79.43,459.74,78.36,462.41,78.06z"/>
			<path class="st3" d="M322.79,195.43c0-0.67,0.01-1.35,0-2.02c-0.08-5.85-0.86-11.6-2.68-17.22c-3.87-11.92-8.19-23.71-12.4-35.53
				c-2.35-6.62-5.49-12.99-8.67-19.31c-1.79-3.55-4.63-6.54-7.31-9.58c-4.49-5.09-9.56-9.69-14.66-14.25
				c-3.09-2.76-6.68-5.04-10-7.6c-4.81-3.7-10.02-6.88-15.28-10c-1.62-0.96-3.04-2.14-4.59-3.34c0.62-0.47,1.1-0.11,1.55,0
				c7.42,1.84,14.68,4.01,20.99,8.25c3.77,2.53,6.88,5.72,10.42,8.46c5.57,4.31,9.72,9.7,14,15c1.1,1.37,2.3,2.67,3.49,3.98
				c2.69,2.97,4.76,6.3,6.72,9.7c2.71,4.71,5.38,9.44,8.04,14.17c3.02,5.37,4.36,11.22,5.74,17.05c1.39,5.9,3.12,11.73,4.22,17.68
				c0.66,3.57,1.09,7.15,1.37,10.76c0.21,2.7,0.23,5.39,0.31,8.08C324.06,201.53,322.66,197.7,322.79,195.43z"/>
			<path class="st3" d="M377.43,258.61c-20.22,0.64-52.36-3.94-73.43-6.49s-27.62-4.84-24.24-8c3.38-3.15,7.45-5.33,11.68-7.32
				c0.99-0.47,2.05-0.46,3.13-0.49c2.74-0.08,5.48,0.25,8.21-0.38c4.68-1.08,8.34-3.21,10.49-7.37c1.58-3.05,2.61-6.28,4.13-9.35
				c1.05-2.12,2.66-3.76,4.44-5.29c1.29-1.11,2.22-2.81,4.01-1.47c0.99,0.86,1.92,3.48,2.22,7.81c0.34,3.34,0.16,6.73,0.88,10.04
				c1.03,4.66,3.03,8.84,7.57,11.58c1.85,1.12,3.85,1.46,6.08,1.28c5-0.41,8.97-2.62,12.45-5.72c3.84-3.42,7.49-7,10.66-10.99
				c2.56-3.23,6.03-5.61,9.67-7.64c3.26-1.82,4.18-1.76,4.45,2.3c0.1,1.49-0.31,2.92-0.37,4.39c-0.19,4.46,1.08,8.59,3.36,12.51
				c1.39,2.39,3.05,4.53,5.45,6.14c0.87,0.58,1.75,1.15,2.76,1.49C410.31,253.71,397.65,257.97,377.43,258.61z"/>
			<path class="st3" d="M405.72,249.63c5.18-0.65,7.39-2.31,8.63-2.61c16.21-3.85,12.55-8.5,21-13.33
				c4.17-2.38,10.9-6.41,15.61-7.38c10.84-2.23,23.12-2.88,30.93,4.97c7.57,7.59,8.94,20.29,8.8,33.2
				c-9.22-3.07-19.09-6.61-28.8-6.95c-7.79-0.28-15.34,0.58-22.99,2.13c-5.52,1.12-11.86,3.97-16.17,7.6
				c-2.79,2.35-4.75,5.54-6.26,8.85c-6.04,13.32-4.89,29.65,2.95,42c2.08,3.27,4.71,6.36,8.22,8c3.01,1.41,5.6,2.92,8.84,3.64
				c10.95,2.43,25.59,0.86,45.12-4.97c-2.35,13.9-16.6,27.07-30.65,28.23c-11.2,0.93-23.99-4.57-33.72-10.18
				c-8.05-4.64-16.01-10.02-21.18-17.74c-3.55-5.31-5.61-11.46-7.31-17.62c-2.2-7.98-3.87-16.23-3.34-24.5
				c0.53-8.26,3.45-16.61,9.35-22.42c1.94-1.91,3.72-3.17,5.73-4.87C402.59,253.92,402.91,249.98,405.72,249.63z"/>
			<path class="st3" d="M174.9,294.36c-0.77-0.57-0.99-1.27-1.22-1.93c-1.75-5.08-3.38-10.16-3.86-15.54
				c-0.26-2.83-0.47-5.65-0.47-8.49c0.01-4.47,1.46-8.48,4.13-12.22c5.38-7.55,13.21-11.52,22.65-12.64
				c6.18-0.73,12.47-1.32,18.73-0.88c11.06,0.77,21.11,4,29.61,10.84c2.69,2.17,5.2,4.42,7.25,7.13c1.02,1.35,1.1,2.39,0.17,3.85
				c-4.86,7.56-8.57,15.61-11.58,23.92c-1.71,4.73-2.56,9.65-3.09,14.61c-0.54,5.01-1.01,10.02-1.6,15.03
				c-0.32,2.67-0.37,5.38-0.6,8.07c-0.21,2.4-0.41,4.81-0.56,7.22c-0.09,1.51-1.24,2.57-1.8,3.88c-1.07,2.51-2.38,4.93-3.66,7.36
				c-2.15,4.09-5.44,7.05-9.94,8.86c-4.37,1.75-8.7,1.76-12.86-0.57c-1.8-1.01-3.21-2.45-4.63-3.85c-3.41-3.37-5.52-7.34-6.42-11.86
				c-0.37-1.85-0.27-1.94,1.75-1.96c5.61-0.05,11.08-0.69,16.31-2.73c4.55-1.78,7.83-4.65,10.02-8.74c2.02-3.8,3.76-7.67,4.16-11.9
				c0.4-4.18,0.37-8.38-0.46-12.53c-1.52-7.62-4.76-14.59-10.19-20.53c-4.37-4.77-9.71-8.79-16.6-9.4
				c-9.13-0.81-16.59,0.95-20.3,10.13c-1.72,4.27-3.34,8.56-4.3,13.04C175.39,293.13,175.13,293.7,174.9,294.36z"/>
		</g>
		<g>
			<path class="st4" d="M307.7,376.33c-2.03,0.34-12.02,2.93-15.93,1.82s-21.66-10.76-23.05-11.6c-1.4-0.84-2.65-1.68-3.77-2.1
				c-1.12-0.42-4.89,1.12-4.19,4.47c0.7,3.35,2.51,9.78,4.05,12.16c1.54,2.38,7.82,11.88,9.08,13.27
				c1.26,1.4,9.22,10.62,10.76,11.74c1.54,1.12,9.92,6.85,11.46,7.68c1.54,0.84,8.8,5.59,15.51,0.84c6.71-4.75,7.68-5.03,10.48-9.78
				c2.79-4.75,3.77-5.73,6.01-9.08s8.52-10.48,10.06-12.16c1.54-1.68,6.01-8.38,8.1-11.6c2.1-3.21,4.75-5.03,4.89-7.82
				c0.14-2.79-0.42-5.45-4.33-4.19s-10.9,6.57-14.11,7.82S315.24,375.07,307.7,376.33z"/>
			<path class="st5" d="M275.26,375.09c0.2,3.89,0.31,7.32,1.44,11.05c-1.53-2.14-3.06-4.28-4.58-6.42
				c-0.37-0.52-0.74-1.04-1.02-1.6c-0.28-0.55-0.46-1.15-0.63-1.74c-0.22-0.78-0.9-2.25-0.36-2.92
				C271.78,374.1,273.42,375.17,275.26,375.09z"/>
			<path class="st5" d="M278.97,377.57c0,0.16,2.2,10.37,2.04,14.25c2.15,3.56,3.14,4.45,3.14,4.45s-0.63-12.52-0.21-15.98
				C280.86,378.82,278.97,377.57,278.97,377.57z"/>
			<path class="st5" d="M288.56,381.92c0,0,0.42,9.27,0.63,10.69c0.21,1.41,1.31,9.12,1.31,9.12c1.73,0.84,7.23,4.24,7.23,4.4
				c0.79-5.29,1.1-22.58,1.1-22.58C296.31,383.91,289.34,383.17,288.56,381.92z"/>
			<path class="st5" d="M303.96,382.91c0,0,1.05,8.38,0.94,9.74c-0.1,1.36-1,11.47-1.1,12.26c-0.1,0.79,0.52,3.77,0.42,3.93
				c-0.1,0.16,1.05,0.84,2.04,0.47c1-0.37,6.44-4.51,6.44-4.51c0.01-1.31-0.52-1.21-0.52-3.44c0.63-2.2,0.21-8.03,0.26-8.87
				c0.05-0.84-0.05-8.02,0.47-9.01s0.37-2.41,0.37-2.41S306,383.07,303.96,382.91z"/>
			<path class="st5" d="M319,379.66c0,0-0.47,9.33-0.42,10.95s0.05,7.65,0.05,7.65c1.83-2.2,5.11-7.17,5.9-7.85
				c0.79-0.68,2.06-2.63,2.06-2.63c0-2.1,1.83-11.21,1.83-11.21S319.99,379.71,319,379.66z"/>
			<polygon class="st5" points="339.59,371.54 333.04,375.3 332.41,381.47 			"/>
		</g>
	</g>
</g>
</svg>
