<?xml version="1.0" encoding="utf-8"?>
<!-- Generator: Adobe Illustrator 26.0.3, SVG Export Plug-In . SVG Version: 6.00 Build 0)  -->
<svg version="1.1" id="Calque_1" xmlns="http://www.w3.org/2000/svg" xmlns:xlink="http://www.w3.org/1999/xlink" x="0px" y="0px"
	 viewBox="0 0 640 640" style="enable-background:new 0 0 640 640;" xml:space="preserve">
<style type="text/css">
	.st0{clip-path:url(#SVGID_00000133487127803171105170000011047809360531357319_);}
	.st1{fill:#F6D500;}
	.st2{fill:#96C371;}
	.st3{fill:#D4BB44;}
	.st4{fill:#FFFFFF;}
	.st5{fill:#020303;}
</style>
<g>
	<defs>
		<rect id="SVGID_1_" width="640" height="640"/>
	</defs>
	<clipPath id="SVGID_00000058552578686692610150000011482041369895046575_">
		<use xlink:href="#SVGID_1_"  style="overflow:visible;"/>
	</clipPath>
	<g style="clip-path:url(#SVGID_00000058552578686692610150000011482041369895046575_);">
		<path d="M252.6,501.93c9.68,3.19,17.29,7.85,22.82,8.99c3.41,0.71,6.72,1.81,10.12,2.52c4.21,0.88,8.42,1.74,12.65,2.53
			c17.24,3.21,35.24,5.41,52.65,2.1c8.57-1.63,17.07-4.3,25.36-6.99c8.4-2.73,17.01-5.65,24.58-10.26
			c13.55-8.26,24.49-20.62,33.85-33.27c8.97-12.11,14.01-26.14,15.95-41.03c0.85-6.51,1.09-12.76,6.53-17.34
			c0.53-0.45,0.91-1.57,1.48-1.97c0-1.03-0.01-2.07-0.07-3.1c-0.52-10.18,0.57-18.01-3.75-27.23c-1.3-2.77-3.08-6.88-4.66-9.7
			c-6.07-12.73-10.89-24.83-14.71-36.17c-16.36-5.34-28.07-19.55-28.07-36.24c0-11.56,5.62-21.93,14.5-28.99
			c-1.33-19.09,0.5-30.05,0.5-30.05c-9.86,3.13-19.15,7.76-28.64,11.89c-3.34,1.45-7.29,4.07-10.77,5.17
			c-2.93,0.93-7.85,4.04-10.63,5.45c-8.07,4.1-13.61,4.59-21.42,9.24c-6.89,4.1-13.57,8.6-20.41,12.77
			c-5.81,3.54-11.91,6.49-18.52,7.64c-5.19,0.9-10.48,1.17-15.76,0.43c-0.53-0.07-1.07-0.03-1.6-0.02
			c-10.91,0.25-20.76-3.1-29.65-10.05c-5.4-4.22-10.64-8.61-15.71-13.27c-2.97-2.73-6.19-5.13-9.32-7.66
			c-6-4.85-12.12-9.48-18.8-13.19c-4.97-2.76-10.19-4.81-15.7-5.61c-8.57-1.25-16.9,0.19-24.66,4.27
			c-7.15,3.76-12.11,10.06-15.45,17.87c-1.16,2.71-2.06,5.52-2.87,8.62c-0.88-5.73-0.75-11.26-1.02-16.76
			c-0.29-5.82-0.27-11.59,1.74-17.13c2.33-6.41,5.7-11.96,10.52-16.59c4.87-4.67,10.07-8.77,15.61-12.37
			c6.96-4.52,14.49-7.46,22.42-9.24c4.98-1.12,9.99-2.11,15.04-2.75c5.48-0.69,11-1.28,16.54-0.99c5.85,0.3,11.43,2.05,17.04,3.7
			c5.64,1.66,11.25,3.38,16.76,5.47c18.18,9.24,49.76,15.14,76.12,5.4c16.69-5.79,33.05-12.68,49.86-18.09
			c7.81-2.51,15.52-5.43,23.45-7.47c5.25-1.35,10.54-2.46,15.88-3.39c5.09-0.88,10.19-1.67,15.31-2.1
			c5.41-0.45,10.84-0.66,16.29-0.15c2.5,0.23,5.04,0.27,7.55,0.42c10.83,0.66,21.4,2.69,31.5,7.22c7.89,3.54,14.29,9.12,19.91,15.99
			c4.66,5.7,8.91,11.68,11.83,18.65c3.62,8.63,6.65,17.47,8.08,26.9c0.73,4.84,1.2,9.72,1.76,14.58c1.1,9.46,0.96,18.94,0.78,28.42
			c-0.11,5.68-0.99,11.31-2.03,16.88c-1.28,6.81-2.39,13.66-4.04,20.38c-1.74,7.07-3.33,14.19-4.78,21.34
			c-1.09,5.35-1.46,10.76-0.69,16.22c-0.21,2.2,0.55,4.16,1.33,6.11c1.91,5.9,3.95,11.75,5.69,17.71c0.04,0.13,0.08,0.27,0.11,0.4
			c3.44-0.3,6.89-0.63,10.32-1.06c-1.24-5.89-2.5-11.59-4.34-17.57c-1.87-6.05-2.92-12.14-1.45-18.53
			c3.16-13.71,6.79-27.3,9.12-41.25c1.31-7.84,2.46-15.67,2.5-23.65c0.02-4.92,0.1-9.84-0.04-14.76c-0.06-2.09-0.13-4.21-0.29-6.3
			c-0.3-3.75-0.78-7.47-1.11-11.22c-0.35-4-0.87-7.98-1.57-11.91c-1.34-7.53-3.62-14.74-6.27-21.84
			c-5.54-14.82-13.7-27.56-24.94-37.98c-6.51-6.03-13.85-10.28-21.85-13.39c-8.89-3.45-18.1-4.98-27.44-5.61
			c-5.65-0.38-11.31-0.83-16.99-0.71c-1.55,0.03-3.06,0.49-4.63,0.34c-1.69-0.16-3.39,0.17-5.05,0.38
			c-5.33,0.66-10.64,1.47-15.94,2.42c-6.79,1.22-13.53,2.7-20.15,4.72c-16.83,5.14-33.42,11.08-49.85,17.55
			c-6.98,2.75-15.19,5.22-26.93,9.21c-24.93,6-43.21,0.85-63.46-6.13c-6.59-2.68-13.39-4.56-20.19-6.49
			c-4.59-1.3-9.19-2.69-13.94-2.89c-6.76-0.29-13.5,0.12-20.23,1.15c-6.59,1.01-13.12,2.29-19.6,3.89
			c-15.67,3.86-28.84,12.62-40.45,24.45c-3.04,3.1-5.13,6.9-7.19,10.75c-3.5,6.52-5.63,13.51-5.7,21.09
			c-0.02,2.29,0.21,4.62,0.23,6.94c0,0.16,0.03,0.31,0.05,0.47c0.57,3.91,1.07,7.84,1.71,11.73c0.85,5.14,2.08,10.15,4.46,14.78
			c0.95,1.85,2.54,3.35,2.8,5.57c0.77,6.45,3.11,12.21,6.37,17.57c0.45,0.74,0.74,1.44,0.66,2.32c-0.16,1.85,0.12,3.68,0.41,5.48
			c0.95,5.74,3.34,10.82,6.12,15.74c2.09,3.69,4.99,6.78,5.99,11.28c1.31,5.85,5.14,10.5,7.16,16.07c0.62,1.73,1.62,3.33,2.62,4.85
			c1.35,2.03,2.09,4.31,2.16,6.71c0.19,6.76,0.25,13.52-1.55,20.14c-1.94,7.14-2.83,14.5-3.05,21.92
			c-0.22,7.51,0.02,14.99,1.4,22.41c1.57,8.42,3.58,16.7,6.73,24.58c4.96,12.43,11.01,24.16,19.31,34.41
			c5.35,6.6,2.62,5.94,16.9,14.1c0.89,0.51,7.18,4.99,8.24,5.62C242.23,505.05,249.72,500.98,252.6,501.93z M171.73,298.65
			c0-20.37,16.51-36.88,36.88-36.88s36.88,16.51,36.88,36.88s-16.51,36.88-36.88,36.88S171.73,319.02,171.73,298.65z M221.34,470.46
			c-16.92-20.34-20.35-50.08-18.57-77.45c0.64-9.9,1.83-20.07-0.84-29.56c-0.18-0.64-0.38-1.31-0.28-1.97
			c0.24-1.6,1.96-2.29,3.42-2.67c19.57-5.12,39.14-10.23,58.71-15.35c12.13-3.17,24.28-6.35,36.65-8.18
			c34.72-5.15,69.96,0.43,104.55,6.51c28.22,4.96,38.94,21.97,43.64,67.54c3.84,37.2-14.07,58.85-35.44,77.47
			c-21.36,18.62-54.2,29.6-81.57,30.37s-54.6-6.7-79.56-18.94C240.11,492.4,230.12,481.02,221.34,470.46z"/>
		<path class="st1" d="M294.6,288.31c0.53-0.01,1.08-0.05,1.6,0.02c5.27,0.74,10.56,0.46,15.76-0.43c6.61-1.14,12.71-4.1,18.52-7.64
			c6.85-4.17,15.58-7.27,22.46-11.37c7.81-4.65,11.3-6.55,19.37-10.64c2.78-1.41,7.7-4.53,10.63-5.45c3.48-1.1,7.42-3.72,10.77-5.17
			c9.49-4.13,18.78-8.76,28.64-11.89c0,0-1.84,10.96-0.5,30.05c7.45-5.92,17.21-9.51,27.89-9.51c23.41,0,42.39,17.24,42.39,38.5
			c0,21.26-18.98,38.5-42.39,38.5c-5.03,0-9.85-0.8-14.33-2.26c3.82,11.33,8.64,23.44,14.71,36.17c1.58,2.82,2.4,7.89,3.7,10.67
			c4.32,9.22,4.2,16.08,4.72,26.26c0.05,1.03,0.07,2.06,0.07,3.1c4.81-3.41,10.7-5.16,16.37-6.5c3.26-0.77,6.56-1.39,9.85-2.03
			c3.63-0.7,7.18-1.62,10.78-2.48c8.98-2.16,18.07-3.8,27.21-5.1c8.58-1.21,17.2-2.11,25.83-2.86c1.27-0.11,2.54-0.22,3.82-0.34
			c-1.75-5.95-4.25-14.57-6.16-20.45c-0.78-1.95-2.82-14.51-1.73-19.86c1.46-7.15,3.04-14.26,4.78-21.34
			c1.65-6.72,2.76-13.57,4.04-20.38c1.04-5.57,1.92-11.21,2.03-16.88c0.18-9.48,0.32-18.96-0.78-28.42
			c-0.56-4.86-1.03-9.74-1.76-14.58c-1.43-9.43-4.46-18.27-8.08-26.9c-2.92-6.97-7.16-12.95-11.83-18.65
			c-5.62-6.87-12.02-12.45-19.91-15.99c-10.11-4.54-20.67-6.56-31.5-7.22c-2.52-0.15-5.06-0.19-7.55-0.42
			c-5.45-0.51-10.88-0.3-16.29,0.15c-5.12,0.42-10.22,1.21-15.31,2.1c-5.33,0.93-10.63,2.04-15.88,3.39
			c-7.94,2.05-15.64,4.96-23.45,7.47c-16.81,5.41-33.17,12.3-49.86,18.09c-26.37,9.75-57.94,3.84-76.12-5.4
			c-5.52-2.08-11.13-3.81-16.76-5.47c-5.61-1.65-11.2-3.4-17.04-3.7c-5.54-0.29-11.05,0.3-16.54,0.99
			c-5.05,0.63-10.05,1.63-15.04,2.75c-7.93,1.78-15.46,4.71-22.42,9.24c-5.55,3.6-10.74,7.7-15.61,12.37
			c-4.82,4.63-8.19,10.18-10.52,16.59c-2.02,5.54-2.03,11.31-1.74,17.13c0.27,5.5,0.14,11.03,1.02,16.76
			c0.81-3.09,1.71-5.91,2.87-8.62c3.35-7.81,8.31-14.11,15.45-17.87c7.75-4.08,16.09-5.51,24.66-4.27c5.52,0.8,10.74,2.85,15.7,5.61
			c6.67,3.71,12.8,8.34,18.8,13.19c3.12,2.53,6.35,4.93,9.32,7.66c5.08,4.66,10.32,9.06,15.71,13.27
			C273.85,285.21,283.69,288.55,294.6,288.31z"/>
		<path class="st1" d="M331.61,517.19c27.37-0.77,60.2-11.75,81.57-30.37c21.36-18.62,39.27-40.28,35.44-77.47
			c-4.7-45.56-15.42-62.57-43.64-67.54c-34.59-6.08-69.83-11.66-104.55-6.51c-12.36,1.83-24.52,5.01-36.65,8.18
			c-19.57,5.12-39.14,10.23-58.71,15.35c-1.45,0.38-3.18,1.07-3.42,2.67c-0.1,0.66,0.1,1.33,0.28,1.97
			c2.67,9.48,0.76,18.89-0.2,28.76c-2.74,28.15,0.74,59.72,17.66,80.06c8.78,10.56,20.72,20.13,32.65,25.98
			C277,510.49,304.24,517.97,331.61,517.19z M210.46,364.5c-0.06-0.06-0.13-0.11-0.19-0.17c0.13-0.13,0.23-0.09,0.32,0.05
			C210.55,364.42,210.51,364.46,210.46,364.5z"/>
		<path class="st2" d="M210.27,364.33c0.06,0.06,0.13,0.11,0.19,0.17c0.04-0.04,0.09-0.08,0.13-0.12
			C210.51,364.24,210.4,364.2,210.27,364.33z"/>
		<path d="M257.28,482.65c-21.38-9.94-35.93-24.47-44.05-49.56c-2.04-6.3-4.24-15.46-3.44-22.07c0.9-7.49,1.11-12.85,0.5-20.37
			c-0.38-4.63,0.32-10.28-1.08-17.86c-0.73-3.93,1.4-8.4-1.51-15.68c15.54-7.45,20.03-12.15,20.92-14.42
			c1.64-4.2,5.77-6.6,9.84-7.33c4.07-0.73,8.22-0.11,12.34-0.02c11.07,0.26,21.88-3.22,32.68-5.95c30.07-7.59,61.32-9.45,91.95-5.45
			c7.47,0.98,14.96,2.31,22.06,5.07c23.59,9.17,43.23,41.67,44.54,69.39c1.04,22.08-4.83,41.19-17.98,57.78
			c-3.65,4.6-7.75,8.72-11.96,12.69c-10.94,10.32-35.4,20.2-49.66,22.75C299.92,502.77,278.66,492.58,257.28,482.65z"/>
		<path class="st3" d="M244.3,460.11c-16.67-11.28-26.45-31.62-25.91-52.96c0.18-7.21-0.06-11.14,0.37-18.34
			c0.27-4.6,0.2-9.99,0.5-14.83c0.28-4.68,2.93-10.31,6.25-12.68c3.65-2.6,5.87-6.24,8.54-12.05c2.95-6.42-5.34-18.25,0.59-22.28
			c20.56-13.96,12.25-33.38,2.43-49.05c-1.13-1.8-0.03-6.17,1.49-4.68c5.76,5.61,12.95,12.68,18.27,16.89
			c14.91,11.79,34.6,14.69,52.84,11.75s35.37-11.19,51.9-20.06c15.17-8.14,28.66-20.57,50.06-27.29c1.69-0.53,3.03,1.46,1.92,2.84
			c-7.67,9.47-13.44,22.38-14.16,34.48c-0.62,10.41,23.69,42.48,13.9,41.41c-6.64-0.72-0.12,14.05,3.19,19.29
			c4.68,7.41,3.19,5.71,7.98,16.57c5.14,11.65,4.47,20.43,5.21,32.67c0.79,13.03-2.09,26.11-8.73,37.03
			c-5.55,9.14-13.9,19.92-22.77,25.11c-19.14,11.21-36.25,15.68-57.89,17.88c-10.89,1.1-24.04,2.75-34.9,1.28
			c-8.87-1.2-20.3-3.06-28.94-5.53C264.51,474.14,254.82,467.23,244.3,460.11z"/>
		<path d="M207.08,363.67c0.67,0.42,0.98,1.22,1.25,1.96c0.6,1.66,1.2,3.32,1.8,4.98c0.16,0.44,0.5,0.97,0.94,0.82
			c0.33-0.11,0.41-0.53,0.43-0.88c0.17-2.62,0.17-5.25,0.02-7.87c-0.14-2.28-0.53-4.82-2.33-6.22c-1.53-1.19-3.67-1.21-5.59-0.9
			c-0.6,0.1-1.22,0.24-1.66,0.65c-0.32,0.31-0.51,0.73-0.67,1.15c-0.67,1.77-2.74,8.72,0.12,9.59c1.62,0.5,0.86-1.11,1.4-2.14
			C203.5,363.48,205.79,362.86,207.08,363.67z"/>
		<path d="M433.99,366.42c-0.26-0.69-0.53-1.42-0.48-2.16c0.04-0.74,0.48-1.51,1.2-1.71c0.88-0.24,2.06-0.56,4.12,3.41
			c2.72,5.26,1.9-0.06,3.96,0.54c-2.24-3.04-4.48-6.07-6.72-9.11c-0.64-0.86-1.28-1.74-2.1-2.44c-0.9-0.77-2.33-2.85-3.44-3.25
			c-2.22-0.8-8.37-6.47-10.64-5.82c2.28,3.33,8.46,13.68,10.48,17.17c0.99,1.7,3.46,9.61,5.48,9.57
			C435.35,370.95,434.61,368.07,433.99,366.42z"/>
		<g>
			<g>
				<path d="M503.37,263.24c-0.73-11.19-8.07-20.97-17.13-26.33c-9.06-5.36-19.63-6.88-29.94-7.06c-7.79-0.13-15.44,1.47-23.11,2.93
					c-15.68,2.98-17.73,8.22-27.66,13.41c-4.32,2.26-5.64,14.18-7.02,19.17c-1.38,4.99-1.46,10.27-1.54,15.48
					c-0.19,13.24-0.37,26.47-0.56,39.71c-0.06,4.17-0.06,8.6,1.96,12.16c2.18,3.85,6.32,5.88,10.39,6.77
					c4.08,0.88,8.28,0.84,12.37,1.68c8.86,1.82,16.88,8.01,21.38,16.5c1.56,2.93,2.96,6.38,5.85,7.65c1.37,0.6,2.9,0.61,4.38,0.56
					c4.25-0.14,8.49-0.67,12.66-1.58c4.5-0.98,8.99-3.75,12.63-6.8c2.53-2.12,4.75-4.64,6.79-7.31c6.3-8.23,11.07-19.01,8.87-29.46
					c-1.1-5.25-5.75-7.49-2.5-11.7c4.83-6.26,3.73-15.79,2.1-20.86c-3-9.36,4.39-7.56,8.04-14.17
					C503.1,270.8,503.61,266.94,503.37,263.24z M480.58,304.74c-1.19,3.45-2.93,6.65-4.73,9.79c-1.91,3.31-3.35,3.82-7.1,4.65
					c-6.94,1.54-14.1,1.32-21.15,1.11c-4.74-0.15-9.75-0.37-13.75-3.01c-4.73-3.12-7.06-9.01-7.98-14.74
					c-0.63-3.93-0.74-7.96-0.31-11.92c0.47-4.29,1.64-8.67,4.37-11.93c2.83-3.37,7.08-5.21,11.35-5.81
					c4.28-0.6,11.76-0.94,16.03-0.27c5.61,0.88,8.39,1.12,13.42,3.83c5.03,2.71,9.14,8.95,10.72,14.59
					C482.71,295.5,482.1,300.36,480.58,304.74z"/>
			</g>
			<path class="st3" d="M444.14,242.18c14.69-1.28,26.82-1.81,41.93,9.37c1.21,0.9,2.43,1.82,3.32,3.04
				c2.77,3.81,6.89,10.47,0.51,17.49c-4.63-5.12-15.09-12.4-21.92-13.41c-12.44-1.85-21.72,0.41-33.79,3.96
				c-4.1,1.21-8.21,2.77-11.48,5.52c-4.6,3.86-7.1,9.65-8.76,15.42c-2.59,8.97-3.46,18.89,0.3,27.43
				c4.83,10.98,16.63,17.69,28.52,19.31c11.89,1.62,23.93-1.1,35.43-4.51c0.66-0.2,1.42-0.38,1.99,0c0.35,0.24,0.55,0.65,0.68,1.05
				c0.8,2.46,1.38,6.73,0.09,8.97c-3.58,6.24-8.29,10.79-14.47,14.47c-4.94,2.95-11.93,5.36-17.66,4.9
				c-5.79-0.47-10.87-0.59-15.54-4.04c-4.67-3.45-22.77-18.87-21.21-8.23c2.02,13.74-20.91-12.34-22.49-23.06
				c-1.67-11.32-1.5-22.81-0.88-34.2c0.45-8.24-1.02-18.01,5.91-23.64C399.09,258.38,432.32,243.2,444.14,242.18z"/>
			<path d="M442.49,289.41c2.52-2.39,6.7-3.45,9.65-2.2c4.53,1.91,6.47,5.38,8.31,9.38c0.72,1.57,1.17,3.41,0.2,5.11
				c-0.57,0.99-1.57,1.82-2.66,2.46c-5.58,3.3-10.86,1.8-13.79-1.7C441.81,299.62,438.46,293.24,442.49,289.41z"/>
			<path class="st4" d="M435.45,288.08c-0.12,1.65,0.21,3.39,1.2,4.72c0.99,1.33,2.69,2.19,4.32,1.92c1.58-0.26,2.87-1.52,3.54-2.98
				c0.67-1.46,0.8-3.11,0.78-4.71c-0.02-1.81-0.24-3.73-1.36-5.16C439.8,276.61,435.71,284.64,435.45,288.08z"/>
		</g>
		<g>
			<g>
				<path d="M241.08,288.95c-3.46-16.77-9.34-34.39-22.45-43.91c-9.17-6.66-21.32-8.31-31.59-3.97
					c-10.27,4.34-20.23,16.09-22.17,27.93c-1.35,8.26-3.16,17.26,0.8,24.46c7.59,13.79,0.79,13.99,10.48,29.85
					c3.16,5.17,8.23,10.77,10.62,16.41c3.97,9.36,3.81,19.31,14.88,21.78c4.18,0.93,8.67,1.34,13.02,1.01
					c7.25-0.56,10.83,1.42,18.61-8.91c6.55-8.7,10.07-19.85,10.87-31.1C244.95,311.25,243.35,299.95,241.08,288.95z M219.26,312.04
					c-2.32,6.75-7.77,12.52-14.29,13.7c-4.68,0.84-10.16,1.35-14.76-2.93c-4.65-4.32-8.39-10.39-9.45-16.64
					c-0.76-4.52,2.95-16.33,4.57-20.57c2.97-7.77,8.23-8.57,13.86-8.24c10.55,0.62,17.78,12.36,19.95,22.73
					C219.99,304.11,220.59,308.18,219.26,312.04z"/>
			</g>
			<path class="st3" d="M175.27,262.21c2.23-2.93,5.25-5.08,8.47-6.56c10.97-5.03,20.4-5.06,31.25,0.05
				c21.43,10.1,38.94,34.71,40.43,42.12c1.32,6.53,2.15,13.42,0.41,19.84c-2.37,8.78-25.14,41.91-20.69,33.92
				c9.08-16.32-1.52-18.6-2.84-12.34c-0.33,1.58-2.47,5.17-3.26,6.53c-2.55,4.37-5.63,5.58-9.99,7.67s-10.11,0.98-14.29-1.51
				c-2.65-1.58-5.68-5.11-7.67-7.58c-1.82-2.27-2.08-6.2-2.39-9.18c6.92,3.28,22.27-0.32,27.86-9.59c1.47-2.44,4.52-6.33,5.04-9.19
				c0.87-4.83,1.18-9.75,0.3-14.58c-0.95-5.22-2.51-12.15-5.2-16.58c-5.45-8.97-14.05-15.98-23.9-16.79
				c-5.89-0.48-13.18,1.84-17.8,5.84c-2.19,1.9-4.31,6.65-4.6,9.34c-0.36,3.43-1.56,8.09-2.55,12.77
				c-1.45-3.21-5.47-18.32-4.97-21.85C169.5,270.21,172.68,265.6,175.27,262.21z"/>
			<path d="M191.63,299.16c2.54-2.4,7.55-2.83,10.12-0.45c1.07,0.99,1.62,2.29,2.04,3.58c0.37,1.12,0.67,2.27,0.89,3.42
				c0.91,4.76-2.38,12.27-9.28,8.37C190.13,311.1,186.99,303.54,191.63,299.16z"/>
			<path class="st4" d="M186.41,294.75c-0.12,1.65,0.21,3.39,1.2,4.72c0.99,1.33,2.69,2.19,4.32,1.92c1.58-0.26,2.87-1.52,3.54-2.98
				c0.67-1.46,0.8-3.11,0.78-4.71c-0.02-1.81-0.24-3.73-1.36-5.16C190.77,283.28,186.67,291.31,186.41,294.75z"/>
		</g>
		<g>
			<path class="st5" d="M321.74,375.05c-2.03,0.34-12.02,2.93-15.93,1.82c-3.91-1.12-21.66-10.76-23.05-11.6
				c-1.4-0.84-2.65-1.68-3.77-2.1c-1.12-0.42-4.89,1.12-4.19,4.47c0.7,3.35,2.51,9.78,4.05,12.16s7.82,11.88,9.08,13.27
				s9.22,10.62,10.76,11.74c1.54,1.12,9.92,6.85,11.46,7.68c1.54,0.84,8.8,5.59,15.51,0.84c6.71-4.75,7.68-5.03,10.48-9.78
				s3.77-5.73,6.01-9.08c2.24-3.35,8.52-10.48,10.06-12.16c1.54-1.68,6.01-8.38,8.1-11.6c2.1-3.21,4.75-5.03,4.89-7.82
				s-0.42-5.45-4.33-4.19c-3.91,1.26-10.9,6.57-14.11,7.82S329.29,373.79,321.74,375.05z"/>
			<path class="st4" d="M289.31,373.81c0.2,3.89,0.31,7.32,1.44,11.05c-1.53-2.14-3.06-4.28-4.58-6.42
				c-0.37-0.52-0.74-1.04-1.02-1.6c-0.28-0.55-0.46-1.15-0.63-1.74c-0.22-0.78-0.9-2.25-0.36-2.92
				C285.82,372.82,287.47,373.9,289.31,373.81z"/>
			<path class="st4" d="M293.02,376.29c0,0.16,2.2,10.37,2.04,14.25c2.15,3.56,3.14,4.45,3.14,4.45s-0.63-12.52-0.21-15.98
				C294.9,377.55,293.02,376.29,293.02,376.29z"/>
			<path class="st4" d="M302.6,380.64c0,0,0.42,9.27,0.63,10.69c0.21,1.41,1.31,9.12,1.31,9.12c1.73,0.84,7.23,4.24,7.23,4.4
				c0.79-5.29,1.1-22.58,1.1-22.58C310.36,382.63,303.39,381.9,302.6,380.64z"/>
			<path class="st4" d="M318.01,381.63c0,0,1.05,8.38,0.94,9.74c-0.1,1.36-1,11.47-1.1,12.26s0.52,3.77,0.42,3.93
				c-0.1,0.16,1.05,0.84,2.04,0.47c1-0.37,6.44-4.51,6.44-4.51c0.01-1.31-0.52-1.21-0.52-3.44c0.63-2.2,0.21-8.03,0.26-8.87
				s-0.05-8.02,0.47-9.01s0.37-2.41,0.37-2.41S320.05,381.79,318.01,381.63z"/>
			<path class="st4" d="M333.04,378.39c0,0-0.47,9.33-0.42,10.95c0.05,1.62,0.05,7.65,0.05,7.65c1.83-2.2,5.11-7.17,5.9-7.85
				c0.79-0.68,2.06-2.63,2.06-2.63c0-2.1,1.83-11.21,1.83-11.21S334.04,378.44,333.04,378.39z"/>
			<polygon class="st4" points="353.63,370.26 347.09,374.02 346.45,380.19 			"/>
		</g>
		<g>
			<path d="M376.59,135.34c0.74-1.29,1.53-2.68,1.45-4.17c-0.08-1.29-0.79-2.43-1.38-3.57c-4.38-8.62-1.17-19.87,6.11-26.23
				c6.91-6.03,21.62-6.63,29.16-1.4c5.87,4.07,11.99,8.61,13.49,15.59c1.02,4.73-0.97,12.63-2.81,17.11
				c-3.15,7.65-7.78,7.99-12.24,9.87c-2.77,1.17-5.86,1.26-8.86,1.3c-6.25,0.1-13.38-0.28-17.38-5.08
				c-8.97,20.68-14.05,42.8-19.09,64.78c-1.85,8.08-3.72,16.23-4.31,24.52c-0.34,4.79,0.27,7.58-1.44,11.89
				c-5.91-3.98-6.57-14.66-6.75-21.17c-0.5-17.35,5.8-37.17,11.09-53.52C366.97,154.9,371.16,144.79,376.59,135.34z"/>
			<path d="M254.11,150.09c-0.67-1.14-1.52-2.37-2.82-2.59c-0.73-0.12-1.46,0.11-2.17,0.3c-10.47,2.81-22.36-4.08-25.79-14.36
				c-3.43-10.28,1.46-22.49,10.68-28.19c9.22-5.7,21.82-4.87,30.68,1.39c6.87,4.85,11.62,13.13,10.86,21.51
				c-0.76,8.38-7.88,16.14-16.29,16.31c13.53,18.81,22.34,40.99,25.39,63.95c0.83,6.23,1.23,12.65-0.37,18.72
				c-1.54,5.86-5.34,11.86-11.12,14.26c-0.71-6.3,1.69-13.46,1.51-20.03c-0.24-8.33-1.19-16.63-2.82-24.8
				C268.59,180.23,262.6,164.43,254.11,150.09z"/>
			<path class="st1" d="M234.36,133.51c-2.93-3.61-3.9-8.72-2.48-13.14c0.98-3.08,3.14-5.85,6.08-7.18c1.95-0.88,4.14-1.11,6.29-1.1
				c4.25,0.03,8.56,0.98,12.22,3.15c3.66,2.17,6.64,5.61,7.85,9.69c0.89,2.99,0.73,6.46-1.18,8.92c-1.3,1.68-3.26,2.71-5.26,3.43
				C250.52,139.92,239.71,140.09,234.36,133.51z"/>
			<path class="st1" d="M386.89,113.54c1.46-2.18,3.47-3.93,5.55-5.53c0.79-0.6,1.62-1.21,2.59-1.4c1.07-0.22,2.16,0.08,3.21,0.37
				c1.84,0.51,3.68,1.02,5.52,1.53c2.43,0.67,5.04,1.47,6.51,3.52c0.66,0.91,1.02,1.99,1.38,3.06c1.19,3.57,2.41,7.27,2.1,11.03
				c-0.12,1.45-0.5,2.95-1.46,4.05c-0.65,0.75-1.53,1.26-2.41,1.71c-3.33,1.71-7.09,2.79-10.82,2.41
				C390.27,133.4,381.45,121.65,386.89,113.54z"/>
		</g>
		<g>
			<path d="M255.58,645.1c-0.02-3.48,0.2-7-0.54-10.39c-3.97-18.13-32.25-17.64-38.69-48.58c-1.57-7.54-2.93-15-3.21-22.7
				c-0.51-13.8-9.42-28.87-17.14-40.32c-7.36-10.92-17.89-20.82-23.41-32.78c-6.09-13.18,0.74-25.78,1.55-40.29
				s4.96-32.37-4.86-43.07c-9.44-10.28-30.06-15.21-43.82-12.9c-3.1,0.52-13.89,4.13-15.44,6.87c1.11,5.86,12.36,10.52,17.88,12.77
				c7.12,2.9,14,10.92,13.26,18.57c-0.69,7.26-4.02,10.23-9.29,15.27c-5.03,4.81-9.85,10.02-12.87,16.29
				c-3.02,6.27-6.96,11.22-4.3,17.65c3.48,8.41,12.32,13.33,17.19,21.01c6.55,10.33,11.76,22.87,7.07,34.17
				s-12.27,17.58-17.02,28.85c-2.56,6.07-0.67,21.74,0.42,28.24c0.81,4.82,1.28,11.02,3.1,15.56c3.16,7.89-0.82,13-0.82,21.5
				c0,9.03-1.8,18.34,1.01,26.92c2.98,9.1,10.67,15.82,18.62,21.16c21.95,14.74,49.02,22.46,75.24,19.05
				c13.39-1.74,36.03-7.17,45.13-18.25c5.02-6.11-2.11-13.08-4.57-19.97C257.18,651.73,255.62,653.61,255.58,645.1z"/>
			<path class="st1" d="M239.63,629.19c-4.04-5.68-11.2-8.04-16.85-12.13c-10.93-7.9-15.61-21.83-17.94-35.11
				c-2.32-13.28-3.01-27.12-8.65-39.37c-8.46-18.38-27.21-31.24-32.73-50.71c-3.19-11.27-1.47-23.26,0.07-34.87
				c1.55-11.61,4.93-23.37,0.98-34.39s-17.39-21.19-38-19.69c-1.88,2.13,11.38,4.95,14.04,5.94c7.48,2.8,11.96,11.12,11.83,19.1
				c-0.13,7.98-4.18,15.48-9.54,21.4c-5.58,6.16-19.35,17.52-17.17,25.53c0.82,3,2.95,5.42,4.86,7.87
				c15.34,19.64,24.82,43.35,14.62,66.08c-2.98,6.64-7,12.8-9.64,19.58s-3.8,14.59-0.88,21.26c1.28,2.94,3.29,5.51,4.72,8.38
				c7.85,15.82-3.57,35.66,2.61,52.2c4.87,13.02,19.07,19.87,32.5,23.47c10.8,2.89,21.93,4.49,33.1,4.8
				c8.56,0.24,24,1.63,31.51-3.25c6.98-4.53,3.6-13.7,3.79-20.78C243.07,646.13,244.85,636.54,239.63,629.19z"/>
		</g>
		<g>
			<g>
				<path d="M279.33,523.24c-5.08-0.35-10.63,1-13.84,5.15c-3.88,5.02-14.84,16.6-5.12,30.64c3.62,5.23,12.29,6.98,17.4,10.57
					c-6.01-2.61-24.05,4.12-27.45,9.94c-3.4,5.82-4.79,10.59-3.49,17.29c2.86,14.7,18.27,23.73,27.9,34.81
					c5.34,6.14-19.58-2.55-16.38,25.71c0.43,3.76,35.19,13.15,39.18,7.24c2.49-3.7,13.53,1.35,17.7,2.52
					c71.55,20.04,137.11,23.48,211.03,18.9c11.8-0.73,23.9-1.81,34.58-7.16c20.41-10.23,31.94-37.89,23.25-59.83
					c-3.4-8.6-10.53-16.51-19.39-16.85c-2.03-0.08-4.43,0.09-5.7-1.58c-1.79-2.36,0.39-5.67,2.39-7.83
					c7.29-7.88,12.77-17.32,16.52-27.62c9.1-25.01-15.42-50.19-27.03-39.42c-44.84,41.62-150.49,45.34-239.7,8.65
					C311.18,534.38,284.41,523.59,279.33,523.24z"/>
				<path class="st3" d="M288.14,534.03c-4.23-1.33-9.15-1.98-12.91,0.45c-4.95,3.19-7.42,8.1-4.31,13.24s9.03,10.42,14.45,12.63
					c34.9,14.26,97.26,33.63,128.02,49.12c36.88,18.58,40.45,23.68,67.78,21.75c21.07-1.49,44.33-19.49,60.74-36.54
					c6.65-6.9,13.24-17.52,18.83-25.54c17.62-25.3,0.67-37.1-9.34-31.99c-4.37,2.23-13.69,5.58-15.97,6.5
					c-18.19,7.34-58.34,19.49-73.63,21.49C407.31,572.26,338.42,549.78,288.14,534.03z"/>
				<path class="st1" d="M276.01,620.05c-2.94-3.21-11.98-11.44-15-14.68c-4.47-4.79-5.43-13.51-2.87-17.98
					c3.74-6.55,16.07-8.83,23.3-8.83c12.77,0,34.16,2.87,53.31,8.94c31.56,10,31.32,9.99,61.72,23.73
					c7.09,3.2,37.23,21.61,49.16,27.03c16.98,7.7,26.69,15.19,28.94,23.41c3.62,13.2-21.08,13.12-24.16,13.16
					c-59.26,0.77-114.88-14.42-131.53-17.88c-7.32-1.52-19-1.37-26.19,0.85c-16.11,4.97-29.13-17.47-20.52-17.63
					C295.59,639.74,281.97,626.54,276.01,620.05z"/>
				<path class="st1" d="M526.2,623.08c6.65-4.98,13.74-9.68,21.62-11.3c7.88-1.62,16.77,0.41,21.9,7.08
					c3.7,4.82,5.01,11.46,4.64,17.8c-0.41,7.04-2.86,14.1-7.46,19.08c-5.39,5.82-13.06,8.23-20.5,9.41
					c-14.64,2.31-29.75,0.59-43.56-4.96c-6.66-2.68-13.31-6.29-20.43-5.95c-4.69,0.22-9.85-4.42-3.42-7.65
					c1.65-0.83,3.7,0.15,5.4,0.12c2.99-0.05,5.74-0.85,8.58-1.93C505.2,640.13,515.59,631.02,526.2,623.08z"/>
			</g>
		</g>
		<path d="M398.59,511.5c8.37-4.02,12.87-9.14,20.04-15.45c3.85-3.39,7.91-6.49,11.8-9.82c2.06-1.76,3.75-3.98,5.44-6.15
			c4.62-5.91,8.6-12.36,12.56-18.78c3.86-6.27,6.46-13.19,7.53-20.72c0.67-4.69,1.32-9.37,1.77-14.09c0.4-4.14,0.38-8.29,0.61-12.43
			c0.05-0.88,0.21-5.98,0.25-6.85c-1.63,1.63-6.39,4.13-7.01,6.51c-0.84,3.21-1.36,8.27-1.81,11.55
			c-0.97,7.15-1.68,13.38-4.15,20.16c-4.96,13.62-12.14,22.67-21.81,33.31c-5.21,5.72-8.54,9.79-14.79,14.37
			c-6.61,4.84-12.69,8.73-20.32,11.6c-8.1,3.04-17.73,6.87-26.07,9.15c-8.09,2.21-14.37,4.55-22.77,4.9
			c-17.05,0.7-27.43-0.38-44.06-3.83c-3.35-0.69-15.18-2.76-18.5-3.56c-3.2-0.77-25.86-12.15-29.17-11.66
			c-2.71,0.4-5.21,3.78-6.08,5.7c10.73,6.44,46.75,28.37,62.37,34.2c77.18,28.78,181.22,38.33,242.3-0.32
			c11.81-5.43,26.82-45.12,26.82-73.64c0-8.74-3.09-22.76-3.83-31.5c-0.4-4.74-0.84-11.7-1.49-16.39
			c-0.96-6.88-3.63-15.58-5.11-22.35c-0.39-1.8-2.6-12.16-2.97-13.91c-3.36,0.42-6.21-0.3-9.57,0.01c2,7.33,4.93,24.43,6.38,31.92
			c1.03,5.31,1.64,10.68,2.27,16.05c0.4,3.38,0.52,6.8,0.61,10.2c0.13,5.27,0.25,10.54,0.03,15.82c-0.63,14.95,2.23,27.86-4.2,41.3
			c-2.93,6.11-2.55,11.4-7.24,20.44c-2.41,3.24-5.6,9.99-8.51,12.67c-1.55,1.43-10.43,6.59-11.92,8.09
			c-3.96,3.98-48.47,29.2-150.36,13.03c-12.95-3.78-63.59-10.18-90.7-28.31C301.11,522.73,354.12,539.52,398.59,511.5z"/>
		<path class="st1" d="M460.74,397.54c-0.81,0.55-1.53,1.15-2.18,1.79c-0.04,0.87-0.17,13.85-0.22,14.73
			c-0.23,4.14-0.21,8.29-0.61,12.43c-0.46,4.72-1.11,9.4-1.77,14.09c-1.07,7.53-3.67,14.45-7.53,20.72
			c-3.96,6.43-7.94,12.87-12.56,18.78c-1.7,2.17-3.38,4.39-5.44,6.15c-3.9,3.33-7.95,6.43-11.8,9.82
			c-7.17,6.31-11.67,11.43-20.04,15.45c-44.48,28.02-97.49,11.23-111.67,11.23c27.12,18.13,77.75,24.53,90.7,28.31
			c101.89,16.17,144.5-8.85,149.72-10.9c27.03-10.64,39.88-59.6,33.84-102.58c-0.45-3.19-4.68-40.12-11.8-60.01
			c-0.55,0.05-6.51-9.26-41.62-3.94C483.19,377.32,466.08,393.9,460.74,397.54z"/>
	</g>
</g>
</svg>
