<?xml version="1.0" encoding="utf-8"?>
<!-- Generator: Adobe Illustrator 26.0.3, SVG Export Plug-In . SVG Version: 6.00 Build 0)  -->
<svg version="1.1" id="Calque_1" xmlns="http://www.w3.org/2000/svg" xmlns:xlink="http://www.w3.org/1999/xlink" x="0px" y="0px"
	 viewBox="0 0 640 640" style="enable-background:new 0 0 640 640;" xml:space="preserve">
<style type="text/css">
	.st0{clip-path:url(#SVGID_00000154403382077337454640000001522544035636729758_);}
	.st1{fill:#FF9CBF;}
	.st2{fill:#FFFFFF;}
	.st3{fill:#575EC5;}
	.st4{fill:#476AAD;}
	.st5{fill:#020303;}
</style>
<g>
	<defs>
		<rect id="SVGID_1_" width="640" height="640"/>
	</defs>
	<clipPath id="SVGID_00000168081440556052545960000004206569032605486480_">
		<use xlink:href="#SVGID_1_"  style="overflow:visible;"/>
	</clipPath>
	<g style="clip-path:url(#SVGID_00000168081440556052545960000004206569032605486480_);">
		<g>
			<path d="M361.88,550.6c-9.44,21.5-24.73,39.83-36.7,60.04c-7.78,13.13-14.28,29.13-8.62,43.3c0.64,1.61,1.48,3.22,2.85,4.28
				c2.29,1.77,5.47,1.64,8.36,1.47c61.66-3.54,123.76,16.64,184.67,6.47c-1.95-16.05-3.91-32.24-2.44-48.35
				c1.18-12.99,4.59-25.8,4.33-38.84c-0.29-14.99-5.4-29.4-9.28-43.89c-12.49-46.59-12.86-96.59-32.34-140.72
				c-1.64-3.71-4.05-7.85-8.08-8.31c-5.47,11.79-1.58,25.56-1.89,38.56c-0.31,13.23-5.11,26.05-11.83,37.46
				c-8.24,13.97-20.28,26.69-35.91,30.98c-18.9,5.18-35.3-3.31-52.96-8.31C371.73,506.81,371.71,528.21,361.88,550.6z"/>
		</g>
		<g>
			<path d="M505.54,392.75c19.15-6.7,36.15,0.57,55.96,4.93c5.59,1.23,11.21,2.55,16.4,4.99c6.32,2.97,11.76,7.48,17.13,11.94
				c12.48,10.38,25.15,20.97,34.12,34.51c11.51,17.38,16.08,38.35,19.57,58.9c7.91,46.57,11.41,93.88,10.45,141.1
				c-0.02,0.86-0.05,1.77-0.52,2.49c-0.7,1.07-2.1,1.36-3.36,1.57c-51.39,8.24-104.01,8.8-155.56,1.66c8.45-8.96,4-23.3,4.12-35.62
				c0.14-14,6.96-27.32,6.84-41.31c-0.07-7.92-2.36-15.62-4.53-23.23c-11.16-39.17-19.54-79.13-25.04-119.49
				c-0.43-3.17-1.71-6.05-2.8-9.06C468.19,398.18,466.5,406.41,505.54,392.75z"/>
		</g>
		<g>
			<path d="M309.33,636.32c-6.26-14.37-22.11-22.19-30.52-35.42c-7.01-11.02-8.18-24.6-11.55-37.22
				c-4.78-17.91-14.36-34.51-27.47-47.61c-3.7-3.69-7.73-7.19-10.3-11.75c-4.37-7.75-3.83-17.18-4.61-26.04
				c-0.85-9.7-3.46-19.24-7.64-28.03c-3.82-8.02-9.38-15.77-17.55-19.26c-9.05-3.87-19.49-1.8-28.83,1.32
				c-14.65,4.9-29.51,13.36-35.41,27.64c-3.66,8.85-3.37,18.8-2.39,28.33c0.43,4.21,0.94,8.69-0.96,12.46
				c-1.91,3.77-7.32,6.05-10.49,3.25c-0.58,5.47,4.62,10.47,10.12,10.7c5.5,0.23,10.64-3.45,13.33-8.26
				c1.8-3.23,2.66-6.88,3.9-10.36c2.57-7.18,7.14-13.99,13.94-17.46s16.01-2.75,21.04,2.97c5.76,6.55,4.48,16.72,8.37,24.52
				c2.61,5.23,7.4,9.11,10.07,14.31c4.78,9.33,1.81,20.51,1.25,30.97c-0.66,12.39,2.34,24.96,8.54,35.72
				c8.36,14.52,22.44,26,26.83,42.17c1.74,6.4,1.81,13.14,3.37,19.59c1.93,8.04,6.32,15.63,12.96,20.55s15.63,6.89,23.47,4.28
				c8.68-2.88,15.21-10.82,24.17-12.64C314.57,658.7,313.02,644.79,309.33,636.32z"/>
		</g>
		<path d="M281.67,266.53c-9.06-12.41-15.84-26.69-18.24-41.86c-2.5-15.86-0.18-32.07-1.1-48.1c-0.11-1.88,0.91-18.68-0.37-20.05
			c-1.84-1.96-6.32,13.05-8.79,14.15c-4.72,2.1-9.59,7.16-11.33,12.03s-2.18,11.11-2.23,16.28c-0.36,37.33,8.77,68.11,32.35,97.05
			c1.36,1.67,4.69,1.78,6.6,2.77c2.24,1.16,21.69-13.12,19.58-14.9C288.17,275.51,289.37,277.08,281.67,266.53z"/>
		<g>
			<path d="M351.79,278.37c-12.8-3.38-26.16-5.18-39.31-3.68c-24.74,2.81-47.31,17.4-62.54,37.1
				c-15.22,19.7-23.51,44.14-26.57,68.85c-1.35,10.91,0.62,24.98,4.11,35.41c4.28,12.79,11.55,20.25,21.18,29.69
				c6.89,6.75,13.65,13.87,21.95,18.79c22.64,13.45,39.44,11.91,69.89,17.92c7.9,1.56,22.18,2.94,25.6,10.23
				c0.74,1.58,1.12,3.42,2.39,4.61c1.37,1.29,3.41,1.5,5.29,1.57c19.25,0.71,38.36-6.11,54.05-17.28s28.11-26.49,37.65-43.22
				c6.04-10.6,11.11-22.53,9.68-34.65c-1.2-10.16-6.82-19.18-12.3-27.83c-11-17.35-22.04-34.77-35.03-50.73
				c-12.26-15.05-27.5-26.19-44.86-34.94C373.03,285.21,362.56,281.22,351.79,278.37z"/>
		</g>
		<g>
			<path class="st1" d="M286.88,624.78c-4.07-3.83-6.48-7.07-10.31-11.15c-17.36-18.56-11.42-50.35-27.24-70.23
				c-5.63-7.07-10.4-12.4-15.89-19.58c-6.91-9.04-12.63-19.08-14.05-30.36c-1.42-11.29-1.51-23.61-5.68-34.19
				s-13.76-21.51-24.97-23.41c-7.21-1.22-16.77,1.84-22.99,5.7s-13.35,9.26-17.88,15.01c-5.2,6.61-6.4,12.3-7.95,20.57
				c-1.66,8.89,1.28,27.1-12.2,31.36c15.75-0.71,15.08-13.07,17.77-19.25c3.8-8.73,10.07-15.08,18.27-19.91s18.7-2.71,24.69,4.68
				c5.66,6.99,4.63,13.11,7.83,21.51c5.5,14.46,23.23,21.48,28.54,36.01c2.7,7.39,1.75,15.7,4.19,23.17
				c3.23,9.87,11.84,16.92,17.05,25.89c5.06,8.73,6.79,19.07,11.85,27.8c4.81,8.29,12.53,14.96,15.46,24.08
				c1.49,4.63,1.64,9.62,3.31,14.19c1.67,4.57,5.6,8.92,10.46,8.73c2.95-0.12,8.6-2.04,11.02-3.68c3.42-2.31,2.85-3.67,1.39-7.76
				C296.96,636.72,292.48,630.05,286.88,624.78z"/>
			<path class="st1" d="M262.55,629.73c-2.71-5.5-7.85-9.41-11.14-14.59c-3.34-5.26-4.61-11.58-7.5-17.1
				c-6-11.47-18.6-18.92-22.74-31.18c-2.92-8.64-1.08-18.06-1.26-27.17c-0.18-9.12-3.62-19.54-12.21-22.58
				c7,9.79,3.99,23.15,4.19,35.19c0.22,13.14,4.79,26.18,12.83,36.57c3.73,4.83,8.18,9.09,11.78,14.02
				c6.77,9.28,10.25,20.49,13.61,31.48c0.87,2.83,1.73,5.67,2.2,8.59c0.51,3.16,0.55,6.45,1.8,9.39
				c2.07,4.86,15.23,12.16,15.47,2.87c0.09-3.54-2.9-8.46-3.6-12.12C265.12,638.57,264.61,633.91,262.55,629.73z"/>
			<path class="st1" d="M377.71,530.02c-3.74,19.67-14.51,37.21-25.52,53.94c-11.01,16.73-22.62,33.5-28.44,52.67
				c-1.13,3.72-1.6,8.65,1.74,10.63c1.21,0.72,2.67,0.85,4.07,0.94c20.17,1.31,40.38-1.37,60.6-1.42
				c34.35-0.09,68.19,7.38,102.09,12.87c2.35,0.38,5.24,0.54,6.61-1.4c0.64-0.9,0.77-2.06,0.86-3.17
				c1.24-15.21-0.94-30.62,1.28-45.71c1.33-9.02,4.22-17.88,4.1-27c-0.15-11.51-5.08-22.37-7.28-33.67
				c-1.81-9.28-1.77-18.84-3.53-28.13c-1.85-9.74-5.65-19-8.23-28.58c-5.91-21.95-5.38-45.38-12.67-66.9
				c-1.09-3.23-4.63-7.04-7.12-4.71c-0.92,0.86,0.76,7.62,0.64,8.87c-1.3,13.65-3.71,22.26-8.84,34.97
				c-5.55,13.76-16.47,25.27-29.92,31.52s-29.29,7.2-43.38,2.58c-1.8-0.59-9.1-2.28-7.88,2.4
				C379.38,510.24,379.54,520.38,377.71,530.02z"/>
			<path class="st1" d="M444.63,366.93c-7.33-11.71-14.79-23.5-24.55-33.28c-7.12-7.14-15.34-13.07-23.66-18.77
				c-14.33-9.81-29.27-19.1-45.78-24.52c-16.5-5.42-34.86-6.71-51.1-0.57c-6.75,2.55-12.99,6.32-18.83,10.56
				c-25.09,18.23-43.41,46.86-45.41,77.81s14.07,63.35,41.82,77.22c9.12,4.56,19.1,7.08,28.99,9.57
				c13.58,3.42,27.17,6.84,40.75,10.26c9.88,2.49,20.88,5.82,25.64,14.82c3.13,5.91,3.71,14.24,9.89,16.77
				c1.97,0.81,4.17,0.8,6.3,0.72c20.7-0.73,41.46-7.07,57.88-19.68c13.2-10.13,23.4-24.47,27.86-40.56
				c4.86-17.53-4.71-36.08-12.76-51.45C456.47,385.94,450.57,376.41,444.63,366.93z"/>
		</g>
		<path d="M266.25,431.53c-0.43-2.49-1.95-4.91-4.3-5.84c-2.35-0.93-5.11-0.21-7.17,1.25c-2.07,1.46-3.57,3.57-4.96,5.68
			c-7.09,10.76-12.57,23.46-10.9,36.24c0.6,4.62,3.03,9.9,7.66,10.45c3.42,0.41,6.62-2.12,8.2-5.18c1.58-3.06,1.92-6.58,2.42-9.99
			c0.86-5.79,2.28-11.51,4.37-16.98C263.5,442.1,267.23,437.24,266.25,431.53z"/>
		<path d="M418.96,516.04c3.43,1.48,6.98,3.04,9.39,5.73c3.49,3.9,3.88,9.41,3.22,14.42c-0.65,5.01-2.19,9.96-1.95,15
			c0.56,12.05,11.05,22.37,11.19,34.42c0.1,8.77-5.31,16.77-7.08,25.39c-1.42,6.9-0.47,14,0.48,20.97
			c-1.47-12.61,7.3-24.13,10.62-36.45c2.67-9.91,1.69-20.62-2.74-29.99c-1.68-3.55-3.85-6.96-4.73-10.75
			c-1.33-5.77,0.49-11.71,1.48-17.54s0.91-12.43-3.37-16.84c-1.73-1.78-4-3.03-6.28-4.18c-6.76-3.42-15.97-7.6-23.93-6.59
			C407.05,512.47,415.62,514.59,418.96,516.04z"/>
		<path d="M385.78,624.76c4.42-9.52,8.84-19.03,13.26-28.55c-0.66,9.96-4.11,19.48-6.64,29.14c-2.52,9.66-4.11,20.01-1.08,29.52
			c-1.94-0.22-3.88-0.44-5.82-0.67c-0.77-0.09-1.6-0.21-2.12-0.78c-0.41-0.45-0.53-1.09-0.63-1.7
			C381.29,642.27,381.71,633.51,385.78,624.76z"/>
		<path d="M465.35,632.44c2.1-6.33,4.89-12.43,6.72-18.84c3.44-12.07,3.36-25.12-0.22-37.15c4.59,10.44,9.13,21.5,8.03,32.85
			c-0.75,7.71-4.05,14.9-6.6,22.23c-3.63,10.43-5.77,21.67-3.89,32.56c-2.23,0.95-6.69,3.4-8.87,1.26
			c-2.09-2.05-0.46-7.36-0.14-9.85C461.35,647.68,462.87,639.92,465.35,632.44z"/>
		<path d="M373.2,462.69c0.85,4.25,1.59,8.65,3.88,12.34s6.58,6.51,10.83,5.65c2.32-0.47,4.33-1.96,5.89-3.75
			c4.58-5.22,5.66-12.82,4.29-19.63c-1.36-6.81-4.88-12.97-8.65-18.8c-1.64-2.53-3.41-5.1-5.94-6.73c0.33,4.05-1.82,8.2-5.31,10.27
			c-3.91,2.33-9.44-0.84-9.02,4.22C369.61,451.62,372.14,457.37,373.2,462.69z"/>
		<path d="M335.39,293.47c4.13-22.97,8.77-45.61,17.24-67.36c6.06-15.58,13.72-30,21.71-44.69c4.13-7.6,10.48-15.33,14.62-22.92
			c1.62-2.97,3.29-6.02,5.88-8.2c2.59-2.18-1.03,3.48,2.07,4.84c1.57,0.69,0.28,8.07,0.21,9.79c-0.21,5.75,2.03,4.52,0.64,10.22
			c-1.14,4.67,4.18,8.68,1.06,12.34c-15.54,18.28-17.54,30.46-25.11,53.31c-8.28,24.98-18.31,51.28-18.02,77.59
			c0.01,0.61,0.01,1.24-0.23,1.79c-0.49,1.13-1.8,1.6-2.96,2.01c-6.48,2.25-11.33,6.14-16.88,9.88
			C331.35,321.02,333.36,304.73,335.39,293.47z"/>
		<path d="M244.56,211.31c-5.83,8.71-15.96,17.63-27.1,19.29c-10.81,1.62-22.52-2.72-27.85-12.36c-4.15-7.51-4.03-16.54-7.09-24.52
			c-4.84-12.62-17.13-21.49-22.2-34.03c-2.62-6.48-3.14-13.58-3.06-20.54c0.08-6.23,0.69-12.69,3.84-18.13
			c1.84-3.18,4.48-5.88,7.41-8.19c9.84-7.75,22.9-11.07,35.58-10.68c12.68,0.39,25.04,4.26,36.46,9.61c4.68,2.19,9.33,4.7,12.86,8.4
			c4.59,4.81,6.92,11.27,8.08,17.71c3.27,18.09-1.79,36.67-9.04,53.63C249.6,198.16,248.6,205.27,244.56,211.31z M171.27,161.26
			c-2.95,9.48-0.02,19.8,4.89,28.15c1.55,2.64,3.32,5.18,5.55,7.3c6.78,6.41,17.62,8.01,26.35,4.51
			c8.73-3.5,15.13-11.66,17.08-20.67s-0.32-18.66-5.45-26.39c-3.68-5.54-8.88-10.23-15.15-12.71c-6.27-2.48-13.63-2.61-19.7,0.3
			C177.32,145.36,173.6,153.8,171.27,161.26z"/>
		<path d="M462.23,221.11c-6.45,3.29-14.67,5.33-21.91,5.6c-4.75,0.18-11.49-0.22-16.08-1.45c-5.86-1.57-9.69-4.23-14.43-8.01
			c-4.73-3.78-8.08-9.02-10.78-14.45c-7.87-15.82-10.85-33.97-8.8-51.52s9.05-34.45,19.74-48.52c4.72-6.21,10.27-11.98,17.18-15.59
			c3.24-1.69,6.73-2.88,10.22-3.97c5.7-1.77,11.7-3.32,17.58-2.28c4.85,0.86,13.17,3.13,17.38,5.68c4.08,2.47,18.84,6.38,21.71,24.9
			c0.95,6.12,2.23,14.05-4.79,19.15c-3.49,2.54-0.78,1.79-3.41,5.21c-2.61,3.4,2.88,5.72,1.92,9.9c-0.75,3.23,1.08,10.14,1.6,13.41
			c0.61,3.81-5.33,9.36-3.51,12.77c2.75,5.16-3.04,9.74-1.39,15.35c1.69,5.76,3.12,11.22-0.31,16.36
			C478.58,212,471.02,216.63,462.23,221.11z M437.95,128.82c-5.27,1.38-12.81,2.29-16.26,6.73c-3.11,4-4.46,9.04-5.11,14.05
			c-0.86,6.62-0.65,14.03,1.28,20.43c0.96,3.21,2.73,6.89,5.11,9.26c1.93,1.92,4.23,3.65,6.7,4.79c3.33,1.53,7.21,3.4,10.85,3.83
			c2.41,0.28,8.44,0.85,10.85,0.64c6.15-0.54,9.49-1.69,15.64-2.23c4.63-0.41,10.58-2.74,14.12-5.76c2.57-2.19,4.02-5.4,5.22-8.56
			c3.96-10.46,5.92-22.49,1.23-32.64c-1.09-2.35-2.53-4.57-4.47-6.28c-2.83-2.48-6.53-3.73-10.19-4.62
			C461.48,125.67,449.34,125.83,437.95,128.82z"/>
		<g>
			<g>
				<path class="st1" d="M270.9,262.82c-4.16-7.15-7.86-14.34-10.64-22.13c-5.21-14.59-5.96-33.84-4.68-52.99
					c-2.66,2.43-6.42,14.07-7.66,17.45c-1.49,4.04-2.19,5.6,0,16.17c2.19,10.58,4.89,18.78,9.03,28.75
					c3.59,8.66,8.62,18.02,12.89,26.37c2.67,5.21,5.32,11.07,6.6,10.43c5.29-2.64,8.51-4.04,6.17-7.45
					C277.33,271.75,275.59,270.87,270.9,262.82z"/>
				<path class="st1" d="M256.62,432.61c-1.15,2.8-3.6,4.8-5.65,7.03c-4.97,5.41-7.84,12.71-7.88,20.06
					c-0.02,3.01,1.05,6.73,4.02,7.24c1.9,0.33,3.79-0.95,4.81-2.59c1.02-1.64,1.38-3.59,1.8-5.48c1.63-7.34,4.5-14.4,8.45-20.8
					c2.12-3.44,4.6-6.82,5.36-10.79c0.75-3.97-0.91-8.78-4.76-10c-2.77-0.88-7.16-0.12-7.43,3.13
					C254.97,424.71,258.6,427.82,256.62,432.61z"/>
				<path class="st1" d="M374.54,449.55c2.49,4.95,3.34,10.59,5.8,15.55c0.92,1.85,2.31,3.77,4.36,4.03
					c1.94,0.25,3.79-1.17,4.65-2.92c0.86-1.76,0.94-3.78,0.96-5.74c0.04-5.18-0.31-10.47-2.24-15.28
					c-1.83-4.58-5.07-8.76-5.32-13.68c-0.09-1.68,0.19-3.38-0.18-5.02c-0.37-1.64-1.67-3.26-3.35-3.22
					c-1.46,0.03-2.61,1.29-3.2,2.62c-0.59,1.33-0.8,2.81-1.42,4.13c-1.6,3.42-10.79,6.48-11,9.64c-0.12,1.81,4.15,2.47,5.7,3.58
					C371.53,444.83,373.32,447.12,374.54,449.55z"/>
				<path class="st1" d="M240.88,122.86c-10.13-9.03-25.11-11.02-38.95-10.43c-8.91,0.38-18.29,1.87-25.1,7.36
					c-5.38,4.34-8.56,10.81-9.72,17.45s-0.45,13.45,0.94,20.04c0.3,1.43,1.22,3.24,2.71,2.92c0.51-0.11,0.92-0.47,1.26-0.85
					c2.28-2.51,2.69-6.06,4.1-9.1c2.43-5.24,7.94-8.83,13.81-10.01c5.87-1.18,12.05-0.17,17.64,1.91c2.61,0.97,5.14,2.17,7.37,3.79
					c5.04,3.65,8.26,9.25,9.79,15.11c1.53,5.86,1.47,12,0.88,18.01c-0.67,6.76-2.26,13.93-7.36,18.65
					c-6.26,5.8-15.89,6.3-24.62,6.37c0.4,7.11,5.08,13.85,11.78,16.97c6.7,3.11,13.94,1.41,19.76-3.03
					c6.69-5.11,11.14-12.84,13.7-18.83c6.25-14.61,8.39-25.71,10.92-41.23C251.89,145.08,251.62,132.43,240.88,122.86z"/>
				<path class="st1" d="M482.87,124.7c-2.26,2.69-8.13,1.02-11.64,1.17c-3.51,0.15-6.98-0.61-10.44-1.2
					c-8.46-1.45-17.27-1.87-25.52,0.51c-8.24,2.38-15.88,7.9-19.29,15.77c-1.38,3.18-2.04,6.64-2.25,10.1
					c-0.79,12.88,5.6,26.64,17.31,32.07c11.26,5.22,27.42,5.79,38.85,0.96c1.98-0.84,0.73,0.64,2.7,1.49
					c0.94,0.41,1.78,1.32,2.41,2.13c2.4,3.1,2.96,2.66,2.34,6.53c-1.4,8.83-7.35,13.38-15.58,17.35
					c-7.17,3.46-15.17,5.16-23.12,5.56c-7.95,0.4-16.23-1.68-22.26-6.86c-3.01-2.58-5.37-5.84-7.44-9.21
					c-14.31-23.32-15.02-54.35-1.8-78.31c1.83-3.32,3.9-6.5,5.97-9.67c3.04-4.66,6.19-9.44,10.8-12.56
					c3.66-2.47,7.8-5.02,12.14-5.82c7.52-1.4,13.94-5.96,22.24-1.7c3.94,2.02,9.03,4.61,13.09,6.38c3.64,1.59,10.19,5.02,11.7,9.07
					C484.47,112.19,485.35,121.74,482.87,124.7z"/>
			</g>
			<path class="st1" d="M340.81,300.49c8.97-52.74,17.81-84.22,48.99-127.7c0.64-0.89,2.41,5.82,2.55,11.21
				c0.04,1.66-4.92,6.5-11.63,18.48c-3.51,6.26-8.34,17.54-10.85,24.26c-11.71,31.29-24.26,70.55-14.41,93.44
				c0.79,1.83-4.23,5.38-4.7,7.32c-0.85,3.5-4.28,7.12-7.6,8.51c-4.61,1.92-6.81,1.57-7.12-2.95
				C335.45,324.73,339.42,308.68,340.81,300.49z"/>
		</g>
		<path d="M200.69,164.11c0.92,0.3,1.81,0.77,2.43,1.52c0.99,1.22,1.07,2.94,0.9,4.5c-0.28,2.57-1.1,5.08-2.39,7.32
			c-0.62,1.08-1.43,2.16-2.6,2.59c-1.46,0.53-3.09-0.09-4.39-0.93c-2-1.28-3.67-3.14-4.53-5.35c-0.86-2.21-0.87-4.79,0.19-6.92
			C191.79,163.78,197.87,163.19,200.69,164.11z"/>
		<path class="st2" d="M185.59,169.3c-1.74-0.81-2.72-2.82-2.64-4.74c0.08-1.92,1.07-3.71,2.4-5.09c1.07-1.11,2.4-2.02,3.92-2.28
			C197.32,155.79,196.71,174.5,185.59,169.3z"/>
		<path d="M476.72,122.8c4.4,1.07,7.82,4.06,10.84,7.43c9.86,11.03,9.52,42.69-1.84,52.92c-4.26,3.83-11.08,8.36-15.61,10.07
			c-14.05,5.32-29.67,1.4-32.56,1.06c-4.38-0.51-8.34-1.99-12.34-3.83c-2.97-1.37-6.81-3.41-9.15-6.38
			c-2.49-3.17-3.1-6.99-4.26-10.85c-2.31-7.69-1.82-16.63-0.78-24.6c0.78-6.01,2.97-11.96,6.71-16.77
			c4.15-5.34,10.62-6.95,16.96-8.62C448.37,119.64,462.96,119.44,476.72,122.8z M436.96,133.84c-4.63,1.22-9.35,2.39-12.38,6.29
			c-2.73,3.51-4.33,7.86-4.9,12.25c-0.76,5.82,0.19,11.74,1.88,17.36c0.85,2.82,1.94,5.68,4.02,7.76c1.69,1.69,3.91,2.73,6.08,3.73
			c2.92,1.35,5.94,2.53,9.11,3.07c17.42,2.97,31-2.39,34.11-5.04c2.26-1.92,3.53-4.74,4.58-7.51c3.48-9.18,5.2-19.74,1.08-28.66
			c-0.95-2.06-2.22-4.01-3.93-5.51c-2.49-2.18-5.73-3.27-8.95-4.06C457.61,131.07,446.96,131.22,436.96,133.84z"/>
		<path d="M456.26,153.24c3.1,2.33,4.43,6.99,3.08,10.75c-0.29,0.79-0.68,1.55-1.2,2.2c-1.24,1.55-3.1,2.37-4.95,2.91
			c-2.3,0.67-4.75,0.97-7.06,0.37c-2.31-0.6-4.47-2.21-5.4-4.54c-0.4-1.01-0.56-2.11-0.63-3.2
			C439.6,153.72,450.25,148.71,456.26,153.24z"/>
		<path class="st2" d="M438.42,159.09c-1.74-0.81-2.72-2.82-2.64-4.74c0.08-1.92,1.07-3.71,2.4-5.09c1.07-1.11,2.4-2.02,3.92-2.28
			C450.16,145.58,449.54,164.29,438.42,159.09z"/>
		<path d="M183.27,138.21c6.8-3.26,15.04-3.12,22.06-0.34c7.02,2.78,12.85,8.03,16.96,14.24c5.75,8.65,8.3,19.47,6.11,29.56
			c-2.19,10.09-9.35,19.22-19.13,23.14c-9.77,3.92-21.92,2.13-29.51-5.05c-2.51-2.37-4.48-5.22-6.22-8.17
			c-5.5-9.35-8.78-20.91-5.48-31.53C170.68,151.7,174.84,142.25,183.27,138.21z M177.28,163.31c-2.27,7.35-0.02,15.34,3.75,21.81
			c1.19,2.04,2.54,4.01,4.26,5.65c5.2,4.96,13.52,6.21,20.22,3.49c6.7-2.71,11.61-9.03,13.11-16.01c1.5-6.98-0.25-14.46-4.18-20.45
			c-2.82-4.29-6.82-7.93-11.63-9.85c-4.81-1.92-10.46-2.02-15.12,0.23C181.92,150.99,179.06,157.52,177.28,163.31z"/>
		<g>
			<path class="st3" d="M537.31,420.79c-10.32,7.79-19.75,17.26-25.19,28.98c-3.24,6.98-4.98,14.55-6.7,22.06
				c-1.25,5.47-2.5,10.95-3.76,16.42c-1.07-7.13-2.14-14.27-3.21-21.4c-1.21-8.06-2.42-16.16-4.8-23.95
				c-3.8-12.48-10.49-23.94-14.07-36.48c5.78-0.08,11.54-1.16,16.96-3.15c4.01-1.48,7.85-3.46,11.98-4.55
				c3.61-0.95,7.36-1.18,11.09-1.21c8.93-0.05,17.87,1.14,26.48,3.49c6.85,1.87,17.07,4.45,22.22,9.41
				c-4.15,0.75-8.38-0.33-12.64,0.7C548.93,412.77,542.8,416.65,537.31,420.79z"/>
			<path class="st3" d="M511.45,604.96c1.17-7.16,3.01-14.22,3.64-21.44c1.91-21.86-7.33-43.01-10.54-64.72
				c-0.85-5.78-1.28-11.7-0.14-17.43c1.03-5.22,3.32-10.1,5.59-14.92c9.08-19.29,18.31-38.83,31.99-55.18
				c2.17-2.6,4.51-5.15,7.47-6.79c3.5-1.94,7.59-2.45,11.56-2.92c9.93-1.18,20.52-2.26,29.46,2.22c4.42,2.21,8.09,5.64,11.7,9.02
				c9.38,8.78,18.84,17.67,25.96,28.38c7.11,10.7,11.75,23.55,10.37,36.32c-7.26-9.75-16.4-18.38-27.48-23.38
				c-11.08-5-24.26-6.06-35.4-1.17c-13.19,5.79-21.71,18.77-27.95,31.75c-21.67,45.1-24.55,96.97-21.22,146.89
				c-0.12-1.82-11.61-2.33-12.52-3.13c-2.61-2.27-2.82-8.54-3.17-11.56C509.5,626.29,509.73,615.51,511.45,604.96z"/>
			<path class="st3" d="M555.98,520.13c4.31-9.76,10.28-20.61,17.88-28.09c7.6-7.48,18.52-10.64,29.05-8.94
				c13.64,2.21,26.65,17.52,33.2,29.69c7.24,13.44,9.5,28.95,13.71,43.63c2.64,9.21,4.86,18.59,5.67,28.14
				c0.57,6.71,0.44,13.46,0.32,20.2c-0.27,14.42-0.54,28.84-0.82,43.25c-6.14,0.58-14.57,2.2-20.48,3.97
				c2.57-18.19,4.41-37.24,0.86-55.27c-1.84-9.32-1.04-19.07-6.61-26.77c-2.26-3.12-6.72-6.99-10.22-8.62
				c-5.59-2.6-14.23-0.24-19.6,2.78c-5.37,3.02-9.51,7.86-12.91,13c-13.57,20.51-16.68,46.3-15.5,70.86
				c-5.73,0.2-11.46,0.41-17.18,0.61c-3.9,0.14-12.98,2.21-16.41,0.43c-5.53-2.87-2.99-21.9-2.79-27.48
				c0.75-21.54,4.71-42.9,11.03-63.48c1.73-5.63,3.63-11.21,5.7-16.73C552.51,536.93,553.74,525.87,555.98,520.13z"/>
			<path class="st4" d="M594.15,586.13c4.01-6.42,10.03-13.06,17.57-12.48c8.24,0.63,13.27,9.62,14.34,17.81
				c1.27,9.71-0.84,19.5-1.56,29.26c-0.73,9.97-0.01,20.04,2.15,29.8c-8.35,0.27-16.7,0.54-25.06,0.81
				c-5.83,0.19-15.8,1.47-20.84-2.4c-4.81-3.7-2.69-12.72-2.12-17.88C580.39,615.17,585.69,599.68,594.15,586.13z"/>
		</g>
		<g>
			<path class="st5" d="M307.7,376.33c-2.03,0.34-12.02,2.93-15.93,1.82s-21.66-10.76-23.05-11.6c-1.4-0.84-2.65-1.68-3.77-2.1
				c-1.12-0.42-4.89,1.12-4.19,4.47c0.7,3.35,2.51,9.78,4.05,12.16c1.54,2.38,7.82,11.88,9.08,13.27
				c1.26,1.4,9.22,10.62,10.76,11.74c1.54,1.12,9.92,6.85,11.46,7.68c1.54,0.84,8.8,5.59,15.51,0.84c6.71-4.75,7.68-5.03,10.48-9.78
				c2.79-4.75,3.77-5.73,6.01-9.08s8.52-10.48,10.06-12.16c1.54-1.68,6.01-8.38,8.1-11.6c2.1-3.21,4.75-5.03,4.89-7.82
				c0.14-2.79-0.42-5.45-4.33-4.19s-10.9,6.57-14.11,7.82S315.24,375.07,307.7,376.33z"/>
			<path class="st2" d="M275.26,375.09c0.2,3.89,0.31,7.32,1.44,11.05c-1.53-2.14-3.06-4.28-4.58-6.42
				c-0.37-0.52-0.74-1.04-1.02-1.6c-0.28-0.55-0.46-1.15-0.63-1.74c-0.22-0.78-0.9-2.25-0.36-2.92
				C271.78,374.1,273.42,375.17,275.26,375.09z"/>
			<path class="st2" d="M278.97,377.57c0,0.16,2.2,10.37,2.04,14.25c2.15,3.56,3.14,4.45,3.14,4.45s-0.63-12.52-0.21-15.98
				C280.86,378.82,278.97,377.57,278.97,377.57z"/>
			<path class="st2" d="M288.56,381.92c0,0,0.42,9.27,0.63,10.69c0.21,1.41,1.31,9.12,1.31,9.12c1.73,0.84,7.23,4.24,7.23,4.4
				c0.79-5.29,1.1-22.58,1.1-22.58C296.31,383.91,289.34,383.17,288.56,381.92z"/>
			<path class="st2" d="M303.96,382.91c0,0,1.05,8.38,0.94,9.74c-0.1,1.36-1,11.47-1.1,12.26c-0.1,0.79,0.52,3.77,0.42,3.93
				c-0.1,0.16,1.05,0.84,2.04,0.47c1-0.37,6.44-4.51,6.44-4.51c0.01-1.31-0.52-1.21-0.52-3.44c0.63-2.2,0.21-8.03,0.26-8.87
				c0.05-0.84-0.05-8.02,0.47-9.01s0.37-2.41,0.37-2.41S306,383.07,303.96,382.91z"/>
			<path class="st2" d="M319,379.66c0,0-0.47,9.33-0.42,10.95s0.05,7.65,0.05,7.65c1.83-2.2,5.11-7.17,5.9-7.85
				c0.79-0.68,2.06-2.63,2.06-2.63c0-2.1,1.83-11.21,1.83-11.21S319.99,379.71,319,379.66z"/>
			<polygon class="st2" points="339.59,371.54 333.04,375.3 332.41,381.47 			"/>
		</g>
	</g>
</g>
</svg>
