<?xml version="1.0" encoding="utf-8"?>
<!-- Generator: Adobe Illustrator 26.0.3, SVG Export Plug-In . SVG Version: 6.00 Build 0)  -->
<svg version="1.1" id="Calque_1" xmlns="http://www.w3.org/2000/svg" xmlns:xlink="http://www.w3.org/1999/xlink" x="0px" y="0px"
	 viewBox="0 0 640 640" style="enable-background:new 0 0 640 640;" xml:space="preserve">
<style type="text/css">
	.st0{clip-path:url(#SVGID_00000078028125169330271880000004301841816065063055_);}
	.st1{opacity:0.57;fill:#F7F7F7;}
	.st2{fill:#020304;}
	.st3{fill:#F7F7F7;}
	.st4{fill:#223A86;}
	.st5{fill:#575EC5;}
	.st6{fill:#020303;}
	.st7{fill:#FFFFFF;}
</style>
<g>
	<defs>
		<rect id="SVGID_1_" width="640" height="640"/>
	</defs>
	<clipPath id="SVGID_00000178200890545369463890000013079439159673204904_">
		<use xlink:href="#SVGID_1_"  style="overflow:visible;"/>
	</clipPath>
	<g style="clip-path:url(#SVGID_00000178200890545369463890000013079439159673204904_);">
		<g>
			<path d="M492.79,482.79c7.91,0.84,15.84,1.68,23.64,3.26c34.61,7.02,65.84,29.29,83.75,59.72c1.61,2.73,3.16,5.87,2.37,8.94
				c-1.46,5.62-8.97,6.48-14.76,6.09c-14.64-0.98-29.37-2.49-43.33-7.01c-25.36-8.2-46.52-25.71-66.29-43.58
				c-4.57-4.13-9.19-8.4-12.17-13.79c-2.65-4.78-5.48-13.97,0.24-16.44C471.65,477.64,486.76,482.15,492.79,482.79z M524.28,497.99
				c-12.4-3.49-25.17-5.44-37.94-6.98c-2.94-0.35-13.81-3.1-15.25,1.16c-1.17,3.47,8.63,9.2,10.81,10.93
				c20.16,15.96,41.19,31.65,65.57,40.53c13.52,4.92,27.84,7.63,42.22,7.99c0.99-5.6-2.88-10.79-6.62-15.08
				c-6.55-7.53-13.43-14.84-21.4-20.84C550.55,507.31,537.63,501.75,524.28,497.99z"/>
			<path d="M592.95,551.38c1.44-2.75-2.22-5.29-5.14-6.33c-39.33-13.95-73.7-39.51-112.9-53.82c-2.87-1.05-6.41-2.23-9.21-0.59
				c13.4,9.93,31.49,16.77,46.52,24.21c16.86,8.34,33.91,16.32,51.13,23.91C573.16,543.1,583.03,547.3,592.95,551.38z"/>
			<path d="M520.77,501.88c-0.28,0.52-0.62,1.08-1.18,1.24c-0.43,0.12-0.88-0.03-1.3-0.17c-5.88-2-11.76-4.01-17.64-6.01
				c-0.31,2.45-1.04,4.85-2.14,7.07c1.06,0.63,2.11,1.26,3.17,1.9c0.35-1.21,0.7-2.43,1.04-3.64c6.48,0.5,11.97,5.13,18.37,6.24
				c-0.98-0.17,5.58-11.77,5.37-12.57C525.25,491.41,521.26,500.96,520.77,501.88z"/>
			<path d="M503.54,514.82c0.77-0.47,1.74-0.42,2.63-0.26c5.87,1.07,10.18,5.97,15.44,8.78c-1.12,3.59-2.23,7.18-3.35,10.77
				c-1.12-0.78-2.25-1.56-3.37-2.34c-0.23-0.16-0.46-0.32-0.59-0.57c-0.19-0.36-0.1-0.79-0.01-1.18c0.64-2.82,1.29-5.64,1.93-8.45
				c-3.33-0.44-6.57-1.6-9.43-3.37c-1.13-0.7-2.7,0.19-3.19,1.43c-0.44,1.13-0.28,2.66-0.03,3.82
				C499.12,523.34,500.98,516.4,503.54,514.82z"/>
			<path d="M533.46,531.75c3.46,1.43,6.8,3.15,9.96,5.15c-0.64,3.2-1.29,6.39-1.93,9.59c1.18,0.08,2.36,0.17,3.54,0.25
				c0.32,0.02,0.68,0.03,0.92-0.17c0.24-0.2,0.29-0.55,0.33-0.86c0.35-3.1,0.7-6.2,1.06-9.3c-2.65-1.33-5.31-2.65-7.96-3.98
				c-0.57-0.28-1.17-0.6-1.48-1.15c-0.78-1.4,0.77-3.03,0.66-4.62c-0.12-1.71-1.94-2.91-3.39-2.27
				C533.69,525.03,533.53,530.43,533.46,531.75z"/>
			<path d="M524.08,517.72c0.93-2.65,2.02-5.25,3.26-7.77c3.76,0.06,7.49,1.31,10.53,3.53c0.67,0.49,1.35,1.09,1.48,1.9
				c0.09,0.53-0.08,1.07-0.24,1.59c-0.82,2.61-1.63,5.23-2.45,7.84c-1.28-0.86-2.55-1.72-3.83-2.58c0.76-2.29,1.51-4.58,2.27-6.87
				c0.11-0.34,0.22-0.7,0.1-1.03c-0.18-0.5-0.78-0.69-1.3-0.81c-1.44-0.33-2.88-0.66-4.32-1c-0.57-0.13-1.26-0.24-1.68,0.18
				c-0.28,0.27-0.34,0.69-0.39,1.08c-0.17,1.35-0.34,2.7-0.51,4.05c-0.61-0.96-1.63-1.66-2.75-1.88"/>
			<path d="M548.9,519.12c5.5,1.62,10.88,3.66,16.06,6.1c0.45-3.11,1.17-6.19,2.16-9.18c1.54,0.66,3.09,1.32,4.63,1.98
				c-0.39,4.05-0.97,8.07-1.73,12.07c-0.13,0.66-0.35,1.43-0.99,1.62c-0.39,0.12-0.8-0.03-1.18-0.17
				c-5.94-2.27-11.61-5.23-16.87-8.79c-1.15,2.23-1.67,4.73-1.58,7.24C542.77,529.5,548.81,519.09,548.9,519.12z"/>
			<path d="M558.93,541.49c2.14,1.29,4.29,2.57,6.43,3.86c-0.12,1.99-0.59,3.95-1.38,5.78c1.31,0.54,2.61,1.09,3.92,1.63
				c0.38-2.79,0.76-5.58,1.14-8.36c-1.9-0.44-3.9-0.94-5.27-2.33s-1.7-3.98-0.16-5.17c-0.18,0.14-2.4-1.51-3.16-1.2
				C559.59,536.04,559.1,540.74,558.93,541.49z"/>
			<path d="M573.92,540.94c2.1-2.46,4.21-4.91,6.34-7.35c0.28-0.33,0.58-0.66,0.98-0.84c1.18-0.53,2.41,0.56,3.25,1.55
				c-2.59,2.95-5.18,5.89-7.77,8.84c-1.16-0.81-1.95-2.15-2.09-3.56"/>
			<path class="st1" d="M553.51,513.55c0.94,0.42,1.98,0.96,2.28,1.95c-1.62,0.47-3.32-0.19-4.99-0.4c-3.11-0.4-6.69,1.18-7.55,4.2
				c-0.69-1.33-0.67-2.93-1.23-4.32c-0.74-1.85-2.42-3.14-4.09-4.22c-2.92-1.88-6.09-3.39-9.39-4.48c-0.63-0.21-1.29-0.42-1.73-0.91
				c-2.33-2.6,2.74-1.62,3.39-1.47c2.71,0.6,5.51,2.14,8.08,3.18C543.39,509.13,548.47,511.3,553.51,513.55z"/>
			<path class="st1" d="M498.86,496.26c1.07-0.5,2.3-0.54,3.48-0.48c2.02,0.11,4.02,0.48,5.94,1.11c-2.38-1.34-5.13-1.82-7.82-2.28
				c-2.83-0.48-5.66-0.96-8.48-1.44c-0.66-0.11-1.35-0.23-2-0.06c-0.71,0.18-1.17,0.61-1.21,1.31c3.09,1.05,5.11,3.35,8.1,4.45
				C497.11,497.75,497.79,496.77,498.86,496.26z"/>
			<path class="st1" d="M499.18,513.75c-0.11-0.98,0.87-1.82,1.86-1.92c0.98-0.11,1.94,0.3,2.85,0.7c3.4,1.51,6.81,3.01,10.21,4.52
				c2.64,1.17,5.36,2.39,7.37,4.46c2.01,2.07,3.19,5.24,2.12,7.92c4.77,2.55,9.54,5.11,14.32,7.66c-0.26-2.98-4.76-3.08-6.81-5.26
				c-1.37-1.46-1.45-3.7-2.33-5.5c-1.02-2.08-3.06-3.45-5.03-4.67c-9.63-5.92-21.88-12.68-33.2-14.24
				C491.78,508.69,499.01,512.25,499.18,513.75z"/>
			<path class="st1" d="M546.28,534.55c1.89,1.46,3.16,4,2.42,6.26c3.8,1.92,7.79,3.45,11.9,4.56c-1.07-2.24-3.31-3.89-5.78-4.23
				c0.83-0.68,0.79-2.04,0.19-2.93s-1.59-1.42-2.55-1.9c-4.13-2.07-8.99-5.79-13.16-7.1C538.07,532.79,544.18,532.92,546.28,534.55z
				"/>
			<path class="st1" d="M569.58,534.26c-6.24-2.97-12.33-6.24-18.43-9.51c-0.67,0.52-0.62,1.6-0.12,2.28s1.3,1.06,2.07,1.41
				c5.23,2.38,10.46,4.76,15.69,7.14c1.55,0.71,3.2,1.43,4.89,1.25c1.69-0.18,3.38-1.63,3.15-3.32c-1.36-2.09-2.85-4.44-4.74-6.07
				C571.75,527.8,569.16,534.06,569.58,534.26z"/>
			<path class="st1" d="M571.7,547.73c-0.29-0.09-0.6-0.22-0.74-0.49c-0.11-0.22-0.08-0.48-0.06-0.72c0.14-2.19-1.48-4.37-3.63-4.86
				c1.62,0.37,9.22,3.07,9.87,4.52C578.77,549.81,573.51,548.32,571.7,547.73z"/>
		</g>
		<path d="M353.26,503.85c11.93-9.11,30.77-11.48,44.6-17.39c19.12-8.18,12.91,10.31,6.76,20.81
			c-13.92,23.77-39.75,40.45-67.31,42.57c-4.58,0.35-9.84,0.05-12.77-3.49C321,542.07,349.48,506.74,353.26,503.85z M358.37,508
			c-10.02,6.71-20.31,20.39-25.86,30.97c-0.46,0.87,1.05,3.35,1.8,3.99c0.44,0.37,1.08,0.31,1.65,0.22
			c14.77-2.2,29.01-7.88,41.26-16.43c8.84-6.18,16.83-14.2,21.57-24c1.47-3.04,6.65-14.03-0.19-10.54
			c-6.02,3.07-13.23,3.94-19.79,5.58C369.86,500.02,364.88,503.64,358.37,508z"/>
		<path d="M356.86,525.97c-8.47,6.47-16.18,13.91-25.27,19.55c9.14-10.5,19.82-19.74,31.64-27.36c6.23-4.02,12.79-7.6,18.72-12.03
			c5.85-4.36,16.15-15.55,23.6-16.93c-0.98,6.44-16.46,15.17-21.43,18.48C375,513.73,365.54,519.33,356.86,525.97z"/>
		<path d="M380.45,501.4c2.12-1.39,2.96-4.42,1.87-6.71c1.17-0.23,2.33-0.46,3.5-0.69c-0.01,2.3-0.02,4.59-0.03,6.89
			c-1.76,0.8-3.63,1.6-5.17,2.72c0.67,0.43,1.78,2.6,2.23,3.04C379.37,508.29,377.22,503.53,380.45,501.4z"/>
		<path d="M365.17,501.61c0.42-0.33,0.83-0.66,1.25-0.99c0.37,1.49,4.98,14.16,4.84,14.24
			C370.45,515.31,364.47,502.17,365.17,501.61z"/>
		<path d="M359.3,515.26c-2.82,2.69-5.97,5.06-9.34,7.03c-0.95-2.47-2.03-4.88-3.26-7.22c-0.61,0.35-1.31,0.85-1.27,1.55
			c0.01,0.2,0.08,0.38,0.15,0.57c0.88,2.28,1.76,4.56,2.63,6.84c0.09,0.25,0.21,0.52,0.46,0.62c0.25,0.1,0.53-0.02,0.77-0.14
			c1.46-0.76,2.75-1.79,4.04-2.82c1.57-1.25,3.14-2.51,4.71-3.76c0.42,1.58,0.63,3.18,0.95,4.77c1.42-0.08,1.48-1.2,1.36-2.31
			C360.43,519.66,358.97,515.57,359.3,515.26z"/>
		<path d="M333.4,534.85c1.76-1.15,3.61-2.18,5.51-3.08c0.18,1.89,1.5,3.59,1.36,5.48c0.23-0.57,1.04-0.74,1.22-1.32
			c0.09-0.28-0.01-0.59-0.1-0.87c-0.6-1.79-1.19-3.58-1.79-5.37c-1.35,0.55-2.63,1.28-3.79,2.17c-0.34,0.26-0.67,0.54-0.86,0.92
			c-0.19,0.38-0.19,0.88,0.11,1.19c-0.01-0.17-0.02-0.33-0.03-0.5"/>
		<path d="M347.65,537.41c0.12-0.4,0.26-0.81,0.55-1.1c0.32-0.31,0.77-0.43,1.2-0.53c2.44-0.6,4.89-1.21,7.33-1.81
			c0.31-1.46-0.76-3.34,0.39-4.3c0.33-0.28,0.77-0.38,1.2-0.47c2.09-0.42,4.21-0.65,6.34-0.7c-0.02-3.3,0.11-6.6,0.36-9.9
			c0.58-0.24,1.15-0.48,1.73-0.72c0.19,3.91,0.38,7.82,0.57,11.74c0.01,0.22,0.01,0.46-0.13,0.63c-0.13,0.14-0.33,0.18-0.52,0.22
			c-2.72,0.45-5.47,0.7-8.23,0.74c0.11,1.04,0.22,2.07,0.33,3.11c0.03,0.27,0.05,0.57-0.12,0.78c-0.17,0.21-0.46,0.26-0.72,0.3
			c-1.88,0.26-3.75,0.53-5.63,0.79c-0.81,0.11-1.71,0.27-2.21,0.92c-0.36,0.46-0.44,1.07-0.51,1.65c-0.19,1.6-0.25,3.31-0.63,4.87
			C344.44,544.18,346.83,540.06,347.65,537.41z"/>
		<path d="M386.73,520.02c0.06-1.08,3.87-1.79,3.92-2.87c-1.29-0.26-6.37-0.19-7.69-0.15c-1.28,0.04-2.53-0.32-3.76-0.63
			c-2.01-0.51-4.69-1.46-6.78-1.32c-2.2,0.15-0.86,1.46,0.68,1.67C377.77,517.36,382.31,518.33,386.73,520.02z"/>
		<path d="M392.66,504.12c-1.02,0.4-2.04,0.8-3.06,1.2c-0.19,0.08-0.4,0.16-0.52,0.33c-0.21,0.29-0.1,0.68,0.02,1.02
			c0.98,2.73,1.96,5.46,2.93,8.19c0.55-0.27,1.12-0.51,1.7-0.7c-0.58-1.42-1.16-2.83-1.75-4.25c-0.36-0.88-0.69-2-0.04-2.7
			c0.4-0.43,1.03-0.53,1.6-0.7s1.18-0.53,1.23-1.11c0.03-0.33-0.13-0.65-0.28-0.95c-0.45-0.91-1.41-5.49-1.97-5.34
			C390.5,499.65,392.63,504.13,392.66,504.12z"/>
		<path class="st1" d="M361.31,507.34c1.1-0.8,2.29-1.6,3.65-1.69c1.19,2.32,2.08,4.8,2.64,7.34c-2.62,0.67-5.04,2.14-6.83,4.18
			c-0.43-1.09-0.86-2.19-1.29-3.28c-2.53,1.6-5.06,3.2-7.6,4.8c-0.14,0.09-0.3,0.18-0.46,0.15c-1.32-0.24-0.92-2.06-0.51-2.72
			c0.72-1.13,2.24-2.13,3.24-3.02C356.44,511.06,358.83,509.14,361.31,507.34z"/>
		<path class="st1" d="M343.54,523.62c0.14-0.2,0.33-0.43,0.57-0.39c0.21,0.03,0.34,0.25,0.43,0.44c0.59,1.2,1.18,2.41,1.77,3.61
			c3.46-1.84,6.67-4.13,9.53-6.81c0.13,0.6-0.17,1.23-0.6,1.67s-0.98,0.74-1.51,1.06c-1.24,0.76-2.37,1.67-3.49,2.59
			c-2.85,2.31-5.7,4.62-8.55,6.93c-0.65-1.12-1.55-3.16-1.24-4.5C340.81,526.71,342.67,524.89,343.54,523.62z"/>
		<path class="st1" d="M362.25,523.86c0.16,0.54,0.33,1.1,0.25,1.66c-0.08,0.56-0.48,1.11-1.04,1.18c-2.01,0.25-4.3,0.66-5.36,2.38
			c-0.52,0.84-0.67,1.89-1.28,2.67c-0.94,1.2-2.63,1.41-4.08,1.89c-2.61,0.87-4.79,2.96-5.75,5.54c-0.1,0.26-0.43,0.32-0.71,0.35
			c-1.05,0.09-2.11,0.24-3.16,0.24c2.97-2.81,6.43-5.45,9.7-7.97C351.85,531.01,362.34,524.15,362.25,523.86z"/>
		<path class="st1" d="M367.86,519.67c1.14-0.69,2.29-1.38,3.43-2.06c0.2-0.12,0.41-0.24,0.64-0.27c0.29-0.04,0.57,0.08,0.84,0.19
			c3.08,1.28,6.32,2.2,9.61,2.73c-1.12,1.55-3.01,2.29-4.58,3.38c-2.53,1.77-5.12,6.34-8.44,6.65c-2.06,0.19-1.12-1.95-1.18-3.47
			C368.15,526.01,367.37,519.97,367.86,519.67z"/>
		<path class="st1" d="M377.35,514.06c1.08-0.19,1.92-0.99,2.83-1.6c1.14-0.77,2.44-1.27,3.65-1.93s2.37-1.55,2.94-2.8
			c-0.3,0.65,1.81,4,2.06,4.78c-1.3,1.01-2.63,2.45-4.36,2.59C382.2,515.28,379.62,514.28,377.35,514.06z"/>
		<path class="st1" d="M376.66,504.47c0.2,0.73,0.45,1.44,0.74,2.13c-2.1,1.08-4.12,2.31-6.03,3.7c-0.36-2.71-2.21-5.08-2.45-7.81
			c1.38-0.15,2.75-0.44,4.08-0.86c1.18-0.37,2.67-1.47,3.87-1.57c1.38-0.11,1,0.1,0.44,1.19
			C376.67,502.48,376.25,503.01,376.66,504.47z"/>
		<path class="st2" d="M405.79,466.58c0.93,9.51,1.84,19.21-0.24,28.54c-4.03,18.03-18.43,31.66-27.5,47.76
			c-9.06,16.08-12.77,34.88-12.09,53.32c0.67,18.44,5.59,36.57,12.84,53.54c0.11-1.24,1.56-1.82,2.77-2.09
			c25.37-5.7,57.36,8.54,83.18,5.43c-3.09-14.06,2.16-28.68,6.21-42.5c9.3-31.72,10.93-56.44,8.3-89.39
			c-0.42-5.28-3.97-19.27-5.75-24.26c-1.89-5.33-5.23-10.01-7.62-15.13c-4.27-9.14-11.03-21.69-14.14-31.3s-9.05-19.28-18.64-22.4
			c-6.52-2.12-14.01-0.72-19.51,3.38C401.5,440.52,404.53,453.65,405.79,466.58z"/>
		<path class="st2" d="M320.72,674.23c-0.6-6.54-1.98-13.01-4.09-19.23l-2.16-11.41c-4.96-25.11-4.02-29.84-20.77-57
			c-0.93,3.55-1.33,7.24-1.18,10.91c-1.87-6.69-7.95-12.22-13.6-16.82c-14.1-11.48-28.2-22.97-42.29-34.45
			c-3.61-2.94-7.91-7.61-11.27-4.4c-1.31-7.82-2.45-12.61-4.68-20.22c-0.54-1.84-2.95-4.97-4.39-6.25
			c-1.14-1.01-2.65-1.48-4.01-2.18c-5.92-3.06-8.37-10.08-10.45-16.41c-5.65-17.2-12.41-34.03-20.23-50.35
			c-1.55-3.24-3.44-6.74-6.79-8.04c-1.49-0.57-1.71-0.82-2.94-1.83c-1.66-1.36-1.53-4.1-1.56-6.24c-0.06-3.82-1.66-13.9-3.55-17.03
			c-2.32-3.85-6.07-2.54-9.65-1.84c-4-1.52-8.79-0.46-14.83,0.19c-5.71-0.87-11.41-1.69-17.14-0.55
			c-5.69,1.14-10.81,4.27-15.26,8.01c-11.83,9.93-19.59,24.56-21.18,39.92c4,0.2,7.95,1.28,11.49,3.15
			c-3.98,11.68-7.99,23.58-8.33,35.92c-0.33,12.32,3.04,24.41,6.38,36.28c-0.77-8.92,0.93-18.04,4.85-26.08
			c2.92-5.99,7.01-11.32,11.06-16.6c4.34-5.65,8.68-11.3,13.01-16.95c0.65-0.84,1.38-1.74,2.41-1.99c0.95-0.23,1.93,0.16,2.83,0.54
			c3.43,1.44,6.86,2.88,10.28,4.31c-0.1-3.19,3.54-4.96,5.6-7.4c4.46-5.28,1.21-13.14,0.27-19.98c-0.63-4.58-1.06-6.08,0.59-10.39
			c0.02-0.03,2.79,3.1,2.81,3.07c2.04-3.43,7.17-2.57,8.14,1.3c0.83,3.29,3.42,4.77,5.94,7.12c4.57,4.26,7.07,5.94,9.93,11.49
			c1.62,3.14,0.97,4.44,1.42,7.95c1.61,12.54,5.91,27.26,7.52,39.8c1.39-0.83,2.44-4.66,3.82-5.49c-0.16,15.31-0.78,25.2,5.12,39.33
			c-2.1-8.37,2.59-11.6,2.98-20.22c3.74,0.04,4.94,3.02,6.63,6.36c1.69,3.34,3.24,6.91,3.53,10.64
			c2.18,27.9,28.56,28.88,36.62,47.31c2.19,5.01,3.23,10.43,4.26,15.8c1.48,7.74,2.96,15.49,4.44,23.23
			c2.74,14.34,5.5,28.92,4,43.44c-0.17,1.69-0.4,3.46,0.19,5.05c0.93,2.52,3.57,3.92,6.05,4.96c16.17,6.77,34.63,7.91,51.51,3.17
			c2.08-0.58,4.27-1.35,5.55-3.1C321,679.13,320.94,676.57,320.72,674.23z"/>
		<path d="M349.27,183.73c-22.81,9.2-34.27,34.06-65.82,43.26c-10.59,3.09-19.88,10.16-27.6,18.03
			c-11.11,11.31-14.77,27.82-17.09,43.49c-2.06,13.87-3.46,27.85-4.19,41.85c-0.46,8.79-0.65,17.66,0.71,26.35
			c2.81,17.96,12.03,34.19,18,51.36c5.51,15.86,8.24,32.68,8.04,49.47c-0.07,6.15-0.56,12.42-2.95,18.09
			c-2.38,5.67-3.65,10.22-9.4,13.41c34.17,1.52,65.11-12.32,91.52-34.05c26.41-21.73,45.39-51.99,61.01-82.41
			c4.75-9.25,8.97-19.5,25.73-14.32c2.48,0.77,1.01-7.51,2.12-9.86c0.82-1.74-0.06-3.78-1-5.47c-4.59-8.3-10.59-15.77-14.97-24.18
			c-10.21-19.64-10.59-44.1-1-64.06c0.91-1.9,1.93-3.84,1.92-5.95c0-1.73-0.71-3.38-1.6-4.86c-4.46-7.41-13.25-10.95-21.65-13.03
			c-10.34-2.56-24.31-3.51-32.22-11.31c-4.47-4.41-4.85-8.95-7.07-14.82C351.12,202.99,346.91,184.48,349.27,183.73z"/>
		<path class="st2" d="M448.98,218.11c11.52-2.77,31.08,1.19,41.55,6.73c14.69,7.76,22.01,30.79,19.37,48.62
			c-2.34,15.81-16.35-8.4-13.69,13.69c2.44,20.23-3.16,38.64-14.01,55.89c-2.38,3.79-5.13,7.41-8.59,10.25
			c-7.77,6.38-15.2,9.37-28.19,9.09c-10.05-0.21-24.53-1.64-24.53-17.53c-18.6-23.62-19.38-37.93-20.15-51.14
			s-23.17-62.72-9.67-62.86C417.11,230.58,426.04,223.62,448.98,218.11z M454.71,320.34c8.36,0.39,14.09-1.03,21.89-4.21
			c5.8-2.37,8.08-11.81,8.75-17.29c0.48-3.89,0.86-6.63,0.64-10.55c-0.23-4.19-0.45-7.23-3.55-11.78
			c-5.79-5.37-10.06-6.71-16.72-7.04c-3.01-0.15-6.02-0.25-9.03-0.29c-7.39-0.1-15.14,0.24-21.55,3.86
			c-7.85,4.43-12.41,13.39-12.63,22.26c-0.11,4.35,0.73,8.72,2.43,12.74c0.98,2.3,1.95,6.14,3.89,7.75
			c2.06,1.72,5.02,3.35,7.63,4.05C441.22,321.12,449.79,320.12,454.71,320.34z"/>
		<path class="st2" d="M440.8,295.85c0.06-2.93,1.52-5.78,3.78-7.42c2.7-1.95,6.35-2.08,9.32-0.67c2.97,1.42,5.25,4.24,6.49,7.46
			c0.38,1,0.68,2.07,0.62,3.15c-0.08,1.56-0.88,2.98-1.87,4.12C453.28,309.26,440.58,306.13,440.8,295.85z"/>
		<path class="st3" d="M446.85,274.87c0.5,0.64,1,1.28,1.5,1.92c2.27,2.92,3.01,6.28,2.3,9.87c-0.65,3.3-2.93,4.67-6.6,4.52
			c-2.11-0.09-4.08-0.88-5.68-2.32c-0.77-0.69-1.27-1.48-1.56-2.44c-0.38-2.99,0.09-5.8,2.12-8.29c0.86-1.05,1.89-1.87,3.21-2.25
			C443.69,275.42,445.11,274.36,446.85,274.87z"/>
		<g>
			<path class="st2" d="M297.71,222.24c-26.67,7.06-34.19,9.62-52.67,9.62c-8.67,0-16.56,0.3-25.13-1.88
				c-30.48-7.74-44.45,9.84-48.39,13.82c-8.06,8.14-8.65,23.97-8.3,35.13c0.34,11.09,16.88,0.43,9.79,18.02
				c-2.69,6.66-0.46,14.6,0.28,17c1.43,4.66,8.65,15.06,15.76,18.69c0.72,0.37,0.81,0.87,0.64,1.6c-0.6,2.64-0.12,5.24,0.7,7.78
				c2.18,6.77,6.42,12.24,12.61,16.42c2.35,1.59,4.99,2.62,7.91,2.82c5.97,0.41,11.49-0.89,16.52-3.93c2.18-1.32,3.96-2.93,5.3-4.98
				c0.35-0.53,0.72-2.34,3.98-1.21c7.45,2.59-1.03-44.98,21.53-93.75C258.6,256.6,298.42,222.05,297.71,222.24z M219.9,308.13
				c-0.1,4.68-1.31,9.13-4.93,12.74c-1.95,1.94-4.44,3.05-7.05,3.96c-3.45,1.19-7.05,1.57-10.71,1.36c-2.86-0.16-5.19-1.42-7-3.37
				c-3.26-3.53-6.32-5.48-8.32-9.75c-1.36-2.92-2.17-7.75-1.64-11.01c0.75-4.58,2.6-9.03,4.01-13.45c0.19-0.6,0.79-2.87,1.28-3.82
				c1.71-3.84,2.55-4.4,4.84-5.98c1.47-0.85,3.9-1.87,5.64-1.77c2.03,0.12,4.26-0.07,7.33,0.72c3.08,1.21,5.17,2.95,7.69,5.4
				c1.66,1.61,2.94,3.46,3.97,5.47C218.18,294.8,220.04,301.28,219.9,308.13z"/>
		</g>
		<path class="st2" d="M198.97,298.39c4.38,0.07,6.31,2.61,5.68,6.31c-0.47,2.7-1.81,5.15-3.4,7.42c-1.48,2.12-4.31,2.41-6.46,0.8
			c-3.03-2.25-4.6-5.3-5.29-8.74c-0.4-1.98,0.84-3.83,2.94-4.51C194.55,299,196.67,298.28,198.97,298.39z"/>
		<path class="st3" d="M197.75,283.77c0.5,0.64,1,1.28,1.5,1.92c2.27,2.92,3.01,6.28,2.3,9.87c-0.65,3.3-2.93,4.67-6.6,4.52
			c-2.11-0.09-4.08-0.88-5.68-2.32c-0.77-0.69-1.27-1.48-1.56-2.44c-0.38-2.99,0.09-5.8,2.12-8.29c0.86-1.05,1.89-1.87,3.21-2.25
			C194.6,284.32,196.02,283.26,197.75,283.77z"/>
		<path d="M273.2,99.14c-5.5,4.25-9.97,9.82-12.91,16.12c0.05-13.6,4.96-26.66,9.79-39.37c2.63-0.18,4.79,1.93,6.5,3.93
			c18.97,22.24,25.37,55.93,28.41,84.99c2.75,26.33,5.43,52.92-3.83,77.99c-2.47-1.89-1.57-8.74-1.83-11.78
			c-0.4-4.78-0.94-9.54-1.59-14.29c-1.32-9.68-1.84-29.27-3.86-38.83c-4.03-19.06-10.29-27.92-14.54-46.93
			C278.54,127.37,270.85,100.95,273.2,99.14z"/>
		<path class="st2" d="M393.1,147.41c2.46-7.02,4.99-14.03,8.07-20.8c7.61-16.7,18.48-31.73,30.46-45.63
			c9.16,13.91,11.91,25.25,14.77,41.13c-5.08-7.9-10.29-10.68-17.11-17.13c-16.12,19.8-27.41,43.5-32.64,68.49
			c-1.23,5.86-2.12,11.79-3.47,17.63c-2.58,11.15-6.83,21.89-12.52,31.81c-4.64,8.08-11.39,19.95-19.47,24.97
			c0.69-3.42,3.17-6.66,4.25-10.06c2.27-7.16,3.91-14.59,5.96-21.83c4.18-14.76,8.65-29.44,13.4-44.03
			C387.48,163.75,390.24,155.56,393.1,147.41z"/>
		<path class="st2" d="M522.74,305.65c10.79,3.9,19.73,11.8,26.94,20.72c-7.12-1.88-11.47-3.16-18.82-2.69
			c22.02,5.41,26.24,28.37,26.57,47.95c-3.29-7.01-8.93-12.9-15.8-16.48c4.23,7.68,6.4,16.49,6.23,25.26
			c-1.76-5.54-6.3-10.12-11.83-11.92c1.72,21.26,3.29,43.51-5.18,63.09c-0.92-6.24-2.49-12.38-4.7-18.29
			c-2.2,6.52-2.95,18.4-4.02,17.23c-0.55-0.6-3.78,1.7-4.2,2.39c-6.88,11.4-11.92,23.92-14.86,36.9
			c-4.55-11.47-4.76-24.13-4.9-36.47c-11.05,12.93-19.55,28.03-24.88,44.19c-1.12-3.96-2.24-7.92-3.36-11.88
			c-6.38,4.78-9.59,13.44-7.86,21.22c-4.55-10.28-5.95-21.75-10.59-32c-4.64-10.25-14.19-19.72-25.41-18.87
			c-9.45,0.72-17.05,8.76-20.21,17.69c-3.16,8.93-2.76,18.67-2.33,28.14c-2.44-6.59-4.1-13.47-4.93-20.45
			c-0.83,1.13-1.65,2.26-2.48,3.39c-0.06-2.97-0.13-5.93-0.19-8.9c-5.5,5.57-11.34,10.81-17.48,15.66
			c3.08-12.34,6.16-24.68,9.24-37.02c-2.81,1-5.24,3.05-6.71,5.65c-0.02-2.84-0.03-5.68-0.05-8.52c-2.04,2.15-4.09,4.3-6.13,6.45
			c0.62-2.92,1.24-5.84,1.86-8.75c-2.95,2.06-6.25,3.61-9.71,4.58c3.4-15.01,11.06-28.67,18.62-42.07
			c3.99-7.07,7.98-14.14,11.96-21.22c3.7-6.56,8.02-13.65,15.18-15.99c9.2-3.01,18.67,3.06,28.2,4.72
			c17.65,3.09,35.09-10.05,42.2-26.5c3.22-7.45,3.14-21.34,10.18-25.86C502,301.42,513.48,303.01,522.74,305.65z"/>
		<path class="st4" d="M496.28,323.16c0.21-4.15,0.22-12.63,3.83-14.68c1.39-0.79,5.62-0.09,7.22-0.13
			c11.42-0.27,22.54,4.47,31.69,11.31c-6.63-1.6-13.94-0.17-19.48,3.8c14.08,4.56,25.83,15.81,31,29.67
			c-4.68-5.56-12.04-8.75-19.3-8.36c3.44,5.55,5.87,12.74,9.3,18.29c-3.98-2.87-7.69-7.37-12.56-7.98c1.1,19.22,2.62,38.77,3.72,58
			c-2.81-8.12-6.1-14.67-8.41-17.13c-1.22,4.83-2.24,15.48-3.46,20.31c-0.86-0.81-1.73-1.63-2.59-2.44
			c-5.3,12.26-9.9,21.82-13.63,34.06c-1.91-12.58-0.95-21.05-1.36-33.77c-5.69,2.97-9.21,8.82-12.21,14.5
			c-5.65,10.72-10.46,21.89-14.38,33.36c-0.76-4.26-1.51-8.51-2.27-12.77c-4.11,6.41-10.91,13.63-14.79,20.17
			c-3.32-10.18-2.5-21.21-5.82-31.39c-1.63-5.01-5.45-13.66-10.5-15.18c-5.06-1.52-10.19,1.95-15.04-0.14
			c0.21,1.15-1.99,3.58-3.12,3.26c-1.13-0.31-2.8-1.66-3.97-1.7c-1.08-0.04-2.96,1.48-3.83,2.13c-8.7,6.5-12.63,17.86-13.48,28.69
			c-0.48-3.25-0.96-6.5-1.44-9.76c-0.58,1.95-1.51,3.8-2.73,5.44c-0.11-3.87-0.22-7.74-0.33-11.6c-3.4,4.04-6.49,8.34-9.22,12.85
			c1.78-9.67,3.55-19.33,5.33-29c-2.89,1.6-5.63,3.47-8.17,5.59c0.93-3.01,1.47-6.14,1.61-9.28c-1.73,0.41-3.36,1.25-4.7,2.43
			c0.47-1.26,0.49-2.69,0.06-3.96c-1.74,1.21-3.49,2.43-5.23,3.64c3.83-10.19,10.32-19.12,16.73-27.91
			c5.77-7.91,10.08-18.76,15.84-26.66c0.94-1.29,1.93-2.63,3.32-3.43c1.78-1.03,6.57,0.15,8.62,0.32c7.19,0.59,12.6,3.3,19.79,3.83
			C469.73,369.56,494.87,350.44,496.28,323.16z"/>
		<path class="st2" d="M525.48,341.14c-2.83-0.11-5.66-0.22-8.49-0.33c0.97,0.98,1.94,1.95,2.92,2.93c-2.26-0.13-4.53-0.27-6.79-0.4
			c3.18,13.44,3.78,27.5,1.74,41.16c-0.22-5.96-1.56-11.89-3.92-17.37c-0.55,15.01-7.78,29.66-19.36,39.23
			c1.14-1.63,1.96-3.49,2.4-5.43c-5.63,7.31-12.46,13.7-20.14,18.82c8.04-9.89,15.62-20.85,17.57-33.45
			c0.76,1.74,2.16,3.19,3.88,3.99c1.47-1.85,2.39-4.13,2.63-6.48c1.04,0.92,2.08,1.85,3.11,2.77c3.77-8.43,5.17-17.9,3.98-27.06
			c2.11,0.61,4.07,1.71,5.68,3.21c-0.92-4.69-1.36-9.48-1.31-14.26c0.88-0.07,1.75-0.15,2.63-0.22c-2.07-3.05-8.03-11.83-3.11-13.3
			C514.58,333.27,520.56,340.95,525.48,341.14z"/>
		<path class="st2" d="M392.96,410.35c2.37,0.24,3.4-3.12,5.1-4.67c0.12-0.11,0.25-0.23,0.41-0.26c0.52-0.1,0.74,0.67,0.62,1.18
			c-0.13,0.52-0.33,1.16,0.09,1.5c1.79-1.49,3.58-2.98,5.37-4.46c-3.47,9.7-7.65,19.44-7.44,29.95c4.19-12.5,7.2-24.5,12.42-36.13
			c-2.23,0.51-4.29,1.78-5.74,3.54c0.61-1.85,1.21-3.71,1.82-5.56c-2.16-0.29-4.28,0.77-5.59,2.46c-0.03-0.41-0.06-1.14-0.05-1.44
			C394.51,398.66,396.47,407.14,392.96,410.35z"/>
		<path class="st2" d="M413.81,420.59c1.94-3.02,4.23-5.82,6.82-8.32c-0.27,1.59-0.55,3.17-0.82,4.76c2.87-5.5,9.3-8.72,15.49-8.37
			c6.19,0.34,11.97,3.96,15.56,9.02s1.23,11.5,4.9,17.61c-0.17-8.91,0.3-17.83,1.39-26.68c0.91,2.11,2.76,3.8,4.95,4.52
			c1.21-3.9,2.42-7.81,3.63-11.71c1.28,2.8,2.56,5.6,3.84,8.4c-0.44-5.49-1.57-10.92-3.35-16.13c-2.77,4.63-6.02,8.97-9.69,12.92
			c-1.16-2.13-2.33-4.26-3.49-6.39c-0.66,1.33-1.9,2.35-3.32,2.74c-0.19-1.78-1.24-3.45-2.76-4.39c-0.37,2.22-0.82,4.59-2.45,6.15
			c-1.63,1.55-4.83,1.56-5.71-0.51c-0.52-1.23-0.25-3.02-1.47-3.57c-0.53-0.24-1.14-0.11-1.7,0.03c-6.79,1.7-12.48,4.92-18.55,8.17
			c-0.28-1.31-0.81-2.38-0.4-3.81C415.02,410.06,414.05,415.31,413.81,420.59z"/>
		<g>
			<path class="st5" d="M298.99,180.14c-0.55-6.69-4.05-14.34-5.3-20.94c-1.38-7.3-3.89-14.33-6.18-21.39
				c-4.76-14.66-8.61-29.62-11.53-44.76c-4.37,0.5-8.35,3.53-10,7.61c2.04-5.56,4.37-11.02,6.98-16.33
				c4.92,4.77,8.05,11.05,10.76,17.34c13.36,31.01,18.66,64.92,20.82,98.62c0.54,8.46,1.26,18.2-2.25,26.16
				C302.18,203.76,300.27,195.75,298.99,180.14z"/>
			<path class="st5" d="M386.26,184.27c1.02-4.82,1.77-9.69,2.77-14.51c6.02-28.91,21.26-55.13,39.05-78.69
				c1-1.32,2.35-2.78,3.99-2.52c3.53,6.78,6.31,13.95,8.29,21.33c-2.61-3.23-5.62-6.13-8.94-8.61c-0.56-0.42-1.17-0.84-1.87-0.91
				c-1.11-0.1-2.09,0.71-2.84,1.54c-1.45,1.6-2.62,3.43-3.78,5.24c-3.72,5.82-7.44,11.64-11.16,17.47
				c-3.69,5.77-7.39,11.56-10.2,17.81c-3.2,7.1-5.2,14.66-7.14,22.2c-2.65,10.33-5.19,20.68-7.63,31.06
				c-0.9,3.83-1.79,7.69-3.24,11.35c-3.35,8.48-9.04,17.05-13.85,24.72c-0.02-3.2,2.97-7.72,4.27-10.8
				c1.69-4.01,3.33-8.05,4.87-12.12C381.86,200.83,384.48,192.65,386.26,184.27z"/>
			<path class="st5" d="M448.78,452.03c-0.59-4.83-0.97-9.8-3.08-14.18s-6.45-8.1-11.3-7.84c-1.66,0.09-3.26,0.63-4.83,1.16
				c-2.3,0.78-4.6,1.57-6.91,2.35c-2.61,0.89-5.3,1.82-7.32,3.7c-4.1,3.81-4.21,10.18-3.69,15.75c1.22,13.09,4.26,26.1,3.54,39.22
				c-0.63,11.44-4.17,22.71-10.21,32.45c-8.21,13.25-18.65,22.58-24.06,37.2c-2.54,6.86-5.92,17.17-6.17,24.48
				c-0.66,18.94,2.25,36.26,7.95,54.34c0.37,1.18,0.84,2.46,1.9,3.11c0.72,0.44,1.6,0.5,2.44,0.55c22.11,1.39,44.22,2.78,66.33,4.18
				c-1.2-8.65,1.51-17.31,3.8-25.74c6.23-22.98,11.61-44.77,11.86-68.57c0.21-20.36-1.01-51.37-10.11-65.98
				C451.92,476.95,450.38,465.17,448.78,452.03z"/>
			<path class="st5" d="M308.99,664.2c-3.33-21.62-7.85-43.06-13.53-64.18c-0.19,3.64-0.37,7.27-0.56,10.91
				c-18.19-22.49-39.7-42.29-63.61-58.57c-2.85-1.94-6.05-3.91-9.48-3.56c-1.75-6.58-3.51-13.16-5.26-19.74
				c-0.4-1.52-0.82-3.06-1.68-4.38c-1.11-1.7-2.86-2.86-4.47-4.12c-9.53-7.45-14.72-19.14-18.08-30.76
				c-3.36-11.62-5.31-23.71-10.13-34.8c-0.96-2.21-2.06-4.41-3.74-6.13c-1.83-1.87-4.22-3.06-6.26-4.69
				c-7.9-6.31-9.15-17.64-9.78-27.73c-5.88,0.38-11.75,0.77-17.63,1.15c-7.65,0.5-17.45-1.43-22.96,3.55
				c-2.75,1.58-6.48,3.72-8.62,4.79c-8.85,6.54-13.28,17.74-20.04,26.42c5.2,0.12,10.34,1.91,14.5,5.03
				c-7.24,16.18-11.39,33.74-12.16,51.45c4.01-14.22,12.02-27.28,22.87-37.31c2.62-2.43,5.57-4.75,9.08-5.42
				c3.51-0.67,10.7,0.21,11.92,3.57c-1.04-5.02,3.1-6.87,4.47-11.81c1.08-3.91-2.48-12.02-1.08-17.53c2.55-3.12,5.1-6.24,7.65-9.36
				c1.36-1.66,2.99-3.47,5.14-3.54c2.91-0.09,4.86,3.06,5.39,5.93c0.53,2.87,0.37,6,1.93,8.46c1.83,2.87,5.42,3.95,8.25,5.84
				c4.4,2.93,6.98,7.89,8.97,12.79c5.39,13.24,7.83,27.67,7.1,41.94c1-2.23,2-4.46,3-6.69c2.69,8.83,3.25,18.3,1.63,27.38
				c0.93-2.01,2.17-5.43,3.1-7.45c8.53,1.56,13.09,11.95,15.71,20.21c2.62,8.26,4.65,17.5,11.46,22.85
				c2.63,2.07,5.78,3.36,8.55,5.24c4.71,3.18,8.15,7.88,11.48,12.48c5.32,7.33,10.7,14.78,13.76,23.3
				c2.81,7.83,3.55,16.23,4.25,24.53c1.34,15.68,2.68,31.35,4.02,47.03c0.13,1.55,0.3,3.19,1.23,4.44c1.2,1.61,3.34,2.15,5.3,2.58
				c8.42,1.84,17.3,3.56,25.94,2.36c3.53-0.49,9.4-1.5,11.97-4.27C311.63,673.14,309.66,668.54,308.99,664.2z"/>
			<path class="st5" d="M287.45,235.96c-13.2,3.18-34.22,22.76-36.04,38.77c-1.3,11.45-5.78,40.31-8.55,51.5
				c-6.15,24.91,12.37,61.1,20.1,80.67c4.78,12.11,8.85,32.67,8.65,45.69c-0.14,9.65,1.21,22.63-6.88,28.38
				c23.33-4.15,43.15-13.99,62.2-28.09c21.01-15.56,39.31-35.9,51.24-59.17c5.54-10.8,8.98-23.91,15.96-33.84
				c6.99-9.93,14.52-17.22,27.03-12.88c4.68,1.63,8.01,2.39,12.96,2.32c8.86-0.13-1.18-9.05-9.38-12.42
				c-28.69-11.8-23.39-42.33-24.18-50.07c-0.79-7.74,32.66-44.66,25.84-48.41c-8.28-4.54-17.43,0.12-26.85,0.76
				c-23.39,1.59-35.7,0.51-48.62-15.31c-5.62-6.88-9.68-16.12-8.73-27.67c-6.25,3.52-7.78,5.13-10.85,8.73
				c-4.38,5.13-11.44,8.23-16.34,12.86C305.37,226.91,300.51,232.81,287.45,235.96z"/>
			<path class="st5" d="M433.92,232.24c4.17-2.38,12.32-4.96,17.03-5.93c10.84-2.23,29.54-0.71,37.35,7.13
				c7.57,7.59,17.35,16.43,14.79,37.24c-6.6-5.96-31.5-12.82-41.22-13.16c-7.79-0.28-15.34,0.58-22.99,2.13
				c-5.52,1.12-11.86,3.97-16.17,7.6c-2.79,2.35-4.75,5.54-6.26,8.85c-6.04,13.32-4.89,29.65,2.95,42c2.08,3.27,4.71,6.36,8.22,8
				c3.01,1.41,5.6,2.92,8.84,3.64c10.95,2.43,25.59,0.86,45.12-4.97c-2.35,13.9-16.6,27.07-30.65,28.23
				c-11.2,0.93-24.32-2.65-34.05-8.26c-8.05-4.64-15.68-11.94-20.85-19.66c-3.55-5.31-5.61-11.46-7.31-17.62
				c-2.2-7.98-3.87-16.23-3.34-24.5c0.53-8.26-6.91-44.27,1.34-43.54C401.11,240.72,425.48,237.07,433.92,232.24z"/>
			<path class="st5" d="M168.6,278.07c-0.26-2.83,0.75-6.83,0.76-9.67c0.01-4.47,1.46-8.48,4.13-12.22
				c5.38-7.55,14.18-15.86,23.62-16.98c6.18-0.73,17.74-0.53,24-0.09c19.47,6.48,50.18-3.79,50.18-3.79s-29.17,14.74-30.96,53.08
				c-0.18,9.98-3.28,12.81-3.82,17.77c-0.54,5.01-0.28,6.86-0.87,11.87c-0.32,2.67-0.37,5.38-0.6,8.07
				c-0.21,2.4-0.41,4.81-0.56,7.22c-0.09,1.51-1.24,2.57-1.8,3.88c-1.07,2.51-2.38,4.93-3.66,7.36c-2.15,4.09-5.44,7.05-9.94,8.86
				c-4.37,1.75-8.7,1.76-12.86-0.57c-1.8-1.01-3.21-2.45-4.63-3.85c-3.41-3.37-5.52-7.34-6.42-11.86c-0.37-1.85-0.06-3.29,1.96-3.3
				c5.61-0.05,10.87,0.66,16.1-1.38c4.55-1.78,7.83-4.65,10.02-8.74c2.02-3.8,3.76-7.67,4.16-11.9c0.4-4.18,0.37-8.38-0.46-12.53
				c-1.52-7.62-4.76-14.59-10.19-20.53c-4.37-4.77-9.71-8.79-16.6-9.4c-9.13-0.81-18.79-1.79-22.37,12.14
				C174.76,282.21,172.63,280.25,168.6,278.07z"/>
			<path class="st5" d="M284.47,276.7c-2.98,4.93-5.05,10.34-7.66,15.47c-2.33,4.59-5.1,8.94-7.52,13.48
				c-5.05,9.45-8.62,19.69-10.53,30.23c6.9-3.81,11.44-10.69,17-16.28c10.13-10.2,23.72-16.14,35.15-24.88
				c4.15-3.17,8.02-6.72,12.44-9.5c4.36-2.74,9.16-4.69,13.79-6.92c5.24-2.53,10.29-5.44,15.1-8.71c1.38-0.94,2.78-1.95,3.67-3.36
				c1.97-3.14,0.91-7.23-0.3-10.73c-0.63-1.82-2.02-3.69-3.47-4.95c-1.51-1.32-2.92-1.77-4.91-2.04
				c-11.87-1.6-25.22,1.69-36.22,6.26C300.24,259.24,290.54,266.65,284.47,276.7z"/>
		</g>
		<path class="st2" d="M305.3,253.25c-3.6,1.83-6.55,4.69-9.34,7.61c-25.2,26.33-41.83,60.75-46.79,96.86
			c9.11-15.9,23.81-27.69,38.16-39.08c26.17-20.78,52.86-41.85,83.98-54.02c-7.82-0.22-13.58-7.11-18.23-13.39
			c1.47,3.1,2.97,6.57,1.96,9.85c-1.45,4.69-7.05,6.42-11.83,7.57c-15.26,3.69-25.45,11.5-38.22,20.65
			c-16.06,11.51-31.23,29.32-44.7,43.78c9.34-23.46,19.69-46.44,36.11-63.52c5.13-5.34,11.1-10.58,18.44-11.66
			c3.65-0.53,7.47,0.01,11-1.06c3.24-0.98,6.86-4.47,5.46-8.04C323,250.17,312.92,249.37,305.3,253.25z"/>
		<g>
			<path class="st6" d="M307.7,376.33c-2.03,0.34-12.02,2.93-15.93,1.82s-21.66-10.76-23.05-11.6c-1.4-0.84-2.65-1.68-3.77-2.1
				c-1.12-0.42-4.89,1.12-4.19,4.47c0.7,3.35,2.51,9.78,4.05,12.16c1.54,2.38,7.82,11.88,9.08,13.27
				c1.26,1.4,9.22,10.62,10.76,11.74c1.54,1.12,9.92,6.85,11.46,7.68c1.54,0.84,8.8,5.59,15.51,0.84c6.71-4.75,7.68-5.03,10.48-9.78
				c2.79-4.75,3.77-5.73,6.01-9.08s8.52-10.48,10.06-12.16c1.54-1.68,6.01-8.38,8.1-11.6c2.1-3.21,4.75-5.03,4.89-7.82
				c0.14-2.79-0.42-5.45-4.33-4.19s-10.9,6.57-14.11,7.82S315.24,375.07,307.7,376.33z"/>
			<path class="st7" d="M275.26,375.09c0.2,3.89,0.31,7.32,1.44,11.05c-1.53-2.14-3.06-4.28-4.58-6.42
				c-0.37-0.52-0.74-1.04-1.02-1.6c-0.28-0.55-0.46-1.15-0.63-1.74c-0.22-0.78-0.9-2.25-0.36-2.92
				C271.78,374.1,273.42,375.17,275.26,375.09z"/>
			<path class="st7" d="M278.97,377.57c0,0.16,2.2,10.37,2.04,14.25c2.15,3.56,3.14,4.45,3.14,4.45s-0.63-12.52-0.21-15.98
				C280.86,378.82,278.97,377.57,278.97,377.57z"/>
			<path class="st7" d="M288.56,381.92c0,0,0.42,9.27,0.63,10.69c0.21,1.41,1.31,9.12,1.31,9.12c1.73,0.84,7.23,4.24,7.23,4.4
				c0.79-5.29,1.1-22.58,1.1-22.58C296.31,383.91,289.34,383.17,288.56,381.92z"/>
			<path class="st7" d="M303.96,382.91c0,0,1.05,8.38,0.94,9.74c-0.1,1.36-1,11.47-1.1,12.26c-0.1,0.79,0.52,3.77,0.42,3.93
				c-0.1,0.16,1.05,0.84,2.04,0.47c1-0.37,6.44-4.51,6.44-4.51c0.01-1.31-0.52-1.21-0.52-3.44c0.63-2.2,0.21-8.03,0.26-8.87
				c0.05-0.84-0.05-8.02,0.47-9.01s0.37-2.41,0.37-2.41S306,383.07,303.96,382.91z"/>
			<path class="st7" d="M319,379.66c0,0-0.47,9.33-0.42,10.95s0.05,7.65,0.05,7.65c1.83-2.2,5.11-7.17,5.9-7.85
				c0.79-0.68,2.06-2.63,2.06-2.63c0-2.1,1.83-11.21,1.83-11.21S319.99,379.71,319,379.66z"/>
			<polygon class="st7" points="339.59,371.54 333.04,375.3 332.41,381.47 			"/>
		</g>
	</g>
</g>
</svg>
