<?xml version="1.0" encoding="utf-8"?>
<!-- Generator: Adobe Illustrator 26.0.3, SVG Export Plug-In . SVG Version: 6.00 Build 0)  -->
<svg version="1.1" id="Calque_1" xmlns="http://www.w3.org/2000/svg" xmlns:xlink="http://www.w3.org/1999/xlink" x="0px" y="0px"
	 viewBox="0 0 640 640" style="enable-background:new 0 0 640 640;" xml:space="preserve">
<style type="text/css">
	.st0{clip-path:url(#SVGID_00000075157520920450033570000000497360534145979815_);}
	.st1{opacity:0.49;fill:#FFFFFF;}
	.st2{fill:#324D52;}
	.st3{fill:#020303;}
	.st4{fill:#FFFFFF;}
	.st5{fill:#426266;}
</style>
<g>
	<defs>
		<rect id="SVGID_1_" x="0.08" y="-0.15" width="639.83" height="639.83"/>
	</defs>
	<clipPath id="SVGID_00000042719179773422362320000016733191898067942052_">
		<use xlink:href="#SVGID_1_"  style="overflow:visible;"/>
	</clipPath>
	<g style="clip-path:url(#SVGID_00000042719179773422362320000016733191898067942052_);">
		<g>
			<path d="M506.78,472.15c12.86,10.05,23.05,22.16,33,34.2c20.17,24.4,40.37,49.93,47.78,77.74c4.25,15.96,3.05,34.09-11.17,43.14
				c-3.07,1.95-6.81,3.43-10.94,3.26c-3.5-0.14-6.97-1.42-10.32-2.68c-7.52-2.83-15.37-5.86-20.81-11.19
				c-3.92-3.84-6.22-8.53-8.3-13.13c-8.66-19.13-15.01-38.67-21.38-58.17c-2.65-8.13-5.37-16.38-10.49-23.92
				c-2.92-4.3-6.57-8.29-9.64-12.54c-6.61-9.14-10.36-19.22-14.04-29.17c-2.25-6.07-4.49-12.14-6.74-18.21
				c-2.64-7.12-4.07-9.59,5.8-7.63C483.18,456.56,496.27,463.94,506.78,472.15z M482.62,463.42c-4.35-2.32-11.36-6.81-12.47-0.59
				c-0.81,4.52,4.1,11.41,5.11,16.2c0.49,2.3,0.82,4.66,2.03,6.85c1.1,1.99,2.87,3.73,4.23,5.63c3.25,4.56,4.04,9.91,7.51,14.37
				c2.96,3.81,7.6,6.63,10.7,10.38c4.22,5.11,5.08,11.26,6.38,17.09c1.68,7.48,4.31,14.89,6.95,22.28c2.99,8.4,5.98,16.8,8.97,25.19
				c2.68,7.53,5.41,15.15,10.13,22.16c3.97,5.9,9.42,11.34,16.21,15.12c6.79,3.78,14.99,5.78,22.36,4.77
				c1.74-0.24,3.44-0.65,4.91-1.37c3-1.47,4.8-4.12,6.09-6.84c5.13-10.84,3.57-23.9-1.34-35.95c-4.91-12.05-12.96-23.35-20.93-34.52
				c-5.69-7.97-11.38-15.94-17.07-23.91c-7.49-10.5-15.03-21.05-24.38-30.59C507.96,479.46,495.9,470.52,482.62,463.42z"/>
			<path d="M512.13,505.54c3.97,3.76,8.05,7.5,11.13,11.75c3.48,4.8,5.55,10.07,7.59,15.28c1.65,4.22,3.32,8.71,2.06,12.69
				c5.29,2.59,7.12,8.1,8.59,12.9c2.48,8.08,5.61,16.1,9.38,23.97c0.83,1.74,1.7,3.49,2.89,5.12c1.67,2.29,3.92,4.3,5.47,6.64
				c4.99,7.54,2.17,17.6,9.85,23.52c-6.77-10.33-2.91-23.36-11.82-32.65c-2.78-2.9-6.87-5.61-7.05-9.08
				c-0.09-1.62,0.76-3.13,0.47-4.76c-0.24-1.35-1.22-2.59-2.04-3.84c-2.47-3.75-3.65-7.85-5.11-11.85
				c-1.31-3.58-2.88-7.12-4.44-10.66c-0.61-1.39-1.23-2.78-1.84-4.17c-3.64-8.24-7.28-16.47-10.91-24.71
				c-0.43-0.98-0.88-1.98-1.62-2.85c-0.89-1.05-2.15-1.84-3.34-2.66c-9.77-6.82-15.26-16.84-23.44-24.98
				c-3.53-3.51-7.56-6.67-11.57-9.81c-3.27-2.56-6.58-5.47-10.04-7.68C486.26,481.06,499.62,493.69,512.13,505.54z"/>
			<path d="M494.2,496.4c0.46,1.03,0.93,2.2,0.5,3.24c-0.32,0.79-1.08,1.3-1.69,1.89c-1.36,1.33-2.04,3.33-1.78,5.21
				c0.69-1.82,1.98-3.4,3.64-4.43c2.09,2.05,3.45,4.81,3.81,7.71c-0.53-3.16-1.06-6.31-1.58-9.47c-0.3-1.82-0.63-3.7-1.65-5.25
				c-0.79-1.2-1.88-2.46-3.03-3.23C492.78,493.55,493.56,495,494.2,496.4z"/>
			<path d="M520.58,523.82c2.01,3.8,3.63,8.34,1.97,12.31c-1.71,4.09-6.52,6.54-7.37,10.89c-0.29,1.47-0.07,2.99,0.15,4.48
				c0.55,3.68,1.1,7.36,1.64,11.04c-0.2-3.6-0.4-7.2-0.6-10.8c-0.09-1.54-0.15-3.17,0.58-4.52c1.31-2.42,4.73-3.22,5.77-5.77
				c0.17-0.43,0.3-0.92,0.7-1.16c0.29-0.17,0.66-0.15,1-0.12c1.29,0.11,2.58,0.23,3.87,0.34c-0.98-1.3-2.41-2.26-3.98-2.69
				c1.93-2.5,2.42-5.93,1.74-9.01c-0.68-3.09-2.42-5.86-4.57-8.18c-2.17-2.34-4.86-4.58-5.4-7.9
				C516.24,516.69,518.77,520.39,520.58,523.82z"/>
			<path d="M540.19,577.79c-0.3,0.98-0.68,1.97-0.66,2.99c0.01,0.59,0.16,1.17,0.3,1.75c0.41,1.66,0.82,3.32,1.24,4.98
				c-2.63-0.68-5.38,1.3-6.4,3.82c-1.02,2.52-0.68,5.37-0.07,8.01c0.6,2.57,1.44,5.08,2.52,7.48c-0.71-3.96-1.11-7.99-1.18-12.01
				c-0.01-0.54,0-1.14,0.36-1.55c0.37-0.43,0.99-0.52,1.55-0.58c4.92-0.47,10.72,0.41,13.23,4.67c1.9,3.22,1.26,7.26,0.86,10.98
				c-0.4,3.72-0.28,8.02,2.55,10.47c-3.43-6.9,1.78-15.61-1.08-22.77c-1.91-4.77-7.58-7.67-12.56-6.43
				c1.09-0.52,2.19-1.03,3.28-1.55c-0.89-1.84-1.8-3.71-2.13-5.72c-0.54-3.29,0.48-6.74-0.37-9.97c-0.49-1.86-1.69-3.8-1.21-5.66
				C542.26,569.45,541.13,574.78,540.19,577.79z"/>
			<path d="M509.39,481.66c-1.35,0.21-2.7,0.42-4.05,0.63c-0.82,0.13-1.65,0.26-2.48,0.27c-2.08,0.05-4.44-0.5-6.16-1.6
				C500.82,480.25,505.33,482.29,509.39,481.66z"/>
			<path d="M527.94,505.39c0.88,0.74,1.53,1.71,2.17,2.66c4.58,6.73,9.8,13.03,15.56,18.79c-6.19-2.35-11.43-7.1-14.36-13.03
				c-1.22-2.48-2.31-5.41-4.87-6.46c-0.7-0.29-1.48-0.41-2.12-0.81c-0.64-0.4-1.12-1.24-0.77-1.92c-0.64,1.25-6.32-1.16-7.09-1.67
				C519.39,502.29,525.55,503.39,527.94,505.39z"/>
			<path d="M553.04,557.1c1.14-0.13,2.27,0.21,3.41,0.37c2.82,0.41,5.78-0.28,8.14-1.88c-1.62,1.19-3.24,2.38-4.86,3.58
				c-0.31,0.23-0.64,0.48-0.76,0.84c-0.31,0.93,0.8,1.62,1.49,2.31c2.65,2.6-0.25,7.28,1.11,10.73c0.82,2.07,3,3.23,5.03,4.14
				c3.25,1.45,6.61,2.72,9.56,4.7c2.96,1.98,5.54,4.78,6.4,8.23c-3.84-5.32-9.73-9.12-16.16-10.43c-1.79-0.37-3.7-0.58-5.15-1.7
				c-2.04-1.57-2.53-4.43-2.52-7.01c0.01-2.57,0.36-5.25-0.58-7.65c-0.94-2.4-3.8-4.3-6.09-3.12c-1.15,0.6-4.92,1.76-3.78-1.07
				C548.11,559.56,552.72,557.13,553.04,557.1z"/>
			<path class="st1" d="M529.13,549.52c-0.62-1.29-0.15-2.81-0.29-4.23c-0.14-1.42-1.65-2.96-2.81-2.14
				c-0.53,0.37-0.7,1.07-0.92,1.68c-0.86,2.34-3.18,4.06-5.67,4.21c2.39,3.52,3.22,8.06,2.23,12.19c-0.2,0.86-0.48,1.71-0.5,2.59
				c-0.02,1.27,0.5,2.47,0.98,3.65c3.79,9.46,4.75,20.19,10.52,28.59c-1.18-2.24-1.97-4.76-1.79-7.29s1.44-5.06,3.62-6.35
				c0.5-0.3,1.05-0.54,1.39-1.01c0.68-0.96,0.14-2.26-0.27-3.35c-1.51-4.03-0.82-8.8,1.77-12.24c2.38-3.16,1.23-5.74-0.34-9.09
				C535.25,552.91,530.66,552.72,529.13,549.52z"/>
			<path class="st1" d="M501.54,504.67c0.17,0.54,0.34,1.1,0.28,1.66c-0.09,0.77-0.6,1.42-0.84,2.16c-0.64,2.04,0.91,4.03,2.13,5.79
				c5.89,8.46,5.46,19.79,9.62,29.23c-0.46-2.06,0.65-4.17,2.08-5.73c1.43-1.56,3.2-2.8,4.51-4.46c0.23-0.29,0.45-0.6,0.55-0.95
				c0.15-0.51,0.05-1.06-0.06-1.57c-0.42-1.89-1.06-3.73-1.9-5.48c-1-2.07-2.28-4.01-3.17-6.13c-0.89-2.13-1.35-4.54-0.63-6.73
				c-3.29-3.27-6.59-6.54-9.88-9.81c-0.64-0.64-3.79-4.48-4.59-3.85C499.07,499.23,501.27,503.84,501.54,504.67z"/>
			<path class="st1" d="M475.24,474.79c0.7,1.98,1.67,3.88,2.16,5.92c0.18,0.77,0.31,1.58,0.68,2.28c0.32,0.59,0.8,1.06,1.26,1.54
				c4.44,4.63,7.63,10.45,9.15,16.69c0.53-1.45,1.07-2.89,1.6-4.34c0.23-0.62,0.46-1.25,0.59-1.9c0.27-1.38,0.05-2.83-0.49-4.12
				c-0.89-2.09-2.58-3.71-4.23-5.27c-1.34-1.27-2.68-2.54-4.02-3.81c-0.66-0.62-1.32-1.25-1.83-2c-0.89-1.31-1.25-2.9-1.77-4.41
				c-0.67-1.93-1.88-5.19-3.67-6.28C473.94,470.78,474.66,473.16,475.24,474.79z"/>
			<path class="st1" d="M490.26,470.73c2.16,1.32,4.32,2.64,6.48,3.96c1.09,0.67,2.19,1.34,3.19,2.14c-1.67-0.25-3.4-0.14-5.02,0.35
				c-0.17,0.05-0.35,0.11-0.54,0.08c-0.24-0.03-0.43-0.19-0.61-0.35c-3.28-2.81-6.78-5.37-10.44-7.66
				c-1.77-1.11-1.87-2.69,0.47-2.01C486.06,467.91,488.26,469.5,490.26,470.73z"/>
			<path class="st1" d="M510.03,496.03c-2.78-3.53-4.73-7.91-8.53-10.3c2.43,0.07,4.86,0.26,7.27,0.59c0.65,0.09,1.32,0.19,1.9,0.49
				c1.34,0.68,1.99,2.19,2.83,3.44c2.79,4.19,8.25,6.02,10.96,10.25c-0.46-0.72-3.77-1.02-4.56-1.14c-1.48-0.22-2.98-0.31-4.48-0.25
				C512.67,499.23,511.76,498.23,510.03,496.03z"/>
			<path class="st1" d="M530.8,516.18c1.39,2.5,2.98,4.87,4.56,7.25c0.58,0.87,1.17,1.75,1.96,2.44c1.48,1.29,3.49,1.77,5.17,2.8
				c1.03,0.64,1.92,1.48,2.8,2.31c1.97,1.87,3.94,3.73,5.9,5.6c1.74,1.65,3.48,3.3,4.9,5.23c2.73,3.71,4.23,8.38,7.74,11.36
				c-1.95,1.55-4.62,2.15-7.04,1.57c-1.27-0.3-2.46-0.9-3.73-1.22c-2.58-0.65-5.45-0.02-7.52,1.64c-1.06-2.17-2.12-4.33-3.19-6.5
				c-0.16-0.33-0.33-0.67-0.36-1.04c-0.04-0.47,0.15-0.92,0.32-1.36c0.71-1.84,1.21-3.77,1.47-5.72c-1.1,0.43-2.28-0.34-3.2-1.08
				c-1.08-0.87-2.15-1.77-3.03-2.85c-1.03-1.28-1.77-2.77-2.44-4.26c-1.65-3.68-3-7.48-4.42-11.26c-1.41-3.77-3.5-7.43-4.77-11.2
				C528.28,510.81,529.65,514.11,530.8,516.18z"/>
			<path class="st1" d="M563.72,564.55c0.02,1.03-0.3,2.02-0.53,3.02c-0.24,1.02-0.39,2.06-0.45,3.11
				c-0.03,0.45-0.03,0.92,0.15,1.34c0.33,0.78,1.2,1.16,1.99,1.48c4.62,1.89,9.04,4.27,13.16,7.09c-2.41-3.86-4.47-7.94-6.14-12.17
				c-0.25-0.63-0.5-1.29-1-1.76c-0.49-0.47-1.31-0.67-1.86-0.28c0.76-2.06-0.92-4.15-2.47-5.71c-0.88-0.89-3.38-2.82-4.31-0.84
				C561.64,561.15,563.69,563.09,563.72,564.55z"/>
			<path class="st1" d="M556.39,567.67c0.26,1.09,0.22,2.22,0.24,3.33c0.06,3.28,0.78,6.77,3.09,9.1c3.19,3.2,8.35,3.28,12.26,5.56
				c1.61,0.94,2.97,2.23,4.32,3.51c0.4,0.38,0.8,0.76,1.07,1.24c0.24,0.42,0.36,0.89,0.53,1.33c0.69,1.82,2.06,3.29,3.11,4.93
				c1.05,1.64,1.78,3.73,1.02,5.52c-0.97-0.76-2.21-1.15-3.44-1.09c1.04,1.74,1.89,3.6,2.52,5.53c-0.63-0.1-1.27-0.19-1.9-0.29
				c-0.15,1.91-0.3,3.83-0.45,5.74c-0.06,0.75-0.12,1.53-0.44,2.22c-0.94,2.07-3.7,2.64-5.06,4.46c-3.43-2.5-5.53-6.51-6.49-10.65
				c-0.96-4.14-0.9-8.44-0.72-12.68c0.04-0.92,0.08-1.86-0.13-2.75c-0.38-1.59-1.49-2.87-2.57-4.09
				c-3.44-3.89-6.88-7.77-10.33-11.66c-0.29-0.33-0.6-0.69-0.65-1.13c-0.05-0.44,0.17-0.85,0.36-1.25c0.87-1.88,1.04-4.03,0.59-6.04
				c-0.49-2.22-2.09-3.5-2.93-5.34C552.84,562.15,555.88,565.54,556.39,567.67z"/>
			<path class="st1" d="M544.46,585.04c0.01,0.34,0.03,0.7,0.19,1.01c0.24,0.44,0.73,0.67,1.19,0.89c1.53,0.71,2.99,1.55,4.38,2.5
				c1.69,1.16,3.28,2.51,4.39,4.23c2.01,3.12,2.19,7.09,1.8,10.78c-0.39,3.69-1.3,7.35-1.23,11.07c0.01,0.51,0.05,1.05,0.32,1.48
				c0.24,0.38,0.63,0.63,1.02,0.85c3.14,1.82,6.78,2.77,10.41,2.71c-3.17-3.61-5.13-8.25-5.52-13.03c-0.21-2.55,0.02-5.15-0.55-7.64
				c-0.59-2.58-2.05-4.95-4.09-6.64c-2.54-2.11-6.03-3.29-7.61-6.19c-0.61-1.11-0.86-2.37-1.15-3.61c-1.04-4.51-2.58-8.9-4.57-13.08
				C543.84,575.08,544.88,580.31,544.46,585.04z"/>
			<path d="M555.51,503.66c2.51,2,4.98,4.07,7.21,6.37c2.53,2.61,4.74,5.51,7.27,8.12c6.74,6.96,15.45,11.59,23.45,17.05
				c5.31,3.63,10.49,7.82,13.49,13.5c-4.46-7.35-14.04-9.41-21.01-14.44c-2.39-1.73-4.62-3.89-7.49-4.56
				c-0.85-0.2-1.74-0.26-2.57-0.54c-1.56-0.54-2.73-1.83-3.83-3.06c-9.33-10.52-18.71-21.16-29.95-29.63
				c-8.6-6.48-18.15-11.58-27.9-16.14c-1.37-0.64-2.77-1.29-3.82-2.38c-1.09-1.13-1.77-2.52-3.07-3.43
				C524.57,481.93,540.85,491.94,555.51,503.66z"/>
			<path d="M556.06,469.15c1.15,0.43,2.37,0.92,3.03,1.95c0.83,1.29,0.51,2.96,0.54,4.49c0.07,3.1,1.7,5.92,3.27,8.59
				c1.02,1.72,2.03,3.44,3.05,5.15c1.92-0.39,3.46-2.19,3.55-4.15c1.92,0.25,4.08,0.43,5.61-0.76c1.53-1.2,1.93-3.42,3.42-4.67
				c2.53-2.12,6.32-0.29,9.02,1.61c7.22,5.07,14.16,10.54,20.8,16.36c3.12,2.73,6.3,5.76,7.44,9.75c0.67,2.33,0.57,4.8,0.92,7.2
				c0.82,5.64,4.02,10.62,5.87,16.02c2.46,7.19,2.44,15.21-0.07,22.38c-1.05,3-2.6,5.96-5.16,7.86c-5.37,3.98-12.89,2.01-19.22-0.11
				c-8.39-2.81-16.77-5.62-25.16-8.44c-1.48-0.5-3.02-1.03-4.15-2.11c-1.13-1.08-1.72-2.9-0.94-4.25
				c11.04,4.81,22.52,8.63,34.24,11.4c4.98,1.18,10.94,1.9,14.55-1.72c3.57-3.58,2.89-9.46,1.83-14.41
				c-1.84-8.62-4.04-17.17-6.6-25.61c-0.57-1.87-1.15-3.73-1.95-5.51c-2.86-6.34-8.27-11.11-13.53-15.67
				c-3.3-2.87-6.61-5.73-9.91-8.6c-1.67-1.45-3.69-2.99-5.85-2.53c-1.11,0.24-2.03,0.98-2.9,1.69c-3.95,3.23-7.91,6.46-11.86,9.69
				c-1.73-0.51-3.09-2.11-3.31-3.89c-1.03,1.06-2.06,2.13-3.09,3.19c-0.95-7.05-2.34-14.88-8.07-19.1c-2.52-1.86-5.6-2.76-8.6-3.69
				c-23.03-7.14-45.53-17.72-69.62-18.6c-3.72-0.14-9.25,0.19-12.28-2.25c1.96-3.37,12.81-0.55,16.06-0.18
				c6.62,0.76,13.22,1.71,19.78,2.86c13,2.28,25.86,5.32,38.51,9.1C542.29,464.28,549.22,466.6,556.06,469.15z"/>
			<path d="M531.77,481.34c-0.77-1.19,0.34-2.77,1.61-3.42c1.27-0.65,2.79-0.92,3.74-1.98c0.22-0.25,0.42-0.55,0.73-0.69
				c0.26-0.12,0.55-0.1,0.83-0.08c3.11,0.24,6.18,1.07,8.98,2.43c-2.35,0.56-4.85,0.52-7.17-0.13c-0.64-0.18-1.32-0.4-1.95-0.17
				c-0.49,0.18-0.85,0.62-1.08,1.09c-1.11,2.23,0.17,4.96,1.95,6.7c1.78,1.74,4.05,2.94,5.68,4.83c0.99,1.16,1.87,2.65,3.36,2.95
				c1.17,0.24,2.38-0.38,3.16-1.28c0.79-0.9,1.23-2.03,1.65-3.15c-0.05,1.62-0.15,3.37-1.15,4.64c-1.29,1.64-3.76,1.96-5.73,1.25
				s-3.52-2.22-4.92-3.77c-1.4-1.55-2.74-3.2-4.5-4.32c-1.84-1.17-4.01-1.69-6-2.57c-1.46-0.64-3.54-1.57-3.06-3.32
				C528.37,480.51,531.57,481.03,531.77,481.34z"/>
			<path d="M509.88,472.15c-1.18-2.15-1.5-4.75-0.89-7.12c-0.51,0.94,0.02,2.08,0.53,3.01c0.94,1.69,1.87,3.38,2.81,5.07
				c-1.04,0.18-2.16-0.42-2.59-1.38"/>
			<path d="M579.44,513.53c1.3-0.59,2.57-1.29,3.96-1.58c1.4-0.29,2.99-0.1,4.01,0.89c0.62,0.6,0.99,1.45,1.66,2
				c0.56,0.46,1.29,0.66,1.99,0.85c2.73,0.74,5.46,1.47,8.19,2.21c0.63-3.22,1.14-5.03,3.51-7.3c-1.97,2.31-1.59,4.4-0.81,7.34
				c0.32,1.23,0.74,2.87-0.37,3.49c-0.34,0.19-0.76,0.22-1.07,0.46c-0.96,0.76,0.23,2.22,1.35,2.7c2.75,1.18,5.83,1.58,8.79,1.13
				c-2.41,0.48-4.81,0.96-7.22,1.44c-2.38,0.47-5.39,0.7-6.68-1.35c-1.25-1.98-0.04-4.99-1.66-6.68c-1.83-1.91-5.08-0.16-7.65-0.77
				c-1.91-0.45-3.27-2.17-5.09-2.89c-3.45-1.37-7.14,0.94-10.63,0.32C574.38,515.33,576.98,514.65,579.44,513.53z"/>
			<path d="M558.48,526.6c-0.17-0.83-0.53-1.61-0.68-2.44c-0.36-1.95,0.52-4.08,2.15-5.2c-0.84,2.43-0.5,5.1-0.15,7.65
				c0.26,1.84,0.62,3.88,2.1,5.01c0.4,0.3,0.88,0.54,1.13,0.97c0.2,0.35,0.23,0.76,0.25,1.16c0.09,1.82,0.18,3.65,0.27,5.47
				C559.81,541.4,558.7,527.67,558.48,526.6z"/>
			<path class="st1" d="M567.84,538.86c-2.2-5.63-3.97-11.43-5.28-17.33c2.51,4.45,5.53,9.31,10.48,10.57
				c1.61,0.41,3.32,0.39,4.9,0.9c3.74,1.2,6.03,5.02,9.54,6.78c1.65,0.83,3.5,1.16,5.25,1.75c5.86,1.96,10.34,6.62,14.58,11.12
				c0.56,0.59,1.11,1.56,0.52,2.12c-0.27,0.25-0.67,0.28-1.04,0.27c-3.59-0.07-6.79-2.08-10.07-3.53c-3.13-1.38-6.46-2.28-9.77-3.17
				c-4.14-1.11-8.31-2.52-12.52-3.36C570.31,544.15,569.47,543.03,567.84,538.86z"/>
			<path class="st1" d="M590.57,520.71c0.31,0.05,0.64,0.1,0.91,0.26c1.03,0.62,0.63,2.15,0.61,3.35c-0.03,1.89,1.3,3.59,2.96,4.5
				c1.65,0.9,3.59,1.14,5.47,1.21c2.52,0.1,5.06-0.06,7.55-0.46c0.65-0.11,1.35-0.23,1.96,0.03c0.58,0.24,0.98,0.78,1.33,1.31
				c4.44,6.62,6.13,15.03,4.59,22.86c-6.04-8.49-13.62-15.88-22.27-21.68c-1.62-1.09-3.29-2.13-4.61-3.57
				c-1.03-1.12-1.81-2.46-2.93-3.49c-1-0.92-2.23-1.55-3.43-2.18c-1.81-0.93-5.35-2.01-5.93-3.81
				C580.38,517.84,586.64,520.36,590.57,520.71z"/>
			<path class="st1" d="M557.23,498.39c1.6,0.91,4.08-0.2,4.08-2.04c2.17,2.34,6.01,2.42,8.86,0.97c2.85-1.44,4.89-4.06,6.71-6.68
				c0.49-0.71,1-1.45,1.76-1.86c1.37-0.74,3.05-0.19,4.46,0.46c6.61,3.05,12.16,7.95,17.6,12.79c4.84,4.3,10.06,9.37,10.23,15.85
				c0.04,1.58-0.32,3.31-1.56,4.29c-1.24,0.98-3.49,0.62-3.89-0.91c-0.16-0.6-0.01-1.24,0.1-1.85c0.81-4.63-0.91-9.63-4.41-12.77
				c-1.12,1.99-2.25,3.98-3.37,5.96c-5.85,0.71-11.91-3.3-13.54-8.96c-3.88,3.18-8.38,5.6-13.18,7.08c-0.72,0.22-1.5,0.42-2.22,0.19
				c-0.69-0.23-1.2-0.81-1.68-1.37c-4.29-4.93-15.28-8.53-11.55-15.85C555.2,495.37,555.61,497.47,557.23,498.39z"/>
			<path class="st1" d="M555.22,512.93c-0.41-1.39-1.4-2.53-2.45-3.54c-1.34-1.29-2.81-2.45-4.27-3.6c-1.73-1.37-3.47-2.74-5.2-4.11
				c-4.46-3.53-8.93-7.06-13.73-10.09c5.39,5.06,10.33,10.61,14.73,16.55c2,2.71,3.91,5.51,6.3,7.88c1.23,1.22,2.91,3.47,4.42,4.16
				C555.03,517.84,555.89,515.23,555.22,512.93z"/>
			<path class="st1" d="M548.98,480.35c-0.35,0.18-0.76,0.24-1.16,0.25c-2.88,0.09-5.71-1.83-8.49-1.09
				c-0.1,0.03-0.2,0.06-0.27,0.14c-0.12,0.14-0.07,0.35-0.01,0.52c0.71,1.74,2.88,2.25,4.41,3.34c2.34,1.66,3.18,4.72,5.01,6.93
				c0.21,0.26,0.5,0.52,0.83,0.46c0.33-0.06,0.49-0.43,0.63-0.74c0.5-1.19,1.27-2.26,2.22-3.13c0.32-0.29,0.72-0.58,1.15-0.54
				c0.31,0.03,0.58,0.21,0.82,0.41c0.5,0.42,0.93,0.92,1.26,1.49c0.05-1.93,0.21-3.89-0.3-5.75c-0.38-1.39-1.24-2.8-2.52-3.52
				C550.7,478.09,550.47,479.58,548.98,480.35z"/>
			<path class="st1" d="M530.95,475.81c-0.48-0.03-0.9-0.35-1.37-0.39c-1.15-0.11-1.8,1.23-2.68,1.98c-1.02,0.87-2.46,0.96-3.79,1
				c-0.3,0.01-0.64,0.01-0.86-0.19c-0.17-0.15-0.23-0.39-0.32-0.6c-0.76-1.76-3.21-1.8-4.81-2.86c-1.54-1.02-2.16-2.93-2.82-4.66
				c-0.9-2.38-2.09-4.72-3.96-6.45c5.37,1.44,9.86,5.81,15.41,6.06c0.3,0.29,0.48,0.71,0.48,1.14c0-0.75,7.91,0.5,8.53,1.88
				C533.33,473.25,532.52,475.93,530.95,475.81z"/>
			<path class="st1" d="M495.75,460.86c-1.46-0.82-3.05-1.38-4.63-1.93c-2.31-0.81-4.62-1.63-6.93-2.44
				c5.71-0.11,10.85,3.26,16.38,4.68c1.83,0.47,3.88,0.83,5.06,2.31c0.91,1.15,1.05,2.7,1.16,4.16c0.07,0.97,0.14,1.94,0.22,2.92
				C503.71,466.95,500.05,463.27,495.75,460.86z"/>
			<path class="st1" d="M537.46,597.15c-0.02-0.49,0-1.06,0.4-1.34c0.23-0.16,0.53-0.18,0.81-0.18c2.45-0.01,4.89,0.72,6.94,2.06
				c0.78,0.51,1.53,1.14,1.89,2c0.24,0.57,0.3,1.19,0.35,1.81c0.27,3.13,0.53,6.27,0.8,9.4c0.13,1.5,0.31,3.13,1.33,4.24
				c-1.56-1.5-3.13-2.99-4.7-4.49c-0.46-0.44-0.98-0.9-1.61-0.97C537.98,609.11,537.68,601.63,537.46,597.15z"/>
		</g>
		<g>
			<path d="M261.38,545.51c-3.17-6.85-6.57-13.83-12.08-18.98c-2.63-2.45-5.68-4.44-8.12-7.07c-2.83-3.07-4.71-6.87-6.52-10.64
				c-7.76-16.17-14.97-32.61-21.61-49.28c-2.16-5.42-4.33-10.99-8.22-15.35c-2.12-2.38-4.73-4.37-6.44-7.06
				c-2.51-3.95-2.76-8.87-3.88-13.41c-1.55-6.33-4.82-12.08-8.06-17.73c-3.68-6.43-8.6-13.66-16-13.97
				c-8.79-0.37-14.29,8.92-19.19,16.23c-7.81,11.64-18.7,20.85-27.37,31.86c-8.67,11.01-15.25,25.12-12.12,38.78
				c0.55,2.39,1.39,4.76,1.41,7.21c0.02,2.03-0.52,4.01-0.89,6c-2.13,11.54,1.69,23.55,8.02,33.44
				c7.01,10.97,18.63,20.46,31.63,19.59c3.18-0.21,6.38-1.07,9-2.9c3.58-2.49,5.79-6.54,7.07-10.71c2.48-8.06,1.83-17.03-1.76-24.66
				c-1.74,4.02-1.92,8.52-3.14,12.73s-4.04,8.48-8.35,9.23c-4.09,0.7-7.92-1.96-11.21-4.49c-3.48-2.67-7.2-5.71-8.06-10.01
				c-0.51-2.58,0.1-5.23,0.71-7.79c1.54-6.46,3.08-12.92,4.62-19.38c0.28-1.17,0.59-2.4,1.45-3.23c0.88-0.86,2.16-1.13,3.33-1.54
				c8.77-3.04,11.15-16.72,3.91-22.54c6.17-7.2,10.99-15.56,14.14-24.5c3.93,5.28,7.86,10.56,11.79,15.84
				c3.82,5.13,8.93,10.85,15.27,9.99c0.5,5.72,1.37,12.13,5.94,15.61c2.16,1.64,4.86,2.36,7.21,3.7c5.4,3.07,8.45,9,10.82,14.73
				c4.53,10.94,7.72,22.44,9.48,34.15c0.56,3.71,1.03,7.61,3.18,10.69c1.69,2.44,4.26,4.11,6.23,6.32
				c3.09,3.46,4.56,8.04,5.96,12.46c3.74,11.89,7.5,23.86,9.05,36.24c2.66,21.26-1.27,43.17,3.46,64.06
				c0.24,1.07,0.61,2.27,1.59,2.75c0.53,0.26,1.15,0.26,1.75,0.25c14.98-0.26,29.96-0.52,44.94-0.79
				c35.44-0.62,2.42-33.49-5.65-47.04C281.6,592.38,272.06,568.62,261.38,545.51z"/>
			<path class="st2" d="M268.2,573.95c-4.29-12.51-8-25.73-16.74-35.65c-3.56-4.04-7.83-7.39-11.45-11.37
				c-13.5-14.85-16.24-36.28-24.61-54.53c-8.55-18.66-23.23-34.34-29.54-53.87c-2.57-7.96-5.39-18.07-13.65-19.36
				c-4.6-0.72-9.15,1.96-12.21,5.47c-3.06,3.51-5.03,7.82-7.49,11.77c-5.74,9.21-14.14,16.39-21.53,24.34s-14.08,17.39-15.04,28.2
				c-0.53,6.04,0.77,12.07,1.09,18.12c0.3,5.57-0.22,11.17,0.32,16.72c1.25,12.72,8.43,24.72,19.04,31.85
				c6.85,4.6,16.57,6.95,23.03,1.81c5.21-4.15,6.31-11.52,6.75-18.17c-2.4,0.86-2.79,3.99-3.89,6.29c-2.12,4.42-7.77,6.18-12.6,5.33
				c-4.82-0.85-9.01-3.72-13.03-6.52c-2.19-1.52-4.49-3.19-5.49-5.66c-0.85-2.12-0.6-4.49-0.34-6.76c1.2-10.4,2.41-20.8,3.61-31.2
				c4.61,0.14,9.09-3.22,10.25-7.68c1.16-4.46-1.12-9.57-5.21-11.7c5.65-8.48,11.3-16.96,16.94-25.43
				c3.64-5.46,7.43-11.51,6.81-18.04c-0.68,11.41,7.32,21.29,14.85,29.89c4.73,5.39,11.75,11.32,18.18,8.14
				c-2.63,3.77-1.24,9.16,1.62,12.75c2.87,3.6,6.92,6.01,10.37,9.04c12.16,10.68,15.87,27.78,19.25,43.6
				c0.75,3.53,1.56,7.14,3.55,10.15c1.29,1.95,3.02,3.55,4.6,5.27c8.21,8.93,12.24,20.88,15.17,32.65
				c6.16,24.71,8.44,50.38,6.73,75.78c-0.12,1.82-0.2,3.85,0.99,5.24c0.68,0.79,1.66,1.23,2.63,1.62
				c14.91,6.08,51.56,9.45,36.77-15.69C286.14,616.34,275.76,595.98,268.2,573.95z"/>
			<circle cx="124.58" cy="463.54" r="2.71"/>
			<path d="M111.71,480.75c-1.84,0.7-3.79,1.09-5.74,1.41c-2.23,0.36-4.47,0.63-6.71,0.8c5.85,2.8,13.09,2.47,18.66-0.85
				c1.5-0.89,2.95-2.09,3.46-3.76c1.18-3.87-1.44-3.15-3.37-1.68C115.93,478.25,114.2,479.8,111.71,480.75z"/>
			<path d="M158.28,456.45c0.78,1.16,2.09,2.5,3.33,1.85c1.24-0.65,0.88-2.52,0.23-3.76c-1.4-2.69-3.3-5.1-5.18-7.49
				c-2.06-2.61-4.11-5.22-6.17-7.83c-0.37-0.48-0.76-0.96-1.29-1.26c-1.72-0.98-3.52,0.5-3.52,2.27c0,1.59,2.03,2.71,3.01,3.74
				C152.28,447.73,155.39,452.15,158.28,456.45z"/>
			<ellipse cx="257.88" cy="564.75" rx="1.28" ry="2.08"/>
			<ellipse cx="275.28" cy="619.35" rx="4.31" ry="3.35"/>
			<ellipse cx="266.02" cy="583.11" rx="0.48" ry="0.64"/>
			<path d="M121.96,425.51c1.05,6.08,3.1,12.3,7.64,16.48c0.87,0.8,1.83,1.52,2.56,2.45c1.29,1.63,1.61,5.25-1.28,5.36
				c-2.31,0.09-3.96-4.51-4.64-6.1C123.76,437.95,122.85,431.65,121.96,425.51z"/>
			<path d="M202.75,486.24c0.81,0.51,1.92,0.22,2.64-0.41c0.71-0.63,1.12-1.53,1.51-2.4c1.65-3.72,3.32-7.93,1.84-11.72
				c-3.04-0.03-3.19,3.08-3.98,5.67C204.48,478.29,202.06,485.81,202.75,486.24z"/>
			<path d="M239.37,516.97c3.52-1.16,7.32-2.51,9.35-5.62c0.03,2.65-1.59,5.11-3.7,6.71c-2.11,1.61-4.66,2.5-7.19,3.3
				c-1.46,0.46-6.85,0.95-5.45-2.14C232.83,518.25,238.33,517.31,239.37,516.97z"/>
			<path d="M240.66,556.4c-2.27,1.89-4.09,4.24-5.85,6.6c-1.4,1.88-2.85,4.07-2.43,6.38c1.25,0.33,2.37-0.8,3.18-1.81
				c1.13-1.41,2.25-2.83,3.38-4.24c0.7-0.88,1.42-1.78,2.36-2.39c1.25-0.82,2.77-1.06,4.22-1.44c1.44-0.38,2.95-0.99,3.75-2.25
				c1.28-1.99-0.04-3.87-1.97-4.16C245.25,552.8,242.1,555.2,240.66,556.4z"/>
			<path d="M276.76,560.54c-0.56,1.73-1.12,3.45-1.68,5.18c-0.35,1.07-0.72,2.18-1.52,2.97c-1.11,1.09-2.78,1.31-4.33,1.48
				c-1.12,0.12-2.24,0.24-3.36,0.36c-1.03,0.11-2.12,0.22-3.07-0.2c-5.21-2.26,4.42-3.29,5.48-3.6
				C270.98,565.92,275.8,563.51,276.76,560.54z"/>
			<path d="M296.31,603.58c2.14,0.38,4.36,0.96,5.93,2.46c0.14,0.13,0.27,0.28,0.32,0.46c0.14,0.61-0.7,0.92-1.32,0.94
				c-6.41,0.23-12.77-2.06-19.15-1.38c-1.12,0.12-5.03,0.8-5.21-1.15c-0.17-1.74,4.18-1.68,5.31-1.81
				C286.88,602.6,291.65,602.75,296.31,603.58z"/>
			<path d="M182.36,407.36c3.83-4.3,6.8-9.35,8.71-14.78c0.81,5.26-0.95,10.55-2.68,15.58c-0.62,1.81-1.28,3.68-2.59,5.08
				c-1.59,1.69-7.23,3.71-8.64,0.72C175.91,411.33,181.02,408.87,182.36,407.36z"/>
		</g>
		<g>
			<path d="M414.19,487.52c0.26,4.79-0.04,9.69-1.66,14.21c-3.27,9.1-11.39,15.53-19.61,20.62c-8.22,5.1-17.11,9.52-23.6,16.69
				c-7.03,7.77-10.61,18.18-11.87,28.58c-1.26,10.41-0.38,20.94,0.5,31.39c1.42,16.76,2.83,33.52,4.25,50.28
				c8.38-3.04,17.35,1.52,26.03,3.53c6.06,1.4,12.33,1.55,18.55,1.68c17.49,0.39,35.06,0.77,52.41-1.46
				c-0.8-25.79,4.24-51.36,6.59-77.05c0.76-8.34,1.24-16.7,1.43-25.07c0.19-8.39,0.1-16.78-0.06-25.16
				c-0.49-26.56-1.58-53.11-3.26-79.61c-4.99,0.68-8.12,5.51-11.54,9.21c-6.89,7.44-16.65,11.01-26.34,13.11
				c-2.47,0.53-13.09,0.69-14.45,2.48C410.25,472.67,414.03,484.68,414.19,487.52z"/>
			<path class="st2" d="M418.12,474.43c1.26,10.71,0.54,21.64-2.11,32.09c-0.9,3.54-2.04,7.08-4.02,10.14
				c-1.8,2.78-4.25,5.08-6.85,7.12c-12.01,9.38-28.59,14.45-35.24,28.16c-1.96,4.04-2.84,8.52-3.41,12.97
				c-1.58,12.39-0.87,24.94-0.16,37.41c0.45,7.92,0.91,15.83,1.36,23.75c0.31,5.41,0.63,10.9,2.38,16.04
				c26.11,4.38,52.73,5.66,79.14,3.8c7.82-52.44,11.96-105.42,12.4-158.43c0.06-7.18,0.06-14.39-0.72-21.53
				c-0.85-7.78-0.96-12.97-8.21-6.84C442.84,467.42,430.99,472.97,418.12,474.43z"/>
			<path d="M375.15,537.4c-3.22-1.47-6.72-2.67-9.17-5.23c-0.27-0.29-0.55-0.62-0.56-1.02c-0.02-0.85,1.04-1.22,1.89-1.31
				c8.45-0.84,17.21,2.77,22.62,9.32c3.29,3.98,0.5,6.62-3.55,5.18C382.55,542.98,379,539.15,375.15,537.4z"/>
			<path d="M360.2,582.38c-2.42,1.76-4.3,4.14-6.15,6.49c-1.17,1.49-2.39,3.08-2.58,4.96c4.4-2.5,9.16-4.35,14.08-5.49
				c3.24-0.75,11.58-5.14,7.06-9.75C369.83,575.77,362.58,580.65,360.2,582.38z"/>
			<path d="M475.5,493.01c1.34,0.3,2.91,0.92,3.12,2.28c0.25,1.59-1.54,2.68-3.08,3.15c-5.08,1.54-10.66,1.4-15.66-0.39
				c-5.21-1.87-3.4-4.74,0.58-5.61C465.2,491.42,470.84,491.97,475.5,493.01z"/>
			<path d="M475.84,537.61c0.33,0.51,0.6,1.22,0.21,1.68c-0.28,0.33-0.76,0.36-1.19,0.34c-3.53-0.12-21.38-9.08-17.7-12.78
				C460.6,523.39,474.09,534.87,475.84,537.61z"/>
			<path d="M461.64,619.96c4.3,1.77,8.08,4.77,10.78,8.55c0.97,1.35,1.83,2.95,1.6,4.6c-3.13,0.44-5.96-1.67-8.62-3.36
				c-3.13-1.99-6.54-3.54-10.1-4.59c-1.59-0.47-3.23-0.85-4.69-1.65c-2.71-1.48-4.83-5.93-0.99-7.17
				C451.92,615.6,459.42,619.04,461.64,619.96z"/>
		</g>
		<g>
			<path d="M431.12,362.14c-2.53,3.76-6.1,6.68-9.3,9.9c-12.47,12.57-19.11,29.6-27.2,45.36s-19.04,31.56-35.66,37.69
				c-8.04,2.96-16.77,3.39-25.33,3.78c-28.25,1.3-57.23,2.51-84.13-6.25c-1.91-0.62-3.88-1.34-5.3-2.75
				c-3.11-3.09-2.57-8.14-2.07-12.49c2.18-19.03-0.64-38.61-8.11-56.25c-1.78-4.2-3.87-8.69-2.89-13.15c0.55-2.49,2-4.67,3.35-6.83
				c19.37-31.04,21.13-69.39,26.98-105.5c1.57-9.71,4.38-20.64,13.08-25.23c6.52-3.44,14.39-2.2,21.72-1.42
				c24.8,2.64,49.82-1.11,74.76-0.85c8.1,0.08,14.22,1.28,21.7,4.39c7.69,3.2,9.85,15.8,14.05,22.99
				c9.72,16.63,4.82,30.24,11.92,53.21c3,9.7,8.31,19.21,8.51,29.37C427.36,345.9,435.57,355.54,431.12,362.14z"/>
			<path class="st2" d="M290.48,228.14c-2.22,0.24-4.55,0.23-6.54,1.25c-4.16,2.12-5.09,7.53-5.67,12.17
				c-3.46,27.93-11.86,54.98-20.21,81.85c-3.78,12.16-7.71,24.61-15.53,34.66c-1.66,2.13-3.56,4.3-3.92,6.98
				c-0.44,3.23,1.46,6.25,3.11,9.06c9.95,16.87,13.7,37.3,10.38,56.6c-0.78,4.53-1.71,9.85,1.48,13.15c1.69,1.75,4.17,2.45,6.54,3
				c20.22,4.7,41.27,3.72,62.01,2.71c6.06-0.29,12.12-0.59,18.18-0.88c5.79-0.28,11.67-0.58,17.18-2.4
				c11.28-3.74,19.61-13.45,25.33-23.86c5.71-10.42,9.37-21.84,14.85-32.38c4.27-8.22,9.64-15.88,15.93-22.69
				c2.47-2.68,5.16-5.35,6.39-8.79c1.56-4.38,0.47-9.2-0.62-13.72c-5.42-22.35-10.84-44.7-16.25-67.06
				c-1.56-6.43-3.14-12.92-5.96-18.9c-4.48-9.47-11.85-17.21-19.1-24.78c-5.13-5.35-10.73-10.97-17.99-12.44
				c-10.24-2.07-21.03,4.73-31,1.61c-6.36-1.99-12.55-8.33-19.52-4.74C302.67,222.05,298.94,227.24,290.48,228.14z"/>
			<path d="M241.34,423.98c-1.47,0.41-2.95,0.78-4.46,0.99c-1.15,0.17-2.35,0.26-3.39,0.77c-0.7,0.34-1.36,1.01-1.26,1.78
				c0.07,0.57,0.54,1.01,1.02,1.34c2.23,1.53,5.15,1.76,7.81,1.23c2.65-0.53,5.11-1.75,7.53-2.96c1.19-0.59,2.38-1.19,3.58-1.78
				c2.41-1.2,5.87-5.93,0.91-5.58C249.34,420.04,245.02,422.95,241.34,423.98z"/>
			<path d="M237.84,452.09c-0.23,0.34-0.46,0.7-0.52,1.11c-0.11,0.75,0.43,1.5,1.13,1.81s1.51,0.24,2.24,0.02
				c1.58-0.47,2.87-1.61,4.07-2.73c3.35-3.12,6.55-6.42,9.56-9.88c0.83-0.95,1.67-1.98,1.83-3.23c0.76-6.18-8.01,1.49-9.32,2.65
				C243.41,444.85,240.38,448.3,237.84,452.09z"/>
			<path d="M270.47,449.46c4.21,7.6,7.36,15.79,9.32,24.26c3.05-4.34,2.59-10.27,0.93-15.31c-1.67-5.04-4.39-9.71-5.62-14.87
				c-0.7-2.94-2.78-5.49-5.22-2.22C267.98,443.86,269.06,446.91,270.47,449.46z"/>
			<path d="M307.88,450.1c-0.38,1.11-0.31,2.31-0.31,3.49c-0.01,5.02-1.48,9.9-2.4,14.84c-0.03,0.17-0.06,0.37,0.05,0.51
				c0.05,0.07,0.13,0.12,0.21,0.15c1.29,0.63,2.9,0.18,3.97-0.77c1.07-0.95,1.69-2.3,2.15-3.65c1.61-4.82,1.47-10.02,1.31-15.1
				C312.74,445.57,308.78,447.5,307.88,450.1z"/>
			<path d="M326.08,453.45c1.92,4.31,3.84,8.63,5.77,12.94c0.61,1.37,1.26,2.79,2.45,3.71s3.08,1.1,4.09-0.01
				c1.19-1.31,0.51-3.38-0.24-4.99c-3.02-6.51-6.04-13.03-9.06-19.54c-0.92-1.99-4.35-5.79-5.99-2.18
				C321.92,445.95,325.05,451.14,326.08,453.45z"/>
			<path d="M357.17,438.33c-1.03,1.03-0.42,2.76,0.29,4.03c1.92,3.46,4.14,6.75,6.62,9.82c1.52,1.88,3.17,3.7,5.25,4.93
				c2.23,1.32,4.89,1.88,7.47,1.58c-3.73-4.52-7.2-9.25-10.38-14.16C365.01,442.36,361.22,434.28,357.17,438.33z"/>
			<path d="M392.74,433.62c0.48,0.58,0.96,1.28,0.87,2.03c-0.13,1.09-1.38,1.69-2.47,1.75c-2.34,0.12-4.45-1.28-6.37-2.62
				c-1.07-0.74-11.96-8.05-6.05-9.25c2.06-0.42,5.94,1.9,7.67,2.88C388.88,429.82,390.74,431.62,392.74,433.62z"/>
		</g>
		<g>
			<path d="M392.58,230.05c-2.31-3.69-5.67-7.17-9.99-7.73c-1.3-0.17-2.66-0.07-3.86-0.57c-1.38-0.58-2.34-1.87-3.03-3.21
				c-1.49-2.89-2.01-6.18-3.08-9.25c-1.07-3.07-2.94-6.16-5.98-7.32c-3.18-1.22-6.77-0.03-9.74,1.63
				c-8.12,4.53-13.99,12.39-22.08,16.98c-0.45,0.26-1,0.51-1.48,0.31c-0.37-0.15-0.6-0.53-0.79-0.89c-1.31-2.39-2.61-4.79-3.92-7.18
				c-1.99-3.64-4.05-7.38-7.23-10.05c-3.18-2.67-7.77-4.08-11.57-2.4c-7.64,3.38-7.05,15.87-14.45,19.75
				c-2.45,1.29-5.34,1.34-8.11,1.29c-7.91-0.14-15.82-0.87-23.62-2.21c-0.47,1.89,0.68,3.82,2.08,5.17s3.11,2.41,4.27,3.97
				c0.72,0.96,1.2,2.1,2,3c0.79,0.9,2.06,1.56,3.19,1.15c1.05-0.38,1.6-1.52,2.38-2.32c2.35-2.43,6.39-1.58,9.55-0.39
				c9.99,3.77,19.33,9.27,27.47,16.19c2.22,1.89,4.4,3.91,7.07,5.08c5.96,2.62,12.9,0.42,18.75-2.45
				c6.83-3.35,13.24-7.61,20.35-10.32s15.33-3.72,22.21-0.46c2.48,1.18,4.78,2.89,7.49,3.33c1.72,0.27,7.18,0.55,8.3-0.71
				C396.75,236.99,394.71,233.44,392.58,230.05z"/>
			<path class="st2" d="M317,207.95c-0.95-0.65-2.05-1.23-3.2-1.11c-1.12,0.12-2.06,0.89-2.85,1.7c-3.02,3.07-4.93,7.02-7.32,10.6
				c-2.38,3.58-5.55,7-9.73,8.01c-4.62,1.12-10.19-0.74-13.82,2.33c-2.52,2.13-2.96,5.79-3.23,9.08c-0.11,1.38-0.19,2.88,0.58,4.03
				c0.65,0.97,1.77,1.49,2.83,1.95c7.87,3.39,16.1,6.05,23.45,10.46c3.45,2.07,6.7,4.52,10.39,6.12c7.3,3.16,15.83,2.67,23.28-0.12
				c11.29-4.22,20.61-13.38,32.47-15.57c7.13-1.32,14.74,0.13,20.88,3.99c2.12,1.33,4.76,2.98,6.89,1.67
				c1.65-1.01,1.95-3.26,1.89-5.18c-0.13-4.16-1.13-8.29-2.93-12.05c-0.92-1.92-2.36-3.95-4.48-4.09c-1.39-0.09-2.67,0.67-3.97,1.19
				c-4.6,1.82-10.06,0.4-13.86-2.77c-3.8-3.17-6.09-7.84-7.29-12.64c-0.36-1.43-0.66-2.95-1.63-4.07c-2.14-2.47-6.24-1.62-8.94,0.23
				c-3.17,2.17-5.51,5.32-7.89,8.33c-2.38,3.01-4.97,6.02-8.4,7.74c-3.43,1.72-7.94,1.85-10.85-0.66
				c-2.94-2.53-4.36-7.11-5.62-10.64C322.87,214.29,319.81,207.95,317,207.95z"/>
			<path d="M306.99,194.58c0.25-6.01-0.65-12-1.89-17.88c-4.13-19.69-11.98-38.45-16.1-58.15c-1.4-6.67-2.38-13.48-4.83-19.84
				c-1.06-2.74-2.38-5.38-3.2-8.2c-0.99-3.42-1.2-7-1.77-10.51c-1.02-6.2-3.18-12.17-3.98-18.4c-0.16-1.28-0.29-2.63-1.01-3.7
				c-0.58-0.87-1.5-1.45-2.38-2.01c-4.89-3.09-9.77-6.18-14.66-9.27c0.31-2.43,3.74-2.75,6.1-2.08c2.36,0.67,5.35,1.48,6.88-0.43
				c0.51-0.64,0.72-1.47,0.91-2.27c0.8-3.32,1.6-6.65,2.4-9.97c3.87,2.31,3.43,8.19,6.23,11.72c3.79,4.77,12.08,3.71,15.84,8.51
				c-3.88-0.78-8.15,1.38-9.82,4.96c-1.36,2.91-1.06,6.29-0.68,9.48c5.11,43.2,20.08,84.86,33.63,126.2c2,6.12,5.41,11.28,8.3,17.03
				c-1.6-4.29-8.83-6.32-13.4-6.19c-4.05,0.12-10.11,3.37-11.07,7.46C304.53,206,306.77,200.01,306.99,194.58z"/>
			<path class="st2" d="M310.94,184.79c2.04,5.89,4.45,11.62,7.19,17.14c-0.86-1.74-6.68-0.39-7.84,0.09
				C309.28,196.99,310.68,190.03,310.94,184.79z"/>
			<path class="st2" d="M272.12,51.68c-2.82-1.6-6-2.47-8.92-3.9c2.83-0.09,5.67-0.19,8.5-0.28c0.26-0.01,0.53-0.02,0.75-0.16
				c0.26-0.16,0.39-0.45,0.51-0.73c0.87-2.11,1.38-4.37,1.52-6.64c0.7,1.66,1.05,3.46,1.87,5.06c1.54,3.02,4.77,5.1,8.15,5.24
				c-3.6-0.15-4.11,5.27-5.93,6.72c-1.42,1.13-1.55-0.78-2.46-1.97C275.05,53.64,273.62,52.53,272.12,51.68z"/>
			<path d="M366.4,192.95c3.82-6.28,5.74-13.5,7.61-20.6c2.25-8.55,4.49-17.09,6.74-25.64c2.98-11.35,5.98-22.72,10.16-33.69
				c7.81-20.44,19.66-39.16,27.35-59.65c0.62-1.66,1.23-3.37,1.25-5.15c0.1-6.99-8.57-12.76-6.37-19.39
				c3.85,2.43,7.37,5.4,10.43,8.78c3.16-6.96,7.54-13.36,12.89-18.82c0.05,3.87,0.11,7.73,0.16,11.6c0.02,1.37,0.05,2.78,0.6,4.03
				c2.17,4.88,11.17,5.46,10.83,10.79c-5.03,0.4-10.06,0.8-15.08,1.19c-1.95,0.15-4.07,0.38-5.48,1.74
				c-1.21,1.17-1.63,2.91-2.05,4.55c-3.25,12.64-10.16,23.96-16.14,35.56c-19.14,37.15-29.15,78.5-33.46,120.06
				c-0.51,4.89-0.9,10.04,1.11,14.52c-3.21-2.93-5.43-6.92-6.22-11.2c-0.24-1.27-0.4-2.67-1.32-3.58c-0.72-0.71-1.76-0.97-2.76-1.13
				c-5.33-0.89-9.91,0.38-14.87,2.08C356.53,203.4,362.49,199.38,366.4,192.95z"/>
			<path class="st2" d="M363.01,203.51c1.01-2.51,3.66-3.94,5.19-6.17c1.44-2.1,1.84-4.86,3.59-6.7c-0.03,2.79-0.06,5.59-0.09,8.38
				c-0.02,2.21,0.34,5.21-0.53,7.22C368.99,204.07,366.21,202.5,363.01,203.51z"/>
			<path class="st2" d="M422.04,46.84c0.52-3.09-2.87-5.58-3.08-8.7c0.91,0.69,1.84,1.39,2.91,1.77c1.07,0.38,2.34,0.41,3.29-0.22
				c0.73-0.47,1.19-1.25,1.63-2c1.42-2.44,2.84-4.88,4.27-7.32c-0.69,2.35-1.07,4.79-1.15,7.24c-0.01,0.41,0,0.86,0.25,1.18
				c0.21,0.27,0.54,0.4,0.85,0.52c1.41,0.54,2.82,1.05,4.24,1.55c-1.8-0.62-6.02,0.91-7.68,1.67
				C425.48,43.48,423.31,44.89,422.04,46.84z"/>
		</g>
		<g>
			<path class="st3" d="M307.78,376.08c-2.04,0.34-12.02,2.93-15.93,1.82s-21.66-10.76-23.06-11.6c-1.4-0.84-2.65-1.68-3.77-2.1
				c-1.12-0.42-4.89,1.12-4.19,4.47c0.7,3.35,2.52,9.78,4.05,12.16c1.54,2.38,7.82,11.88,9.08,13.27
				c1.26,1.4,9.22,10.62,10.76,11.74s9.92,6.85,11.46,7.69s8.8,5.59,15.51,0.84s7.69-5.03,10.48-9.78s3.77-5.73,6.01-9.08
				c2.24-3.35,8.52-10.48,10.06-12.16s6.01-8.38,8.1-11.6c2.1-3.21,4.75-5.03,4.89-7.82s-0.42-5.45-4.33-4.19s-10.9,6.57-14.11,7.82
				C329.57,368.81,315.32,374.82,307.78,376.08z"/>
			<path class="st4" d="M275.34,374.84c0.2,3.89,0.31,7.32,1.44,11.05c-1.53-2.14-3.06-4.28-4.58-6.43
				c-0.37-0.52-0.74-1.04-1.02-1.6c-0.28-0.55-0.46-1.15-0.63-1.74c-0.22-0.78-0.9-2.25-0.36-2.92
				C271.85,373.85,273.5,374.92,275.34,374.84z"/>
			<path class="st4" d="M279.04,377.32c0,0.16,2.2,10.37,2.04,14.25c2.15,3.56,3.14,4.45,3.14,4.45s-0.63-12.52-0.21-15.98
				C280.93,378.57,279.04,377.32,279.04,377.32z"/>
			<path class="st4" d="M288.63,381.67c0,0,0.42,9.27,0.63,10.69c0.21,1.41,1.31,9.12,1.31,9.12c1.73,0.84,7.23,4.24,7.23,4.4
				c0.79-5.29,1.1-22.58,1.1-22.58C296.39,383.66,289.42,382.92,288.63,381.67z"/>
			<path class="st4" d="M304.04,382.66c0,0,1.05,8.38,0.94,9.75s-1,11.48-1.1,12.26s0.52,3.77,0.42,3.93
				c-0.1,0.16,1.05,0.84,2.04,0.47s6.45-4.51,6.45-4.51c0.01-1.31-0.52-1.21-0.52-3.44c0.63-2.2,0.21-8.03,0.26-8.87
				s-0.05-8.02,0.47-9.01s0.37-2.41,0.37-2.41S306.08,382.82,304.04,382.66z"/>
			<path class="st4" d="M319.08,379.41c0,0-0.47,9.33-0.42,10.95c0.05,1.62,0.05,7.65,0.05,7.65c1.83-2.2,5.11-7.17,5.9-7.85
				c0.79-0.68,2.06-2.63,2.06-2.63c0-2.1,1.83-11.21,1.83-11.21S320.07,379.47,319.08,379.41z"/>
			<polygon class="st4" points="339.67,371.29 333.12,375.05 332.49,381.22 			"/>
		</g>
		<g>
			<path class="st3" d="M307.78,376.08c-2.04,0.34-12.02,2.93-15.93,1.82s-21.66-10.76-23.06-11.6c-1.4-0.84-2.65-1.68-3.77-2.1
				c-1.12-0.42-4.89,1.12-4.19,4.47c0.7,3.35,2.52,9.78,4.05,12.16c1.54,2.38,7.82,11.88,9.08,13.27
				c1.26,1.4,9.22,10.62,10.76,11.74s9.92,6.85,11.46,7.69s8.8,5.59,15.51,0.84s7.69-5.03,10.48-9.78s3.77-5.73,6.01-9.08
				c2.24-3.35,8.52-10.48,10.06-12.16s6.01-8.38,8.1-11.6c2.1-3.21,4.75-5.03,4.89-7.82s-0.42-5.45-4.33-4.19s-10.9,6.57-14.11,7.82
				C329.57,368.81,315.32,374.82,307.78,376.08z"/>
			<path class="st4" d="M275.34,374.84c0.2,3.89,0.31,7.32,1.44,11.05c-1.53-2.14-3.06-4.28-4.58-6.43
				c-0.37-0.52-0.74-1.04-1.02-1.6c-0.28-0.55-0.46-1.15-0.63-1.74c-0.22-0.78-0.9-2.25-0.36-2.92
				C271.85,373.85,273.5,374.92,275.34,374.84z"/>
			<path class="st4" d="M279.04,377.32c0,0.16,2.2,10.37,2.04,14.25c2.15,3.56,3.14,4.45,3.14,4.45s-0.63-12.52-0.21-15.98
				C280.93,378.57,279.04,377.32,279.04,377.32z"/>
			<path class="st4" d="M288.63,381.67c0,0,0.42,9.27,0.63,10.69c0.21,1.41,1.31,9.12,1.31,9.12c1.73,0.84,7.23,4.24,7.23,4.4
				c0.79-5.29,1.1-22.58,1.1-22.58C296.39,383.66,289.42,382.92,288.63,381.67z"/>
			<path class="st4" d="M304.04,382.66c0,0,1.05,8.38,0.94,9.75s-1,11.48-1.1,12.26s0.52,3.77,0.42,3.93
				c-0.1,0.16,1.05,0.84,2.04,0.47s6.45-4.51,6.45-4.51c0.01-1.31-0.52-1.21-0.52-3.44c0.63-2.2,0.21-8.03,0.26-8.87
				s-0.05-8.02,0.47-9.01s0.37-2.41,0.37-2.41S306.08,382.82,304.04,382.66z"/>
			<path class="st4" d="M319.08,379.41c0,0-0.47,9.33-0.42,10.95c0.05,1.62,0.05,7.65,0.05,7.65c1.83-2.2,5.11-7.17,5.9-7.85
				c0.79-0.68,2.06-2.63,2.06-2.63c0-2.1,1.83-11.21,1.83-11.21S320.07,379.47,319.08,379.41z"/>
			<polygon class="st4" points="339.67,371.29 333.12,375.05 332.49,381.22 			"/>
		</g>
		<g>
			<path d="M231.92,209.34c17.22,0.31,37.83,8.05,47.74,22.87c5.12,7.66,6.84,17.13,6.98,26.35c0.15,9.21,1.08,18.84,0.72,28.05
				c-0.5,12.75-0.88,23.31-4.47,35.55c-4.76,16.24-17.09,30.15-32.35,37.46c-14.11,6.76-32.97,9.97-46.37,1.88
				c-10.22-6.17-16.43-17.17-21.49-27.98c-2.34-5.01-4.54-10.1-6.15-15.39c-6.83-22.54-2.33-46.92,4.51-69.46
				c1.48-4.86,3.07-9.73,5.47-14.21c5.86-10.97,16.45-19.13,28.34-22.78C220.37,209.99,226.16,209.24,231.92,209.34z M179.07,278.19
				c-4.93,6.56-6.21,13.75-5.22,21.88c1.12,9.26,4.58,18.54,11.31,25.02c6.72,6.47,17.08,9.59,25.77,6.2
				c6.8-2.65,11.75-8.81,14.56-15.54c4.67-11.18,3.98-24.42-1.66-35.15c-1.37-2.6-3.01-5.06-5.05-7.18
				c-5.31-5.52-13.26-8.38-20.87-7.5C189.6,266.87,183.89,271.77,179.07,278.19z"/>
			<path class="st5" d="M257.1,222.62c-4.59-1.99-9.48-3.2-14.37-4.28c-8.05-1.79-16.43-3.27-24.48-1.51
				c-10.07,2.21-18.52,9.38-24.24,17.95c-5.72,8.57-9.03,18.5-11.87,28.41c-1.09,3.8-2.13,7.73-1.61,11.65
				c7.65-7.39,18.95-10.44,27.87-7.82c7.72,2.27,13.51,9.58,17.03,16.82c4.14,8.52,4.67,21.68,1.06,30.44
				c-1.29,3.14-3.86,7.13-5.96,9.79c-2.31,2.93-4.01,4.72-7.24,6.6c-4.79,2.79-10.79,3.22-16.18,1.92
				c-5.39-1.3-10.67-6.12-15.17-9.35c6.52,5.69,8.72,14.9,14.22,21.58c3.13,3.8,7.26,6.68,11.68,8.83c3.51,1.71,7.26,3,11.15,3.39
				c5.92,0.6,11.83-0.89,17.6-2.36c4.28-1.09,8.58-2.2,12.6-4.01c10.68-4.83,17.47-14.15,23.06-24.45c1.95-3.59,4.6-8.85,5.75-12.77
				c2.03-6.93,2.42-12.94,2.6-20.17c0.29-11.38,0.57-22.79-0.39-34.14c-0.48-5.71-1.2-11.48-2.54-17.06
				c-0.99-4.09-4.08-7.38-7.02-10.28C266.74,227.94,262.13,224.8,257.1,222.62z"/>
			<path d="M185.88,253.08c-0.31-10.07,3.62-20.88,12.23-26.12c-1.03,6.04-3.14,11.83-4.62,17.78c-1.48,5.94-2.32,12.24-0.79,18.17
				c0.4,1.54,1.07,3.72-0.56,4.79c-1.54,1-2.76-0.11-3.58-1.4C186.32,262.82,186,257.08,185.88,253.08z"/>
			<path d="M205.55,248.76c0.45-3.06,0.91-6.13,1.76-9.11c1.67-5.85,4.79-11.17,8.01-16.32c1.85-2.96,3.82-5.98,6.71-7.95
				c2.88-1.97,6.93-2.65,9.85-0.74c-3.05,1.87-5.29,4.78-7.46,7.63c-1.89,2.48-3.79,4.96-5.68,7.43c-2.08,2.72-4.18,5.47-5.65,8.57
				c-1.49,3.14-2.29,6.57-2.94,9.98c-0.91,4.81-1.55,9.67-1.89,14.56c-0.09,1.28-0.2,2.65-1.03,3.62c-3.45,4.04-3.23-3.85-3.15-5.22
				C204.31,257.04,204.93,252.9,205.55,248.76z"/>
			<path d="M217.44,266.37c3.12-4.37,6.25-8.75,9.37-13.12c3.58-5.01,7.33-10.18,12.67-13.26c1.27-0.73,2.6-1.33,3.94-1.92
				c6.15-2.7,12.4-5.19,18.73-7.46c2.58-0.92,5.25-1.82,7.98-1.69c2.73,0.13,5.58,1.52,6.66,4.04c-7.16,2.56-14.31,5.13-21.47,7.69
				c-3.17,1.14-6.35,2.28-9.36,3.79c-7.45,3.76-13.51,9.67-18.69,16.12c-2.61,3.25-4.73,6.9-7.36,10.11
				c-1.03,1.26-2.44,2.89-3.85,1.18C214.74,270.23,216.51,267.68,217.44,266.37z"/>
			<path d="M249.98,264.82c8.48-1.94,17.23-2.32,25.93-2.29c1.83,0.01,3.71,0.04,5.39,0.77c1.68,0.72,3.12,2.3,3.12,4.13
				c0,0.6-0.18,1.24-0.63,1.63c-0.64,0.55-1.59,0.48-2.42,0.39c-12.22-1.33-24.68-0.32-36.53,2.97c-3.15,0.87-6.29,1.92-9.05,3.67
				c-1.77,1.12-7.46,7.28-9.67,6.59c-2.25-0.7-0.51-4.91,0.36-6.12C231.2,269.99,242.52,266.53,249.98,264.82z"/>
			<path d="M265,293.32c2.92,0.8,5.72,2,8.63,2.84c2.15,0.62,4.42,1.07,6.25,2.37s3.09,3.75,2.19,5.81
				c-5.48-2.43-11.3-4.07-17.24-4.85c-2.63-0.35-5.28-0.53-7.93-0.71c-7.12-0.49-14.26-0.97-21.39-0.7
				c-1.76,0.07-3.58,0.17-5.2-0.51c-0.95-0.4-2.9-1.89-2.5-3.17c0.45-1.45,2.65-0.93,3.84-0.96c3.78-0.09,7.55-0.48,11.32-0.82
				C250.29,291.95,257.81,291.36,265,293.32z"/>
			<path d="M231.85,311.75c13.19,3.48,23.16,15.71,36.68,17.52c1.27,0.17,2.59,0.26,3.7,0.89c1.11,0.63,1.91,2.03,1.4,3.2
				c-0.53,1.21-2.08,1.54-3.4,1.57c-6.19,0.16-12.09-2.5-17.44-5.61s-10.46-6.75-16.27-8.88c-2.06-0.76-4.22-1.33-6.11-2.45
				c-1.89-1.12-3.3-2.41-2.85-4.56C228.44,309.11,229.8,311.21,231.85,311.75z"/>
			<path d="M238.59,348.19c-6.93-4.66-11.77-11.76-16.43-18.69c-0.66-0.97-1.32-1.98-1.6-3.12c-0.28-1.14-0.08-2.47,0.78-3.26
				c1.25-1.15,3.36-0.69,4.59,0.48c1.23,1.16,1.83,2.82,2.52,4.37c3.58,8.1,10.58,14.62,18.91,17.62c3.24,1.17,6.69,1.84,9.7,3.52
				c0.55,0.31,1.09,0.67,1.39,1.21c0.87,1.59-0.8,3.65-2.22,4.26c-1.72,0.73-3.44-0.16-5.18-0.72
				C246.7,352.46,242.4,350.76,238.59,348.19z"/>
			<path d="M212.55,331.75c0.02-0.46,0.02-0.99-0.31-1.3c-0.31-0.28-0.78-0.27-1.19-0.2c-2.76,0.51-4.72,3.17-5.21,5.93
				c-0.49,2.76,0.22,5.58,1.11,8.24c2.7,8.05,7.93,16.23,16.79,18.09c1.2,0.25,4.79,0.74,4.42-1.57c-0.17-1.05-4.01-3.13-4.88-3.94
				c-3.27-3.02-5.93-6.7-7.78-10.74C213.41,341.74,212.33,336.73,212.55,331.75z"/>
			<path d="M196.11,247.45c4.95-0.46,9.95,0.4,14.7,1.89c3.27,1.02,6.46,2.34,9.4,4.09c12.14,7.21,20.13,18.96,23.09,32.76
				c0.76,3.53,0.12,9.19,0.17,12.8c0.2,13.83-4.21,26.15-19.43,34.48c-3.98,2.18-8.19,3.89-12.44,5.45c-6,2.2-12.93,4.3-18.5,1.18
				c-0.93-0.52-2.6-0.81-2.61,0.26c0,0.26,0.13,0.5,0.26,0.72c0.67,1.15,1.33,2.29,2,3.44c0.49,0.83,1,1.7,1.78,2.26
				c1.12,0.79,2.58,0.85,3.95,0.81c13.71-0.4,26.57-7.14,37.12-15.91c2.17-1.8,4.27-3.7,6.04-5.88c6.99-8.6,8.17-20.46,8.25-31.55
				c0.03-4.33-0.07-8.69-1.02-12.91c-0.92-4.08-2.62-7.96-4.71-11.58c-5.32-9.2-13.28-16.89-22.8-21.6s-20.57-6.38-31-4.39
				c-1.44,0.27-2.88,0.63-4.16,1.34c-1.89,1.06-6.12,6.97-1.43,6.33c1.52-0.21,3.7-2.11,5.26-2.67
				C191.99,248.07,194.04,247.64,196.11,247.45z"/>
			<path d="M241.46,239.48c14.58,11.14,23.29,28.94,25.48,47.16c0.77,6.43,0.8,12.95,0.07,19.38c-0.5,4.45-1.37,8.88-2.82,13.11
				c-3.93,11.43-12.17,21.16-22.32,27.72s-22.13,10.04-34.18,10.88c4.55,2.37,10.06,1.14,15.02-0.14
				c8.07-2.09,16.25-4.21,23.52-8.31c3.01-1.7,5.84-3.72,8.42-6.03c8.26-7.38,13.78-17.54,16.53-28.27
				c2.76-10.73,2.86-22.01,1.38-32.99c-0.61-4.55-1.49-9.07-2.84-13.45c-6.82-22.16-26.45-39.86-49.19-44.38
				c-5.45-1.08-11.16-1.31-16.63-0.24c-2.66,0.52-5.27,1.35-7.69,2.58c-1.03,0.52-6.45,3.36-6.24,4.76c0.16,1.03,6.38-1.4,7.46-1.66
				c2.94-0.71,5.95-1.12,8.98-1.25c5.81-0.26,11.66,0.51,17.24,2.14C230.07,232.38,236.15,235.42,241.46,239.48z"/>
			<path d="M197.63,263c8.27-0.96,16.92,2.15,22.7,8.16c2.21,2.3,4,4.98,5.49,7.8c6.14,11.66,6.88,26.06,1.81,38.22
				c-3.06,7.32-8.44,14.02-15.84,16.9c-9.45,3.69-20.71,0.3-28.03-6.74s-11.07-17.13-12.29-27.2c-1.07-8.84,0.31-16.65,5.68-23.79
				C182.39,269.37,188.6,264.05,197.63,263z M205.09,270.37c-3.06-0.79-6.29-0.79-9.39-0.21c-3.69,0.68-7.33,2.23-9.84,5.01
				c-1.05,1.16-1.88,2.5-2.69,3.84c-1.31,2.17-2.6,4.37-3.58,6.71c-2.58,6.17-2.92,13.21-1.13,19.65
				c1.79,6.44,5.68,12.25,10.84,16.51c3.3,2.73,7.18,4.87,11.39,5.65c4.21,0.78,8.78,0.11,12.31-2.31c2.89-1.97,4.92-4.94,6.86-7.85
				c1.13-1.69,2.26-3.39,2.99-5.28c0.84-2.16,1.14-4.5,1.26-6.81C224.83,291.76,220.08,274.26,205.09,270.37z"/>
			<path d="M202.74,310.05c-2.09,0.9-4.54,0.93-6.64,0.08c-0.91-0.37-1.77-0.91-2.35-1.7c-0.57-0.76-0.84-1.69-1.04-2.62
				c-0.57-2.65-0.6-5.41-0.08-8.07c0.23-1.19,0.59-2.4,1.37-3.33c1.24-1.48,3.29-1.95,5.19-2.19c1.89-0.24,3.91-0.31,5.58,0.59
				c2.49,1.33,3.52,4.43,3.57,7.27C208.4,304.31,206.86,308.27,202.74,310.05z"/>
			<path class="st4" d="M194.88,288.18c1.7,1.39,2.76,3.62,2.95,5.91c0.06,0.78,0.03,1.59-0.2,2.34c-0.71,2.25-3.02,3.4-5.17,3.95
				c-0.77,0.2-1.56,0.35-2.36,0.29c-1.79-0.14-3.39-1.43-4.32-3.08c-0.93-1.65-1.27-3.62-1.29-5.56c-0.01-0.93,0.06-1.9,0.5-2.71
				C186.78,285.99,192.38,286.13,194.88,288.18z"/>
		</g>
		<g>
			<path d="M423.19,363.05c-9.22,0.72-18.88-0.32-26.87-4.98c-7.39-4.3-12.76-11.3-17.67-18.3c-3.61-5.14-7.1-10.42-9.56-16.2
				c-4.67-10.95-5.44-23.11-5.97-35c-0.31-6.95-0.56-13.96,0.57-20.82c2.83-17.19,13.88-31.72,24.58-45.47
				c2.95-3.79,5.96-7.64,9.91-10.36c8.2-5.65,18.94-5.56,28.89-5.07c8.82,0.43,17.75,1.03,26.11,3.86
				c11.96,4.05,22.15,12.59,29.24,23.04c7.09,10.45,11.23,22.72,13.13,35.2c0.52,3.39,0.87,6.84,0.39,10.24
				c-0.28,1.94-0.82,3.85-0.97,5.8c-0.16,2.1,0.16,4.2,0.27,6.29c1.62,28.72-24.59,56.48-49.61,66.48
				C438.47,360.63,430.88,362.45,423.19,363.05z M478.24,270.1c-4.03-2.44-8.55-3.89-13.11-4.92c-7.83-1.77-16.04-2.35-23.82-0.39
				c-7.78,1.96-15.11,6.67-19.27,13.73c-5.37,9.12-4.82,20.89-1.27,30.92c1.55,4.39,3.8,8.76,7.57,11.34c2.23,1.52,4.84,2.31,7.42,3
				c7.1,1.9,14.35,3.22,21.65,3.96c3.75,0.38,7.59,0.6,11.25-0.37c2.37-0.63,4.59-1.74,6.94-2.46c1.11-0.34,2.25-0.6,3.29-1.15
				c1.46-0.77,2.6-2.04,3.7-3.29c1.72-1.94,3.44-3.9,4.79-6.13c3.94-6.52,4.29-14.68,3.65-22.34
				C490.23,282.53,486.37,275.02,478.24,270.1z"/>
			<path class="st5" d="M481.25,246.63c-5.7-10.37-13.37-20.23-24.05-25.34c-6.36-3.04-13.43-4.24-20.43-5.07
				c-13.39-1.59-28.09-1.66-38.95,6.32c-5.83,4.29-9.95,10.5-13.51,16.8c-7.28,12.9-12.84,27-14.2,41.75
				c-1.3,14.17,1.35,28.59,6.96,41.66c5.72,13.32,15.3,25.89,28.93,30.8c11.72,4.22,24.82,2.22,36.61-1.78
				c12.53-4.25,25.14-11.57,30.31-23.75c-9.8,0.75-19.7,0.21-29.36-1.62c-9-1.7-18.52-5.04-23.48-12.74
				c-4.47-6.93-4.24-15.89-2.57-23.96c0.91-4.4,2.25-8.82,4.95-12.41c3.43-4.56,8.68-7.31,13.78-9.87
				c3.75-1.88,7.54-3.74,11.61-4.75c7.23-1.79,14.74-0.72,21.72,1.58c6.94,2.29,13.06,6.79,19.86,9.05
				c0.03-1.39-0.72-3.13-0.87-4.63c-0.26-2.67-0.61-5.26-1.32-7.86C485.92,255.85,483.73,251.13,481.25,246.63z"/>
			<path d="M466.12,223.08c2.97,1.48,5.74,3.59,7.37,6.49c1.96,3.48,2.1,7.66,2.19,11.65c0.16,7.23,0.32,14.46,0.48,21.69
				c0.02,1.1,0.04,2.24-0.38,3.26c-1.53,3.7-4.98,1.12-5.02-1.74c-0.05-4.27-0.08-8.49-0.42-12.78
				C469.56,242.06,468.15,232.5,466.12,223.08z"/>
			<path d="M445.32,249.76c-1.74-5-3.5-10.05-6.24-14.58c-3.82-6.33-9.39-11.38-14.87-16.34c-1.99-1.8-3.98-3.6-5.97-5.4
				c2.56-1.75,6.14-1.28,8.79,0.34c2.65,1.61,4.57,4.16,6.43,6.64c2.61,3.49,5.22,6.98,7.76,10.51c2.29,3.19,4.55,6.43,6.13,10.03
				c1.34,3.04,2.16,6.28,2.96,9.51c0.7,2.84,1.39,5.68,2.05,8.52c0.34,1.45,2.77,7.83-0.77,6.76c-1.84-0.56-2.54-5.24-3.09-6.84
				C447.44,255.86,446.38,252.81,445.32,249.76z"/>
			<path d="M391.15,241.14c-3.46-1.35-7.06-2.57-10.78-2.6c0.45-1.72,2.16-2.87,3.9-3.2c1.75-0.33,3.54,0,5.29,0.33
				c3.17,0.6,6.34,1.21,9.41,2.18c6.61,2.1,12.56,5.84,18.4,9.6c2.71,1.74,5.42,3.5,7.95,5.51c3.15,2.51,5.98,5.4,8.8,8.28
				c1.84,1.88,3.14,7-1.19,5.4c-3.17-1.17-6.4-5.22-9.13-7.28c-6.35-4.78-13.11-9.01-20.19-12.63
				C399.55,244.66,395.39,242.79,391.15,241.14z"/>
			<path d="M366.76,277.64c-1.26-1.12-0.44-3.4,1.07-4.15c1.51-0.75,3.3-0.47,4.96-0.21c13.9,2.17,28.12,1.57,42.03,3.67
				c1.95,0.29,4.05,0.73,5.34,2.23c0.99,1.15,1.19,3.61-0.19,4.59c-1.32,0.94-4.38,0.04-5.84-0.09c-5.23-0.48-10.45-1.01-15.66-1.61
				C387.86,280.84,377.29,279.36,366.76,277.64z"/>
			<path d="M399.62,303.88c-10.45,1.33-21.04,1.57-31.54,0.7c0.05,1.27,0.11,2.54,0.16,3.81c0.02,0.52,0.05,1.06,0.33,1.5
				c0.52,0.83,1.67,0.94,2.65,0.96c14.83,0.32,30.14,0.56,43.89-5c4.25-1.72,5.29-6.71-0.4-5.23
				C409.67,301.94,404.82,303.22,399.62,303.88z"/>
			<path d="M401.9,325.5c-7.76,1.9-15.76,2.65-23.57,4.31c0.01,2.23,1.49,4.38,3.57,5.19c1.57,0.61,3.33,0.48,5,0.29
				c12-1.35,23.65-5.29,34.22-11.12c1.25-0.69,2.51-1.43,3.39-2.55c0.88-1.12,1.3-2.71,0.68-3.99c-1.39-2.87-2.56-2.4-4.62-0.71
				c-1.81,1.48-3.78,2.76-5.84,3.86C410.71,322.93,406.34,324.41,401.9,325.5z"/>
			<path d="M442.04,332.94c-2.31,4.92-6.6,8.57-10.76,12.06c-5.55,4.66-11.47,9.49-18.61,10.68c0.32,1.16,1.85,1.39,3.06,1.37
				c3.55-0.05,7.1-0.28,10.62-0.69c1.56-0.18,3.2-0.43,4.43-1.41c0.82-0.66,1.38-1.59,1.99-2.46c2.63-3.74,6.48-6.44,9.48-9.9
				c3.55-4.09,5.87-9.23,6.57-14.6c0.27-2.08-1.96-5.13-4.17-3.26C443.19,325.97,442.92,331.06,442.04,332.94z"/>
			<path d="M433.74,334.42c-4.9-1.46-9.86-3.09-14.02-6.06c-5.81-4.16-9.61-10.69-11.58-17.56c-1.96-6.87-2.23-14.11-2.08-21.25
				c0.11-5.39,0.52-10.98,3.11-15.7c1.72-3.13,4.32-5.7,7.07-7.98c6.25-5.18,13.5-9.14,21.23-11.6c4.98-1.58,10.15-2.54,15.35-2.99
				c7.72-0.66,15.61-0.18,23.01,2.13c2.8,0.87,5.54,2.02,7.91,3.74c1.11,0.8,2.5,1.77,3.7,1.12c0.87-0.47,1.15-1.59,1.08-2.57
				c-0.16-2.27-1.71-4.27-3.63-5.51c-1.91-1.24-4.16-1.84-6.38-2.37c-5.75-1.37-11.61-2.41-17.52-2.37
				c-6,0.04-11.93,1.18-17.82,2.32c-10.39,2.01-21.34,4.29-29.16,11.42c-4.91,4.47-8.13,10.5-10.6,16.66
				c-2.54,6.33-4.39,13.11-3.89,19.91c0.36,4.84,1.89,9.51,3.42,14.12c1.53,4.64,3.07,9.29,5.16,13.7c1.93,4.1,4.4,8.05,7.94,10.89
				c4.37,3.51,9.97,5.02,15.39,6.44c5.21,1.36,10.41,2.73,15.62,4.1c3.72,0.98,7.6,1.96,11.37,1.16c1.35-0.29,6.27-1.74,5.13-3.98
				c-0.73-1.43-7.91-2.01-9.53-2.38C447.22,338.2,440.45,336.42,433.74,334.42z"/>
			<path d="M418.62,348.26c-7.21-3.04-14.28-7.05-19.1-13.21c-2.87-3.67-4.83-7.97-6.57-12.3c-2.04-5.07-3.81-10.28-4.79-15.66
				c-2.42-13.34,0.19-27.21,5.24-39.8c3.02-7.54,7.01-14.87,12.94-20.42c1.92-1.8,4.03-3.38,6.13-4.97c3.32-2.5,6.63-5.01,9.95-7.51
				c3.39-2.56,6.85-5.16,10.83-6.63c4.07-1.51,8.48-1.77,12.82-2.01c7.51-0.42,15.02-0.84,22.53-1.27
				c-3.57-3.41-8.87-4.07-13.78-4.57c-7.41-0.74-15.03-1.47-22.19,0.56c-3.47,0.98-6.74,2.59-9.86,4.41
				c-12.79,7.45-23.39,18.63-30.15,31.8c-2.95,5.75-5.18,11.86-6.87,18.11c-2.87,10.61-4.19,21.73-2.95,32.65
				c1.24,10.92,5.11,21.65,11.87,30.32c4.1,5.26,9.19,9.69,14.73,13.4c4.61,3.09,9.61,5.73,15.02,6.99c4.31,1,11.7,1.74,15.45-1.17
				c-1.99-2.34-7.44-3.47-10.32-4.54C425.89,351.08,422.22,349.77,418.62,348.26z"/>
			<path d="M495.04,291.57c0.71,8.5,0.32,17.56-4.06,24.8c-1.5,2.48-3.41,4.65-5.32,6.81c-1.22,1.39-2.49,2.81-4.11,3.66
				c-1.15,0.6-2.42,0.89-3.65,1.27c-2.6,0.81-5.07,2.04-7.7,2.74c-4.06,1.07-8.32,0.83-12.49,0.41c-8.11-0.82-16.15-2.29-24.04-4.4
				c-2.87-0.77-5.77-1.64-8.24-3.33c-4.19-2.86-6.68-7.72-8.41-12.59c-3.94-11.13-4.55-24.21,1.41-34.33
				c4.62-7.85,12.76-13.07,21.4-15.25c8.64-2.18,17.76-1.53,26.45,0.43c5.07,1.14,10.09,2.75,14.56,5.46
				C489.87,272.72,494.16,281.06,495.04,291.57z M481.41,276.96c-1.66-2.65-7.23-5.56-9.79-6.1c-3.6-0.76-8.07-1.74-11.75-1.78
				c-5.67-0.06-11.38-0.38-16.98,0.56c-5.59,0.94-11.17,3.28-14.8,7.64c-3.82,4.59-5.02,10.75-6.09,16.63
				c-0.5,2.76,0.59,7.14,0.73,9.94c0.25,5.07,2.69,8.25,6.6,11.49c5.28,4.38,10.88,5.6,17.68,6.51c5.51,0.74,11.09,1.47,16.6,0.8
				c5.52-0.67,11.05-2.9,14.59-7.19c2.31-2.8,4.98-5.45,6.26-8.85c1.35-3.58,1.37-8.04,1.59-11.86
				C486.42,288.49,484.61,282.07,481.41,276.96z"/>
			<path d="M457.44,301.94c-0.64,0.99-1.37,1.95-2.32,2.64c-2.45,1.77-6.02,1.41-8.49-0.34c-2.46-1.75-3.93-4.64-4.59-7.58
				c-0.28-1.25-0.43-2.59,0-3.8c0.46-1.29,1.53-2.28,2.63-3.09c2.46-1.8,5.32-3.05,8.32-3.61c1.29-0.24,2.66-0.35,3.87,0.16
				C463.26,289.01,460.08,297.83,457.44,301.94z"/>
			<path class="st4" d="M450.73,291.98c-2.17,2.5-5.77,3.66-8.99,2.89c-0.5-0.12-1-0.28-1.44-0.55c-1.16-0.69-1.82-2-2.11-3.32
				c-1.55-7.05,3.66-11.39,10.27-10.59C454.19,281.11,453.86,288.38,450.73,291.98z"/>
		</g>
		<g>
			<path d="M486.57,316.64c-2.13,2-3.47,4.68-4.94,7.21c-7.78,13.47-20.28,24.16-34.79,29.76c-6.58,2.54-13.62,4.1-19.65,7.76
				c-8.58,5.21-14.17,14.08-19.44,22.62c-5.27,8.53-10.55,17.08-14.98,26.08c-3.18,6.46-5.94,13.15-9.71,19.29
				c-6.23,10.13-15.24,18.53-25.77,24.05c-0.79,2.34,0.2,4.87,1.18,7.14c2.78,6.45,6.06,13.44,12.41,16.44
				c8.83,4.17,18.99-1.19,28.73-1.88c5.97-0.42,11.98,0.96,17.94,0.43c5.02-0.45,9.8-2.23,14.52-3.99
				c7.39-2.76,15.1-5.75,20.24-11.73c2.54-2.96,4.42-6.6,7.67-8.77c2.47-1.64,5.53-2.27,7.87-4.08c4.01-3.09,4.91-8.65,7.22-13.16
				c2.33-4.54,6.17-8.08,9.65-11.82c16.2-17.44,25.25-41.33,24.69-65.13c-0.22-9.39-2-18.88-5.96-27.44
				C500.69,323.5,494.29,309.39,486.57,316.64z"/>
			<path class="st5" d="M482.15,331.54c-10.81,14.48-26.56,25.2-44,29.93c-2.61,0.71-5.28,1.3-7.67,2.56
				c-2.04,1.08-3.8,2.62-5.42,4.26c-5.46,5.52-9.55,12.24-13.25,19.06c-6.59,12.15-12.13,24.88-19.33,36.67
				s-16.31,22.82-28.29,29.71c-0.58,0.33-1.2,0.69-1.5,1.29c-0.55,1.08,0.18,2.34,0.87,3.33c2.74,3.89,5.47,7.78,8.21,11.67
				c0.55,0.78,1.12,1.59,1.93,2.11c2.64,1.7,5.97-0.35,8.83-1.63c7.77-3.48,16.87-1.04,25.26-2.48c5.74-0.99,11.05-3.8,16.8-4.75
				c3.42-0.57,6.95-0.47,10.29-1.39c8.72-2.41,14.16-11.03,22.02-15.51c4.06-2.31,9.28-4.09,10.53-8.59c0.46-1.65,2.85-4.33,3.19-6
				c0.58-2.88,3.29-5.39,4.97-7.8c3.75-5.39,6.07-8.88,9.51-14.47c3.83-6.24,7.97-12.05,11.78-18.31
				c5.82-9.57,7.34-24.43,6.67-35.62c-0.62-10.42-3.3-21-6.81-30.22C492.26,313.59,486.21,326.11,482.15,331.54z"/>
			<path d="M361.2,469.99c-2.45,3.88-2.84,9.21-0.27,13.01c0.63-1.58,1.36-3.11,2.2-4.59c0.57-1.01,1.2-2,2-2.85
				c1.69-1.8,4.06-2.86,5.68-4.72c1.48-1.7,3.94-8.81-0.49-7.89C366.79,463.7,363.06,467.05,361.2,469.99z"/>
			<path d="M394.4,480.3c-0.07,1.13-0.13,2.27,0.17,3.36s1.03,2.12,2.1,2.47c0.43,0.14,0.92,0.16,1.32-0.06
				c0.7-0.4,0.81-1.34,0.83-2.14c0.23-6.66,0.21-13.32-0.06-19.98c-0.05-1.26-0.76-3.46-2.44-2.49c-1.38,0.79-1.03,3.93-1.11,5.2
				C394.94,471.21,394.67,475.75,394.4,480.3z"/>
			<path d="M441.39,451.79c0.38,0.37,0.83,0.68,1.35,0.79c0.52,0.11,1.1,0,1.47-0.38c0.47-0.49,0.47-1.26,0.37-1.93
				c-0.22-1.58-4.49-12.91-7.11-9.28c-0.79,1.1,0.46,3.54,0.85,4.59C439.09,447.65,439.75,450.21,441.39,451.79z"/>
			<path d="M423.53,434.24c-0.91-0.1-1.84,0.55-2.05,1.44c-0.21,0.89,0.33,1.89,1.19,2.2c0.86,0.31,1.91-0.11,2.32-0.93
				c0.21-0.43,0.26-0.93,0.18-1.4c-0.06-0.4-0.21-0.81-0.51-1.09c-0.3-0.28-0.76-0.41-1.13-0.23"/>
			<path d="M405.64,406.63c-0.21,0.05-0.43,0.11-0.61,0.23c-0.21,0.14-0.35,0.36-0.47,0.58c-0.75,1.39-0.64,3.25,0.42,4.43
				s3.03,1.46,4.28,0.49c0.48-0.37,0.83-0.89,1.1-1.43c0.45-0.91,0.7-1.98,0.39-2.95C410.06,405.79,407.37,406.24,405.64,406.63z"/>
			<path d="M440.46,419.38c0.31,0.73,0.77,1.58,1.57,1.63c0.73-1.15,1.12-2.51,1.1-3.87c-0.01-0.99-0.28-2.06-1.06-2.68
				c-0.79-0.63-2.18-0.49-2.65,0.47C438.84,416.09,440.01,418.34,440.46,419.38z"/>
			<path d="M434.04,372.3c0.68-0.31,1.42-0.49,2.15-0.66c1.08-0.25,2.17-0.47,3.27-0.49c0.91-0.02,1.94,0.15,2.46,0.9
				c0.08,0.12,0.15,0.26,0.14,0.4c-0.02,0.15-0.12,0.28-0.23,0.38c-0.95,0.89-2.43,0.92-3.52,1.62c-1.56,1-2.12,3.23-3.83,3.94
				c-0.46,0.19-0.96,0.25-1.45,0.31c-0.36,0.04-0.72,0.08-1.06-0.03C428.51,377.58,432.56,372.97,434.04,372.3z"/>
			<path d="M452.91,387.7c1.24-0.15,2.5-0.02,3.73,0.19c0.98,0.17,2.01,0.43,2.72,1.13c0.71,0.7,0.96,1.97,0.26,2.68
				c-0.33,0.34-0.8,0.5-1.27,0.58c-2.06,0.34-4.15-0.7-6.23-0.47c-0.76,0.08-1.49,0.34-2.22,0.55c-1.29,0.37-2.61,0.63-3.94,0.81
				c-2.66,0.36-3.14-2.63-1.09-3.87c0.92-0.55,2.33-0.32,3.35-0.5C449.82,388.52,451.31,387.88,452.91,387.7z"/>
			<path d="M490.21,427.45c0.5,0.43,1.04,0.9,1.2,1.54c0.26,0.99-0.54,2.03-1.53,2.31c-0.98,0.28-2.05-0.05-2.92-0.57
				c-1.82-1.08-3.04-2.91-4.2-4.68c-2.76-4.23-5.54-8.47-7.67-13.05c-1.01-2.16,0.49-5.14,2.55-2.56c1.06,1.32,1.27,3.49,2.22,5
				C482.69,419.91,486.19,423.97,490.21,427.45z"/>
			<path d="M504.31,374.77c-2.45-1.95-5-4.03-6.15-6.94c-0.07-0.19-0.14-0.39-0.12-0.59c0.04-0.42,0.45-0.71,0.86-0.83
				c1.13-0.33,2.33,0.2,3.37,0.76c4.45,2.38,8.6,5.47,11.58,9.54c0.47,0.65,0.93,1.34,1.08,2.13c0.58,3.02-2.32,2.62-3.83,1.37
				C508.87,378.35,506.57,376.57,504.31,374.77z"/>
			<circle cx="467.43" cy="392.4" r="2.48"/>
			<circle cx="466.87" cy="353.66" r="2.2"/>
			<path d="M508.96,335.57c0.81,0.02,1.64,0.05,2.36,0.41c0.92,0.45,1.55,1.45,1.5,2.47c-0.06,1.02-0.85,1.97-1.85,2.15
				c-0.86,0.15-1.72-0.23-2.56-0.47c-2.13-0.6-4.4-0.3-6.57,0.1c-1.29,0.24-2.94,0.48-3.7-0.86c-0.61-1.08-0.22-2.21,0.72-2.83
				C501.37,334.89,506.12,335.49,508.96,335.57z"/>
			<path d="M495.29,319.63c2.19-1.35,4.86-2.03,7.39-1.57c0.89,0.16,1.78,0.47,2.43,1.1c0.14,0.13,0.27,0.29,0.3,0.47
				c0.06,0.35-0.24,0.68-0.57,0.79c-0.34,0.11-0.7,0.07-1.05,0.05c-1.68-0.06-3.32,0.62-4.73,1.55s-2.65,2.09-3.97,3.13
				c-0.42,0.33-0.86,0.66-1.36,0.84c-1.74,0.63-3.62-0.49-2.74-2.27C491.77,322.1,493.79,320.55,495.29,319.63z"/>
		</g>
		<g>
			<path d="M344.52,255.27c0.62-0.01,1.46-0.27,1.35-0.88c-0.06-0.31-0.35-0.5-0.61-0.68c-1.66-1.18-2.32-3.37-2.38-5.41
				c-0.06-2.04,0.37-4.07,0.37-6.11c0-3.44-1.34-6.99-4.03-9.13c-2.69-2.15-6.8-2.58-9.61-0.6c-1.37,0.97-2.43,2.45-4.03,2.92
				c-2.54,0.76-4.95-1.3-7.3-2.53c-2.77-1.45-6.14-1.81-9.07-0.74c-2.93,1.07-5.34,3.62-6.01,6.67c-0.67,3.03,0.13,6.75-2.18,8.81
				c-1.83,1.63-4.62,1.26-7.04,0.88c-2.51-0.4-5.13-0.7-7.56,0.06c-3.19,1-5.62,3.74-6.96,6.81c-1.34,3.07-1.75,6.45-2.03,9.79
				c-0.83,10.07-0.63,20.28-2.85,30.13c-1,4.43-2.63,8.99-6.11,11.91c-2.27,1.91-5.51,3.48-5.72,6.44c-0.12,1.77,0.97,3.39,2.2,4.67
				c2.68,2.78,6.15,4.64,9.68,6.2c19.93,8.77,43.62,8.56,63.39-0.57c2.26-1.05,4.55-2.26,6.09-4.22c1.23-1.56,1.89-3.48,2.36-5.41
				c1.68-6.86,1.09-14.25-1.65-20.76c-3.08-7.32-8.65-13.26-13.81-19.3c-2.51-2.93-4.94-5.92-7.3-8.97
				c-1.03-1.33-2.06-2.72-2.47-4.35c-0.39-1.56-0.16-3.21-0.44-4.79c-0.32-1.79-1.27-3.44-1.44-5.25s0.92-4,2.74-3.97
				c1.64,0.02,2.71,1.8,2.93,3.43c0.22,1.6-0.43,4.31,1.13,5.17c1.15,0.63,3.29-0.02,4.52-0.04
				C335.3,255.37,339.91,255.33,344.52,255.27z"/>
			<path class="st5" d="M336.6,251.35c-0.61-1.3-0.22-2.85,0.42-4.13c0.64-1.28,1.52-2.46,1.95-3.82c0.82-2.61-0.34-5.71-2.67-7.14
				c-2.33-1.43-5.62-1.07-7.58,0.83c1.75-0.69,2.79,3,4.62,2.57c-1.22,1.57-3.57,1.79-5.46,1.21s-3.52-1.81-5.27-2.74
				c-3.03-1.62-6.51-2.38-9.94-2.18c-2.5,0.15-5.37,1.18-6.01,3.6c-0.36,1.38,0.12,2.81,0.49,4.19c0.5,1.86,0.81,3.77,0.91,5.69
				c0.12,2.3-0.55,5.23-2.82,5.66c-0.94,0.18-1.9-0.17-2.78-0.55c-3.8-1.63-7.85-4.05-11.78-2.76c4.2,1.65,8.31,3.56,12.28,5.71
				c2.27,1.23,4.52,2.55,6.39,4.34c1.6,1.52,2.88,3.35,3.98,5.26c2.6,4.5,4.21,9.5,6.59,14.12c1.78,3.44,3.97,6.65,6.24,9.78
				c1.63,2.24,3.31,4.45,5.22,6.46c2.34,2.45,5.02,4.57,7.11,7.23c2.1,2.66,3.59,6.04,3.02,9.38c1.71-3.15,1.53-7.01,0.58-10.47
				c-0.95-3.45-2.61-6.67-3.81-10.05c-0.69-1.95-1.22-3.96-2.17-5.79c-1.08-2.1-2.65-3.89-4.21-5.67c-2.21-2.52-4.43-5.04-6.64-7.56
				c-2.92-3.32-5.89-6.73-7.54-10.84c-1.67-4.15-1.87-8.72-2.04-13.19c-0.08-2.08-0.02-4.49,1.61-5.77
				c1.61-1.27,3.94-0.79,5.88-0.14c1.54,0.52,3.1,1.15,4.26,2.3c1.28,1.28,1.65,2.97,1.15,4.68
				C331,251.85,334.12,251.65,336.6,251.35z"/>
			<path class="st2" d="M333.57,306.21c-1.34-1.56-3.17-2.6-4.68-3.99c-1.88-1.71-3.24-3.91-4.58-6.07
				c-5.24-8.49-10.49-16.97-15.73-25.46c-1.16-1.88-2.33-3.77-3.8-5.43c-2.1-2.36-4.74-4.18-7.47-5.77
				c-2.56-1.5-5.22-2.84-7.96-3.99c-1.19-0.5-2.52-0.97-3.74-0.54c-1.15,0.41-1.88,1.53-2.39,2.63c-1.83,3.92-1.98,8.41-1.59,12.71
				s1.29,8.56,1.44,12.88c0.35,10.26-3.78,20.6-11.1,27.79c-0.6,0.59-1.26,1.22-1.42,2.06c-0.35,1.85,1.83,3.07,3.61,3.66
				c11.85,3.92,24.2,7.29,36.65,6.41c7.57-0.54,14.94-2.64,22.12-5.09c0.41-0.14,0.84-0.29,1.14-0.61c1.03-1.07,1.19-4.37,1.4-5.85
				C335.74,309.61,334.82,307.67,333.57,306.21z"/>
			<path d="M302.97,272.98c-0.99-1.55-2-3.11-3.26-4.45c-1.49-1.59-3.3-2.85-5.09-4.09c-1.75-1.22-3.5-2.43-5.25-3.65
				c-1.13,1.78-0.79,4.08-0.41,6.15c0.47,2.51,0.95,5.02,1.63,7.47c0.71,2.57,1.65,5.07,2.33,7.64c1.14,4.27,1.6,8.69,1.87,13.1
				c0.17,2.74,0.21,5.72-1.4,7.95c-1.93,2.68-5.53,3.38-8.74,4.11c-3.22,0.73-6.82,2.06-7.94,5.16c4.35-2.4,9.7-1.25,14.56-0.22
				c9.36,1.98,19,3.28,28.5,2.11c1.86-0.23,4.14-0.98,4.36-2.84c0.09-0.8-0.26-1.59-0.6-2.32c-2.74-5.86-5.3-11.99-8.78-17.45
				C310.8,285.45,306.94,279.18,302.97,272.98z"/>
		</g>
	</g>
</g>
</svg>
