<?xml version="1.0" encoding="utf-8"?>
<!-- Generator: Adobe Illustrator 26.0.3, SVG Export Plug-In . SVG Version: 6.00 Build 0)  -->
<svg version="1.1" id="Calque_1" xmlns="http://www.w3.org/2000/svg" xmlns:xlink="http://www.w3.org/1999/xlink" x="0px" y="0px"
	 viewBox="0 0 640 640" style="enable-background:new 0 0 640 640;" xml:space="preserve">
<style type="text/css">
	.st0{clip-path:url(#SVGID_00000162350569867009718700000001828071751979052428_);}
	.st1{fill:#8F7867;}
	.st2{fill:#675647;}
	.st3{fill:none;stroke:#000000;stroke-width:1.3586;stroke-miterlimit:10;}
	.st4{fill:#020303;}
	.st5{fill:#FFFFFF;}
</style>
<g>
	<defs>
		<rect id="SVGID_1_" x="0" y="-0.12" width="640" height="640"/>
	</defs>
	<clipPath id="SVGID_00000117675227056213248440000007325989744176570498_">
		<use xlink:href="#SVGID_1_"  style="overflow:visible;"/>
	</clipPath>
	<g style="clip-path:url(#SVGID_00000117675227056213248440000007325989744176570498_);">
		<path d="M507.05,401.92c5.21-7.21,20.16-40.8,28.68-46.29c2.83-1.83,6.35-3.54,10.2-3.3c4.87,0.3,6.29,12.98,8.46,16.01
			c5.39,7.53,0.89,32.9,0.78,41.31c-0.17,12.37-6.45,24.24-11.64,36.07c-18.69,42.59-17.11,99.81-8.45,143.91
			c0.32,1.65,3.71,9.12,1.89,10.21c-1.27,0.76-8.82,2.79-10.48,2.67c-9.61-0.71-21.65-21.85-27.82-30.51
			c-10.83-15.2-20.39-29.29-23.67-45.43c-3.14-15.48-6.62-33.4-3.77-48.99c3.03-16.52,10.61-33.22,18.96-48.78
			C495.11,419.63,500.73,410.66,507.05,401.92z"/>
		<path class="st1" d="M504.5,426.9c3.13-5.74,7.57-19.44,12.67-24.14s17.55-42.66,25.22-43.14c3.02-0.19,7.22,32.51,8.92,34.56
			c0.94,1.13-8.11,9.26-7.91,10.61c1.29,8.69,2.56,17.62-0.14,26.09c-2.26,7.1-7.17,13.42-12.01,19.6
			c-12.83,16.4-25.67,32.81-38.5,49.21c-4.32,5.53-12.48,12.42-20.13,14.42c0.48-0.12-2.99-20.71-2.43-23.15
			c1.42-6.18,7.98-19.2,9.75-25.32C484.4,450.26,496.63,441.33,504.5,426.9z"/>
		<path d="M502.99,458.34c20.9-30.42,61-99.99,96.27-115.65c12.88-5.72,22.17-8.89,32.83-0.13c5.8,4.77-7.8,47.01-6.28,54.02
			c2.93,13.51,2.97,27.4,2.46,41.16c-2.02,54.12-4.95,107.98-21.41,159.98c-3.52,11.11-7.38,22.29-14.08,32.1
			c-1.45,2.12-3.07,4.21-5.25,5.72c-3.96,2.73-9.27,3.2-14.2,2.79c-20.03-1.68-34.8-17.68-47.03-32.33
			c-14.11-16.9-32.18-33.01-40.22-52.97c-4.19-10.39-2.04-21.88-4.43-32.74c-1.97-8.95-5.53-17.86-2.16-26.45
			C484.35,481.43,495.33,469.48,502.99,458.34z"/>
		<path class="st1" d="M545.87,409.57c7.68-9.08,20.38-31.55,31.82-37.69c4.14-2.22,13.93-11.93,18.07-14.73
			c12.11-8.21,23.39-10.49,26.47-7.37c2.03,2.06-6.95,42.9-6.23,45.45c4.49,16.02,7.03,31.74,5.64,48.11
			c-0.48,5.68-0.64,26.47-1.75,32.32c-2.4,12.62-3.57,20.71-6.99,20.65c-12.85-0.22-17.15-5.15-33.22-2.6
			c-10,1.59-30.95,9.95-42.15,9.95c-28.98,0-52.84,43.21-56.8,30.56c-2.17-6.91-4.46-37.78,20.34-59.85
			c7.97-7.1,11.74-21.38,18.41-29.27C527.22,435.94,538.13,418.73,545.87,409.57z"/>
		<path d="M603.35,393.94c2.88,3.47,0.67,9.83-0.41,11.42c-1.15,1.7-2.72,2.73-4.21,4.2c-0.3,0.3-0.58,0.64-0.64,1.02
			c-0.05,0.31,0.06,0.62,0.16,0.91c0.78,2.38,0.55,5.74-2.44,6.94c0.13-1.23,0.21-2.49-0.2-3.63c-0.41-1.14-1.41-2.14-2.74-2.28
			c-0.09,2.24-0.17,4.48-0.26,6.72c-0.57,0.08-1.14,0.24-1.66,0.48c-0.04-2.35-0.67-4.66-1.83-6.68c-0.94,2.52-1.28,5.17-0.99,7.73
			c-1.96,0.09-3.79-0.98-4.54-2.55c-0.74-1.58-0.4-3.57,0.79-5.07c-2.03,0.92-4.5,0.54-6.12-0.68c-1.62-1.22-2.45-3.15-2.58-5.12
			c-0.13-1.97,0.38-3.98,1.12-5.91c0.82-2.16,1.95-4.29,3.6-6.07c2.17-2.35,5.21-4.01,8.41-4.78c3.2-0.76,6.56-0.65,9.59,0.19
			C600.04,391.13,602.24,392.61,603.35,393.94z M582.15,405.33c0.18,0.28,0.44,0.5,0.69,0.72c0.45,0.39,0.91,0.79,1.36,1.18
			c0.15,0.13,0.29,0.25,0.47,0.34c0.44,0.21,1.03,0.11,1.49-0.14c0.6-0.32,1.03-0.91,1.12-1.51c0.08-0.55-0.1-1.09-0.05-1.64
			c0.08-1.06,0.54-1.76-0.38-2.55c-0.58-0.5-1.42-0.89-2.26-0.62C582.91,401.67,581.23,403.9,582.15,405.33z M593.5,401.28
			c-0.02,1.04,0.36,2.36,0.95,3.19c0.38,0.55,1.11,1.04,1.81,0.75c0.51-0.21,0.75-0.74,1.03-1.19c0.33-0.54,0.8-1.03,1.34-1.41
			c0.27-0.19,0.58-0.37,0.75-0.65c0.12-0.2,0.15-0.43,0.16-0.65c0.05-1.73-1.21-3.33-3-3.81c-0.47-0.13-1.02-0.17-1.46,0.06
			C594.03,398.11,593.51,400.33,593.5,401.28z"/>
		<path class="st2" d="M529.32,519.95c4.07-1.36,8.63-1.56,12.65-3.01c7.25-2.61,11.91-8.95,19.47-10.87
			c2.99-0.76,6.18-0.74,9.3-0.72c10.01,0.07,20.02,0.13,30.03,0.2c0.76,0.01,10.51-0.45,11.1-0.06c0.79,0.51,0.88,1.44,0.9,2.25
			c0.94,39.85-2.98,77.97-30.57,117.27c-6.43,3.86-14.17,1.61-17.39,0c-19.67-9.85-35.03-27.72-48.3-43.07
			c-7.85-9.09-33.07-37.66-16.77-46.97c3.77-2.15,8.75-2.81,12.67-4.87C518.31,527,522.71,522.17,529.32,519.95z"/>
		<path d="M562.37,610.7c-3.51-3.96-5.81-9.81-7.69-15.97c-1.11-3.66-2.11-7.66-1.57-12.36c0.71-6.23,3.92-12.39,7.13-17.86
			c4.43-7.56,9.56-15.17,15.37-18.33c5.25-2.85,10.15-1.56,14.53,0.35c4.35,1.89,8.68,4.61,10.59,10.53
			c2.33,7.18,0.57,17.79-2.92,27.03c-3.85,10.22-9.79,19.45-16.44,25.79C573.89,617,567.51,616.49,562.37,610.7z M583.46,557.94
			c-6.54,1.68-13.6,9.17-17.62,18.68c-0.83,1.96-1.54,4.03-1.86,6.08c-0.48,3.05-0.05,5.8,0.54,8.27
			c1.28,5.39,3.72,10.41,7.94,10.25c2.93-0.11,6.19-2.78,8.94-6.12C591.05,583.39,598.87,553.98,583.46,557.94z"/>
		<path class="st3" d="M583.44,583.76c-0.56,1.36-3.28,4.86-4.06,5.99c-1,1.44-2.21,2.3-3.37,3.1c-1.68,1.17-3.54,2.36-4.87,1.62
			c-1.47-0.82-2.5-3.25-2.54-5.93c-0.02-1.84-0.67-5.27-0.25-7.27c1-4.66,3.89-8.69,6.55-12.23c1.25-1.65,4.61-3.57,6.01-4.38
			c0.98-0.57,1.94-0.65,2.86-0.65c1.03,0,2.07,0.11,2.75,0.97C589.27,568.46,585.39,579.06,583.44,583.76z"/>
		<path d="M579.26,581.9c-0.73,0.16-1.47,0.22-2.02-0.2c-0.73-0.56-1.03-1.91-0.95-3.39s0.48-3.06,0.96-4.59
			c0.48-1.49,1.06-3,1.88-4.22c0.71-1.05,1.57-1.84,2.41-2.19c1.72-0.72,3.17,0.56,3.55,2.78c0.38,2.22-0.22,5.19-1.36,7.72
			c-0.24,0.53-0.5,1.04-0.76,1.55C582.13,581.02,579.26,581.9,579.26,581.9z"/>
		<path d="M562.78,407.85c0.87,1.16,1.71,2.43,1.94,3.91c0.23,1.48-0.33,3.19-1.6,3.79c2.84,0.72,5.15,3.47,5.53,6.6
			c0.38,3.13-1.18,6.44-3.76,7.93c4.12,2.15,6.16,8.06,4.35,12.61c-0.29,0.72-0.66,1.45-0.6,2.24c0.11,1.29,1.31,2.06,2.27,2.84
			c3.73,3.05,4.76,9.33,2.23,13.58c-0.46,0.78-1.05,1.58-0.97,2.5c0.09,1.13,1.1,1.84,1.88,2.6c3.28,3.18,2.73,9.77-1.02,12.27
			c1.59,1.04,2.5,3.16,2.23,5.14c-0.15,1.1-0.62,2.11-0.96,3.16c-1.46,4.51-0.75,10.28-4.17,13.3c4.02,0.72,8.2-3.15,8.15-7.56
			c-0.02-2.39-1.05-4.99,0.09-7.04c0.49-0.88,1.31-1.49,1.93-2.27c1.11-1.41,1.5-3.45,1-5.23c-0.26-0.94-0.76-1.84-0.69-2.81
			c0.06-0.76,0.46-1.43,0.79-2.11c1.55-3.22,1.47-7.29-0.19-10.44c-0.6-1.13-1.39-2.17-1.69-3.42c-0.28-1.14-0.12-2.35,0.06-3.51
			c0.62-3.96,1.43-8.3-0.4-11.79c-0.89-1.7-2.37-3.07-2.88-4.96c-0.59-2.2,0.28-4.53,0.18-6.82s-2.25-4.83-4.04-3.6
			c0.67-3.3,1.35-6.72,0.75-10.04c-0.64-3.57-2.71-6.77-2.95-10.39c-0.1-1.56,0.12-3.21-0.53-4.61c-0.87-1.88-2.98-2.59-4.86-3.11
			c0.19-1.48,0.15-3.41-1.15-3.92c-0.42-0.17-0.88-0.13-1.32-0.14c-2.58-0.11-8.49-6.2-9.41-2.79c-1.01,3.73,4.79,5.58,2.19,10.33
			C558.21,403.05,560.97,405.45,562.78,407.85z"/>
		<path d="M532.45,435.06c2.55,0.43,4.42,3.98,2.48,5.7c1.38-1.14,3.47-1.02,5.06-0.2s2.78,2.23,3.94,3.6
			c1.32,1.57,2.68,3.21,3.17,5.2c0.49,1.99-0.17,4.42-2.02,5.3c3.05,0.87,4.85,4.68,3.6,7.59c-0.33,0.77-0.84,1.58-0.57,2.37
			c0.22,0.65,0.9,1.01,1.35,1.53c1.11,1.3,0.62,3.25,0.34,4.94c-0.11,0.63-0.17,1.27-0.11,1.9c0.07,0.75,0.33,1.47,0.57,2.19
			c0.55,1.68,0.99,3.39,1.43,5.11c0.48,1.88,0.97,3.77,1.45,5.65c0.58,2.26,1.16,4.53,1.34,6.86c0.5,6.38-2.26,12.93-7.17,17.03
			c-1.17-1.86-0.21-4.27,0.63-6.3s1.43-4.68-0.18-6.18c-0.66-0.61-1.62-0.93-2.02-1.73c-0.34-0.67-0.18-1.47-0.04-2.21
			c0.51-2.76,0.62-5.6,0.3-8.4c-0.16-1.41-1.14-3.25-2.45-2.71c0.73-2.61,1.06-5.32,0.99-8.03c-0.03-1.03-0.14-2.11-0.74-2.94
			s-1.84-1.29-2.69-0.71c0.62-2.93,0.74-5.97,0.36-8.94c-0.2-1.53-1.67-3.5-2.82-2.46c0.25-1.53,0.49-3.12,0.03-4.6
			c-0.46-1.48-1.87-2.78-3.41-2.57c0.16-1.86,0.01-3.74-0.42-5.56c-0.79,0.83-2.22-0.05-2.69-1.1c-0.47-1.05-0.58-2.33-1.46-3.06
			c-1.87-1.55-5.2,0.84-7-0.81C520.51,438.62,530.6,434.76,532.45,435.06z"/>
		<path d="M525.43,498.65c-1.26-1.64-4.33-1.81-5.13,0.09c0.6-2.42,1.2-4.84,1.8-7.26c0.33-1.32,0.65-2.74,0.13-3.99
			c-0.52-1.25-2.27-2.06-3.28-1.15c0.74-1.67,1.49-3.38,1.63-5.2c0.13-1.82-0.47-3.81-1.97-4.85c-1.5-1.04-3.93-0.71-4.73,0.93
			c-0.01-1.95-0.02-3.89-0.03-5.84c-1.82,0.02-3.59,1.02-4.57,2.55c0.52-1.53-1.19-3.09-2.81-3.02c-1.62,0.07-2.98,1.19-4.13,2.33
			s-2.28,2.41-3.82,2.92c1.39-2.56,2.81-5.15,4.87-7.21c2.06-2.05,4.89-3.53,7.79-3.29c0.46,0.04,0.92,0.12,1.38,0.2
			c0.58,0.1,1.16,0.2,1.73,0.31c1.21,0.21,2.49,0.47,3.36,1.33c0.87,0.86,1.02,2.55-0.02,3.19c2.03-0.51,4.34,0.77,4.98,2.75
			c0.19,0.58,0.26,1.23,0.68,1.68c0.72,0.78,2.03,0.52,2.95,1.05c2.2,1.25,0.23,4.91,1.46,7.12c0.24,0.43,0.59,0.78,0.79,1.23
			c0.26,0.56,0.25,1.21,0.23,1.82c-0.13,5.12-0.25,10.23-0.38,15.35c-0.08,3.41-0.78,5.95-3.41,8.26
			C524.28,506.29,528.3,502.39,525.43,498.65z"/>
		<path d="M590.18,515.5c1.94-3.67,3.89-7.33,5.83-11c1.41,4.21,2.54,8.51,3.37,12.87c0.57-5.07,1.14-10.15,1.71-15.22
			c0.02-0.18,0.04-0.36-0.02-0.52c-0.15-0.39-0.65-0.48-1.07-0.49c-4.59-0.12-5.74-0.63-6.82,3.8
			C592.36,508.27,591.8,512.44,590.18,515.5z"/>
		<path d="M606.59,378.19c-3.38-4.96-12.01-4.77-14.24-10.34c1.38,2.74,5.01,3.16,7.95,4.04c3.73,1.12,6.78,3.47,9.15,6.52
			c1.97,2.54,1.16,2.1,3.99,2.42c2.21,0.24,4.24-0.28,6.11,1.54c1.46,1.43,2.67,5.64-0.12,6.71c-2.48,0.95-7.52-3.67-10.96-3.36
			C608.03,383.14,608.14,380.47,606.59,378.19z"/>
		<path d="M530.13,375.92c-0.07,0.58-0.12,1.24,0.27,1.68c0.24,0.28,0.61,0.4,0.94,0.55c2.46,1.08,3.94,4.02,3.33,6.64
			c-0.13,0.55-0.33,1.14-0.09,1.65c0.17,0.34,0.51,0.57,0.71,0.89c0.28,0.44,0.28,1,0.25,1.52c-0.25,4.4-1.65,8.73-4.03,12.44
			c0.2-4.2,0.39-8.4,0.59-12.6c0.02-0.53,0.04-1.1-0.25-1.54c-0.45-0.67-1.45-0.75-2.17-0.39c-0.72,0.36-1.22,1.03-1.7,1.68
			c0.55-1.57-1.24-3.39-2.82-2.87c-0.49,0.16,1.51-11.58,2.05-12.72C530.13,366.63,530.58,372.27,530.13,375.92z"/>
		<path d="M587.48,633.28c3.56,0.6,8.47-6.41,10.53-9.2c2.06-2.78,2.59-7.94,5.32-10.17s7.39-6.8,9.56-4.09
			c2.11,2.63,3.32,12.58,6.83,12.59c1.61,0,3.46-2.98,4.25-4.29c2.67-4.46,3.73-9.16,2.13-14.05c-1.23-3.73-2.21-9.67-3.58-13.35
			c-3.76-10.08,1.82-17.46,4.18-27.91c2.76-12.23,2.37-25.07-1.13-37.14c-0.44-1.52-0.97-3.1-2.13-4.24
			c-1.16-1.15-3.14-1.72-4.58-0.9c-1.11,0.63-1.12,12.95-1.35,14.68c-0.63,4.88-1.45,9.73-2.46,14.56
			c-1.59,7.65-1.22,15.08-2.61,22.7C608.96,591.63,596.72,615.89,587.48,633.28z"/>
		<path class="st2" d="M617.67,543.48c1.65,11.53-1.48,23.14-2.41,34.75c-0.25,3.11-1.89,6.93-1.25,9.98
			c0.96,4.55,3.47,8.6,5.06,12.97c1.59,4.37,3.7,8.97,0.96,12.72c-0.68-1.53-0.99-4.55-1.67-6.08c-1.01-2.28-0.82-3.43-2.98-4.68
			c-3.07-1.77-8.69-0.29-11.72,1.55c-3.03,1.84-5.86,4.26-9.35,4.89c-1.11,0.2-2.61-0.06-2.79-1.17c-0.11-0.67,0.34-1.28,0.75-1.82
			c2.37-3.19,3.82-6.97,5.02-10.77c2.08-6.61,3.48-13.42,4.88-20.21c1.79-8.72,3.58-17.43,5.38-26.15
			c0.89-4.31,1.77-8.63,2.66-12.94c0.55-2.67,0.62-8,2.35-10.05c1.27,1.45,1.46,4.06,2.04,5.88
			C615.79,536.07,617.12,539.6,617.67,543.48z"/>
		<path class="st1" d="M535.45,576.66c0.91-1.39,2.26-2.47,3.06-3.93c1.19-2.18,0.95-4.88,1.87-7.19c1.03-2.61,3.43-4.52,4.37-7.16
			c0.48-1.35,0.56-2.85,1.3-4.07c1.44-2.38,4.85-2.94,6.34-5.29c2.22-3.49-1.18-7.97-0.76-12.08c0.17-1.64,0.94-3.14,1.57-4.66
			c1.72-4.2,2.39-8.82,1.91-13.33c-0.06-0.6-0.23-1.31-0.8-1.52c-0.39-0.14-0.82,0.02-1.21,0.18c-2.73,1.13-5.46,2.26-8.19,3.4
			c-8.28,3.43-16.64,6.91-23.86,12.22c-1.26,0.93-2.52,1.93-4.03,2.35c-1.37,0.39-2.84,0.26-4.25,0.52c-5,0.94-7.83,6.75-7.28,11.81
			s3.55,9.47,6.47,13.64c4.43,6.32,8.9,12.63,13.94,18.48c1.23,1.43,5.62,7.64,7.5,6.51C535.23,585.42,534.02,578.87,535.45,576.66z
			"/>
		<g>
			<path d="M305.19,650.08c-6.22-14.35-9.54-29.95-9.71-45.59c-2.74,1.13-5.21,2.9-7.17,5.12c-2.41-12.36-4.82-24.71-7.23-37.07
				c-0.64-3.28-1.41-6.8-3.88-9.05c-2.47-2.25-7.22-2.19-8.5,0.9c-0.45-11.98-1.64-23.94-3.56-35.78c-2.45-0.38-5.03,0.2-7.08,1.6
				c-2.23-8.36-4.46-16.73-6.68-25.09c-0.68-2.55-1.46-5.27-3.49-6.97s-5.7-1.64-6.82,0.75c-0.87-13.83-3.96-27.52-9.13-40.37
				c-1.16,2.5-2.33,5-3.49,7.51c0.41-6.37,0.82-12.83-0.41-19.09s-4.3-12.42-9.56-16.04c-0.47,1.09-0.94,2.18-1.4,3.27
				c1.87-12.82-2.05-26.37-10.48-36.21c-1.28,0.5-1.94,2.19-1.34,3.43c-1.39,2.01-2.85,5.05-4.24,7.06
				c-4.75-6.19-11.08-11.17-18.21-14.32c-1.59,2.7-1.53,6.29,0.15,8.94c-9.02-1.74-18.66-0.06-26.56,4.64
				c2.53,1.39,5.05,2.79,7.58,4.18c-10.46,1.37-20.51,5.76-28.63,12.5c1.7,0.81,3.4,1.62,5.1,2.43c-7.77,2.9-14.58,8.31-19.17,15.22
				c2.44,1.13,5.15,1.69,7.84,1.61c-7.59,4.68-13.53,11.98-16.58,20.35c1.24,0.29,2.49,0.59,3.73,0.88
				c-6.83,6.22-12.41,13.82-16.3,22.2c1.77,1.27,4.09,1.73,6.2,1.24c-1.47,2.75-3.87,4.88-5.58,7.49c-1.71,2.61-2.63,6.18-0.9,8.77
				s6.77,2.28,7.18-0.81c-3.71,5.48-5.17,12.43-3.98,18.94c0.12,0.68,0.32,1.42,0.88,1.82c1.05,0.76,2.47-0.16,3.43-1.03
				c2.14-1.94,4.27-3.89,6.41-5.83c-0.21,4.61,0.42,9.25,1.84,13.64c0.47,1.44,1.09,2.95,2.35,3.79s3.32,0.62,3.89-0.78
				c3.66,7.25,9.09,13.6,15.68,18.34c4.91,3.53,10.68,6.23,16.73,6.28c13.02,0.12,23.5-12.51,24.91-25.45
				c1.41-12.94-4.14-25.65-11.04-36.69c-0.76,5.87-1.58,11.9-4.43,17.09c-2.85,5.19-8.25,9.42-14.16,9.12
				c-7.73-0.4-13.16-8.12-14.93-15.66c-3.47-14.77,3.21-31.37,15.94-39.63c5.56-3.61,12.74-5.66,18.84-3.08
				c9.67,4.09,11.6,16.71,12.12,27.2c2.17-0.16,4.33-0.31,6.5-0.47c-0.82,4.51-1.62,9.27-0.04,13.57c1.59,4.3,6.5,7.72,10.75,6
				c-0.33,6.36,0.3,12.77,1.87,18.94c0.51,2,1.21,4.11,2.85,5.35c1.65,1.24,4.51,1,5.27-0.92c0.25,13.46,2.39,26.87,6.36,39.74
				c2.11-0.58,3.96-2.05,5-3.98c-0.23,7.89,0.24,15.81,1.4,23.62c0.34,2.31,0.81,4.75,2.4,6.46s4.67,2.23,6.17,0.44
				c-0.68,8.71,0.57,17.58,3.64,25.76c2.64-1.35,5.27-2.71,7.91-4.06c-1.06,8.99,0.72,18.3,5.02,26.27
				c0.79,1.47,1.72,2.95,3.14,3.84c1.32,0.82,2.91,1.05,4.45,1.24c15.16,1.92,30.4,3.18,45.67,3.77
				C302.34,657.53,306.24,652.5,305.19,650.08z"/>
			<path class="st2" d="M295.69,643.78c-2.53-7.1-3.81-14.64-3.76-22.17c0.01-1.79,0.03-3.77-1.15-5.11
				c-1.18-1.34-5.76,2.37-5.88,4.15c-5.6-14.02-7.12-33.43-12.78-48.25c-1.52,0.39-5.35,1.65-6.34,2.86
				c-3.94-11.1-5.1-24.45-5.51-36.23c-2.27,1.8-6.93,2.03-8.49-0.4c-1.56-2.43-1.71-5.47-2-8.35c-0.77-7.69-2.3-16.33-5.62-23.31
				c-1.41,1.08-4.03,6.34-4.22,8.11c-6.48-11.41-5.03-30.84-8.5-43.38c-1.17,2.77-4.35,8.46-7.04,9.82
				c-1.69-13.45-0.49-28.09-4.39-41.7c-1.2,2.7-3.67,5.05-5.54,3.93c-1.88-1.12-2.46-3.51-2.99-5.63
				c-1.82-7.39-4.9-14.46-9.06-20.84c-0.47,1.09-0.94,2.18-1.41,3.26c-3.24-4.95-7.52-9.22-12.47-12.45c0.33,2,0.66,4,0.99,6
				c-5.31-2.31-11.17-3.35-16.96-2.99c1.76,1.04,1.44,3.91-0.09,5.27c-1.52,1.37-3.69,1.67-5.72,1.97
				c-6.29,0.96-12.47,2.57-18.43,4.82c2.54,0.52,5.74,1.88,5.47,4.46c-0.19,1.86-2.17,2.93-3.89,3.66
				c-6.47,2.72-13.01,5.26-19.63,7.6c2.92-0.22,5.87-0.1,8.77,0.34c0.68,0.1,1.39,0.24,1.89,0.71c1.59,1.49-0.44,3.97-2.29,5.13
				c-3.79,2.38-7.58,4.76-11.37,7.14c2.72-0.13,6.44,0.6,6.48,3.33c0.02,1.34-0.97,2.46-1.91,3.42
				c-6.12,6.31-14.11,13.15-20.23,19.46c2.67,0.7,7.71-2.48,9.89-0.79c1.93,1.49,0.78,4.57-0.61,6.57
				c-3.44,4.94-7.54,9.42-12.15,13.29c2.33-0.73,4.67-1.46,7-2.18c0.67-0.21,1.48-0.39,2.01,0.06c0.38,0.32,0.49,0.86,0.5,1.36
				c0.17,5.79-8.03,9.4-7.5,15.17c2.07-1.88,4.75-3.07,7.53-3.34c0.49-0.05,1.02-0.06,1.44,0.19c1.18,0.68,0.67,2.45,0.13,3.7
				c-1.86,4.28-2.32,9.15-1.31,13.71c1.7-1.05,3.41-2.11,5.11-3.16c-0.23,8.74,5.24,17.1,12.87,21.38
				c7.62,4.28,17.03,4.74,25.44,2.36c3.8-1.08,7.61-2.84,9.93-6.04c1.77-2.44,2.5-5.49,2.81-8.49c0.74-7-1.04-16.05-4.22-22.33
				c-0.11,6.63-3.7,14.9-9.64,17.85c-5.94,2.95-14.29,4.3-19.65,0.38c-3.12-2.28-7.56-6.99-9.41-10.39
				c-5.98-10.98-5.34-25.57-1.45-37.45c3.9-11.88,13.99-21.36,25.6-26.02c5.2-2.09,10.99-3.11,16.43-1.78
				c5.44,1.33,10.41,5.33,11.89,10.73c1.87,6.79,1.89,13.47,0.91,20.45c1.08-1.92,4.02-2.02,5.8-0.72c1.78,1.29,2.65,3.48,3.28,5.59
				c1.4,4.67,2.09,9.56,2.04,14.44c0.26-3.1,4.1-5.01,7.04-4.01c2.95,1,4.81,4.07,5.26,7.14c0.45,3.08-0.25,6.2-0.99,9.23
				c-0.74,3.02-1.53,6.11-1.25,9.21c2.68-1.94,6.69-1.15,9.06,1.17s3.31,5.76,3.39,9.07c0.09,3.31-0.57,6.58-0.93,9.87
				c-0.5,4.52-0.43,9.11,0.2,13.61c2.7-2.44,7.45-2,9.66,0.88c1.72,2.24,1.82,5.28,1.86,8.11c0.09,7.64-3.8,17.06-1.3,22.65
				c1.12-2.84,2.88-2.85,4.24-2.95c1.36-0.1,2.63,0.83,3.32,2c0.69,1.17,0.91,2.55,1.08,3.91c0.69,5.76,0.53,11.62-0.47,17.33
				c1.59-1.67,4.27-1.91,6.43-1.1s3.86,2.5,5.31,4.29c1.45,1.79,2.74,3.8,3.14,6.07c0.42,2.38-0.17,4.81-0.6,7.19
				c-1,5.52-1.15,11.2-0.45,16.77c0.1,0.79,0.23,1.62,0.69,2.27c0.77,1.09,2.21,1.41,3.52,1.64c5.84,1.04,11.7,2.01,17.56,2.91
				c2.06,0.31,4.14,0.62,6.21,0.37c2.03-0.24,3.96-1.01,5.84-1.82C288.19,646.99,291.9,645.96,295.69,643.78z"/>
			<path d="M213.01,452.53c0.92,4.36,1.82,8.73,2.69,13.1c0.25,1.24,0.46,2.65-0.27,3.68c-2.57,3.62-5.22-1.29-5.14-3.61
				c0.07-2.24,0.34-4.49,0.79-6.68C211.4,457.47,213.3,453.89,213.01,452.53z"/>
		</g>
		<path d="M414.8,450.99c3.35,0.02,6.71,0.04,10.06,0.06c-3.47,2.59-6.03,6.38-7.14,10.56c2.55,0.06,5.1,0.12,7.65,0.18
			c-1.65,2.33-3.31,4.65-4.96,6.98c3.94,1.17,5.01,7.39,1.68,9.8c3.49,0.65,3.26,6,1.02,8.76c-2.24,2.76-5.67,4.99-6.08,8.52
			c2.74-0.58,5.05,2.64,4.7,5.42c-0.35,2.78-2.39,5-4.32,7.02c-3.21,3.36-6.41,6.72-9.62,10.07c2.36,2.93,5.79,4.99,9.49,5.69
			c-0.41,2.35-2.4,4.04-4.28,5.51c-1.88,1.47-3.89,3.11-4.4,5.43c-0.51,2.33,1.61,5.21,3.86,4.43c-4.42,4.45-7.87,9.85-10.05,15.72
			c2.8-0.21,5.6-0.43,8.39-0.64c-5.25,2.55-8.91,8.09-9.2,13.91c1.84-2.05,4.71-3.14,7.45-2.82c-0.47,4.09-2.42,8-5.42,10.82
			c1.48,0.14,2.96,0.28,4.44,0.42c-2.64,2.26-5.28,4.51-7.92,6.77c-1.29,1.11-2.71,2.85-1.82,4.3c0.47,0.76,1.41,1.07,2.28,1.31
			c2.51,0.71,5.02,1.41,7.54,2.12c-3.8,8.47-7.6,16.94-11.4,25.41c2.16,0.01,4.32-0.78,5.97-2.17c-2.43,6.56-5.64,12.84-9.52,18.67
			c2.51,0.91,5.27,1.13,7.89,0.63c-5.91,6.42-8.77,15.54-7.58,24.18c9.69-3.79,20.39-3.9,30.8-3.86
			c33.59,0.15,67.95,1.55,99.18,13.91c-1.52-11.1-6.74-21.66-14.64-29.6c3.19,0.36,6.38,0.72,9.57,1.09
			c-9.12-7.98-14.49-20.08-14.28-32.2c3.14,0.09,6.28,0.19,9.42,0.28c-3.83-4.09-7.66-8.17-11.49-12.26
			c1.48-0.27,2.97-0.54,4.45-0.81c-1.76-3.08-3.93-5.92-6.43-8.42c1.21-2.05,3.62-3.33,6-3.19c-3.25-6.68-6.51-13.37-9.76-20.05
			c3.21,0.51,6.41,1.03,9.62,1.54c-5.29-3.43-9.57-8.41-12.16-14.17c-3.15-7-4.15-15.51-10.07-20.4c2.05,1.27,4.47,1.95,6.89,1.93
			c-3.42-2.68-6.01-6.4-7.35-10.54c1.53,0.67,3.06,1.33,4.59,2c-1.73-4.33-3.46-8.65-5.19-12.98c1.81,0.88,3.91,1.15,5.88,0.75
			c-3.92-2.69-6.86-6.79-8.15-11.37c2.39,0.35,3.23,0.47,5.62,0.82c-3.45-3.4-4.82-7.11-7.07-11.4c-0.7-1.34,0.33-6.38,5.33-3.54
			c-1.72-3.51-7.01-6.43-7.7-10.28c1.17,0.13,5.87-1.2,7.04-1.07c-5.75-8.88-9.5-17.23-10.3-27.77c1.83,0.94,1.75,0.76,3.8,0.64
			c-3.37-5.72-6.56-12.1-7.17-18.72c-2.61,0.84-4.08,3.54-5.25,6.02c-1.17,2.48-2.55,5.2-5.11,6.18s-6.19-1.47-5.08-3.98
			c-2.17,4.29-4.49,8.75-8.43,11.51c-3.94,2.76-10,3.11-13.13-0.54c-2.56-2.99-3.32-12.86-9.15-11.13
			C420.18,437.52,415.92,447.84,414.8,450.99z"/>
		<path class="st2" d="M423,447.22c2.84-1.34,5.4,4.57,8.49,4.82c-1.35,4.03,0.79,3.56-1.5,7.03c1.77,1.2,3.96,1.65,6.01,1.23
			c-0.14,3.24-3.03,5.39-4.49,8.2c-1.46,2.82,0.58,7.91,3.12,6.26c-1.8,1.82-3.7,3.84-4.09,6.49s1.71,5.8,4.06,5.09l-7.55,11.04
			c2.55-1.36,4.38,3.31,2.91,5.96c-2.66,4.79-7.06,8.61-9.72,13.4l7.06,1.33l-8.07,13.24c2.69-2.1,5.05,3.78,3.24,6.82
			c-1.81,3.03-5.25,5.33-5.24,8.96c1.78-2.13,3.95,2.68,2.46,5.06c-1.49,2.39-6.92,6.69-5.62,9.21l7.38-2.77
			c0.91,3.51-2.25,8.24-4.75,10.78c-4.33,4.4,1.85,9.25,4.38,6.87l-10.55,8.59l8.92,0.65l-11.4,23.54
			c10.28-3.01,5.15,14.66-0.54,21.93l8.54-0.19c-5.24,4.94-8.64,12.18-9.24,19.74c33.87-10.72,70.88-9.11,103.87,4.52
			c-1.65-8.46-7.32-15.17-12.75-21.43l6.75-0.02c-5.03-4.55-6.43-12.25-7.51-19.31c-0.43-2.78-0.85-5.57-1.28-8.35
			c-0.34-2.2,0.53-5.58,2.42-4.76c0.26-3.25-3.21-5.06-5.22-7.46c-2.01-2.41,1.75-3.65,6.26-4.75c-3.97-1.79-9.55-13.22-1.7-12.19
			c-3.44-6.14-10.1-13.11-12.49-19.82c1.44-0.15,5.87-1.24,6.5,0.19c-2.14-5.64-7.24-9.27-9.39-14.92
			c-2.52-7.21-5.04-14.41-7.57-21.62l4.36,3.77c-1.98-4.29-3.55-8.81-4.68-13.46l4.11,1.8c1.52-2.67-1.02-5.76-2.65-8.35
			s-1.44-9.74,1.27-8.73c-4.28-8.81-7.78-16.27-9.02-26.16l6.51,3.25c-3.98-8.68-7.74-18.14-8.74-27.79
			c-0.13-1.28-0.14-2.82,0.83-3.55c0.96-0.73,1.86,1.01,2.85,1.86c0.96-6.27-3.12-13.2-8.09-16.46l-2.39,10.8l-2.18-3.75
			c-0.28,3.44-1.28,6.81-2.9,9.78l-5.92-5.94c-0.91,3.3-1.81,6.6-2.72,9.9c1.24-4.52-3.94-13.62-8.53-13.41
			C431.6,434.41,424.41,442.76,423,447.22z"/>
		<g>
			<path d="M510.66,382.46c-1.6-7.47-5.02-14.46-8.99-21.12c1.01,0.18,2.02,0.37,3.04,0.55c-2.77-3.97-6.03-7.66-9.7-11
				c-2.05-3.1-4.1-6.2-6.04-9.36c-3.19-5.19-4.19-13.39-12.04-11.48c-14.76,3.57-28.53,13.94-38.42,24.3
				c-4.97,5.2-9.09,11.03-14.41,15.95c-3.84,3.55-8.81,4.15-12.41,7.89c-2.72,2.83-4.92,10.94-7.48,13.84
				c-6.57,7.44-10.66,8.07-16.92,15.76c-6.15,7.55-15.58,17.38-16.4,26.51c2.8-1.77,5.61-3.53,8.41-5.3
				c-2.02,3.28-6.11,6.59-5.75,10.28c6.05-4.69,15.79-8.4,22.72-11.99c0.4,0.64,0.8,1.27,1.2,1.91c2.01-0.18,4.01-0.36,6.02-0.54
				c-0.48,2.6-0.08,6.27,2.86,6.42c1.11,0.06,2.15-0.5,3.1-1.03c2.63-1.47,5.25-2.95,7.88-4.42c-0.42,5.2,1.24,10.49,4.62,14.69
				c0.84-1.86,2.59-3.39,4.7-4.1c0.69,7.56,8.28,12.82,15.23,17.13c0.73,0.45,1.5,0.92,2.39,0.99c2.24,0.18,3.71-2.05,4.56-3.92
				c1.53-3.36,3.07-6.72,4.6-10.08c0.83,1.78,1.67,3.56,2.51,5.35c0.23,0.48,0.48,0.99,0.98,1.27c1.25,0.69,2.74-0.57,3.53-1.7
				c3.35-4.77,5.85-10,7.39-15.43c1.54,1.64,3.07,3.29,4.61,4.93c0.6,0.64,1.31,1.33,2.25,1.35c0.91,0.02,1.67-0.6,2.28-1.21
				c3.02-3,5.09-6.74,5.91-10.67c-0.19,2.2,3.79,2.86,5.5,1.23c1.71-1.63,1.66-4.11,1.5-6.31c-0.28-3.95-0.56-7.9-0.83-11.85
				c1.82,1.86,4.44,3.09,7.21,3.39c-0.39-7.2-0.17-14.43,0.66-21.62c1.49,0.96,2.98,1.93,4.47,2.89c0.47,0.3,1.04,0.62,1.59,0.44
				c0.41-0.14,0.66-0.51,0.85-0.86c2.66-4.71,3.18-10.32,1.42-15.28C507.04,380.98,508.85,381.72,510.66,382.46z"/>
			<path class="st2" d="M492.8,360.75c3.22,3.61,5.75,7.7,7.47,12.06c-1.46-0.72-2.91-1.44-4.37-2.16
				c1.06,5.2,2.12,10.39,3.17,15.59c-2.09-0.68-2.73-3.43-4.93-3.81c-1.34-0.23-2.69,0.62-3.35,1.7s-0.75,2.34-0.82,3.55
				c-0.29,5.37-0.11,10.76,0.54,16.09c-1.38-1.71-3.15-3.18-5.16-4.29c-1.89,5.28-3.11,10.74-3.63,16.24
				c-0.48-1.69-3.51-1.6-4.74-0.21s-1.18,3.3-1.2,5.05c-0.05,3.68-0.66,7.37-1.81,10.93c-1.56-2.01-3.34-3.87-5.31-5.57
				c-0.83-0.71-2.01-1.44-3.05-0.96c-0.59,0.27-0.9,0.84-1.18,1.37c-1.76,3.38-3.51,6.75-5.27,10.13c-0.96-1.62-1.91-3.25-2.87-4.87
				c-0.23-0.39-0.48-0.8-0.92-1.02c-0.93-0.46-2.06,0.19-2.86,0.84c-5.32,4.32-9.19,10.05-10.97,16.22c-0.29,1-1.07,2.3-2.14,1.94
				c-0.32-0.11-0.56-0.36-0.77-0.6c-4.74-5.44-7.94-11.94-9.24-18.77c-2.46,0.68-4.68,2.06-6.23,3.89c0.71-4.06,0.72-8.2,0.05-12.23
				c-0.16-0.94-0.47-2.02-1.44-2.41c-0.66-0.27-1.44-0.13-2.15,0.05c-4.13,1.06-7.81,3.51-10.11,6.76c-0.25-2.52-0.5-5.04-0.75-7.57
				c-2.11,0.39-4.13,1.22-5.85,2.4c-0.3-1.45-0.6-2.9-0.9-4.36c-4.1,1.49-13.5,7.95-16.95,10.45c0.64-1.97,6.83-8.37,7.47-10.34
				c-2.98,1.65-8.64,3.91-11.5,5.73c7.99-11.88,26.83-20.74,29.78-33.56c0.88-3.83,2.18-8.74,4.48-11.98
				c3.13-4.41,6.27-8.83,9.4-13.24c2.21-3.12,4.44-6.25,7.05-9.11c5.9-6.45,13.99-11.54,23.09-13.24c7.63-1.43,15.9-0.27,22.32,3.59
				C483.23,348.68,488.2,355.6,492.8,360.75z"/>
			<path d="M404.01,404.82c1.97-1.5,6.46-2.69,7.62-4.7c0.81-1.4,0.08-2.34-1.53-2.36c-3.95-0.06-8.28,4.85-7.95,8.08
				C402.89,405.69,403.42,405.27,404.01,404.82z"/>
			<path d="M409.34,412.09c-0.06,0.23-0.12,0.47-0.02,0.68c0.08,0.18,0.27,0.31,0.47,0.37c0.72,0.23,1.46-0.28,2.03-0.75
				c1.51-1.26,8.21-5.45,3.51-6.67C411.81,404.81,409.99,409.83,409.34,412.09z"/>
			<path d="M437.34,428.98c-0.49-3.19-0.97-6.38-1.46-9.57c-0.21-1.4-0.44-2.84-1.19-4.08c-0.32-0.53-0.76-1.04-1.39-1.25
				c-0.73-0.25-1.6-0.05-2.19,0.42c-1.95,1.54,0.29,5.2,1.07,6.9C433.44,424.15,435.19,426.72,437.34,428.98z"/>
			<path d="M448.72,423.26c-0.34-1.43-0.32-2.94,0.06-4.37c0.15-0.56,0.35-1.12,0.39-1.7c0.03-0.58-0.13-1.19-0.6-1.58
				c-1.74-1.42-4.18,1.07-4.15,2.63C444.46,420.18,447.08,422.28,448.72,423.26z"/>
			<path d="M458.77,404.21c1.25-0.43,2.36-1.2,3.12-2.18c0,0.51,0.26,0.99,0.43,1.47s0.23,1.06-0.12,1.48
				c-0.32,0.38-0.92,0.51-1.44,0.42c-0.52-0.09-0.97-0.35-1.39-0.63"/>
			<path d="M481.56,392.59c0.2,0.06,0.41,0.12,0.62,0.09c0.29-0.05,0.5-0.28,0.62-0.51c0.45-0.88-0.13-1.88-0.78-2.63
				c-0.69-0.79-1.48-1.5-2.36-2.11c-1.86-1.29-3.33-0.27-2.49,1.53C477.94,390.6,479.69,391.98,481.56,392.59z"/>
			<path d="M450.86,378.72c0.38,0.08,0.64-0.34,0.77-0.68c0.34-0.91,0.81-1.78,1.4-2.58c0.72-0.98,1.63-1.89,1.99-3.01
				c0.8-2.51-2.11-3.95-3.42-1.27C450.47,373.48,450.72,376.31,450.86,378.72z"/>
		</g>
		<g>
			<path d="M260.94,264c-9.91,19.52-21.29,38.32-30.08,58.38c-7.2,16.42-14.61,39.11-15.68,56.93c-0.25,4.18,4.92,6.33,7.71,3.21
				l7.35-11.18c-2.44,12.98-2.7,26.37-0.75,39.43c0.11,0.76,0.54,1.45,1.2,1.84c1.24,0.72,2.22-0.11,3.02-0.89
				c4.39-4.26,8.39-8.92,11.93-13.91c-0.09,11.37,0.84,22.75,2.78,33.95c0.5,2.89,1.51,6.28,4.32,7.11
				c4.07,1.21,7.77-5.26,8.95-9.35c2.01,13.62,2.07,33.19,9.67,41.24c2.67,2.82,6.34,4.08,8.35,0.77c4.1-6.75,7.02-14.22,8.56-21.97
				c1.29,2.54,3.69,9.64,5.17,12.07c2.35,3.86,7.19,3.98,9.26-0.04c1.54-2.98,5.01-10.08,6.97-12.8c1.55-2.16,2.88-6.83,5.39-7.69
				c2.51-0.85,2.51,3.49,3.22,6.05c0.7,2.55-0.6,7.98,4.18,7c9.24-3.87,14.98-18.57,22.23-25.32c-0.35,3.48,0.78,10.76,4.2,11.47
				c4.47,0.94,11.8-9.2,13.04-10.59c12.66-14.13,12.18-22.5,31.55-21.01c8.5,0.65,19.97-18.97,25.9-25.1
				c9.14-9.46,11.84-23.42,12.08-36.57c0.08-4.2,0.04-4.74-1.83-8.5c-1.82-3.65-6.58-6-9.83-8.47
				c-12.81-9.73-14.55-20.18-15.89-31.43c-0.55-4.6,2.93-12.69,1.78-17.18c-1.92-7.49-7.11-25.07-12.21-30.87
				c-11.54-13.1-29.29-11.84-53.26-10.83c-18.2,0.77-33.83,2.11-51.99,3.53c-4.17,0.33-8.46,0.69-12.2,2.57
				c-8.77,4.41-7.31,6.86-13.51,14.47L260.94,264z"/>
			<path class="st2" d="M227.64,314.17c-1.8,18.14-2.48,39.7-4.74,54.88c3.92-6.71,11.04-13.14,17.43-17.55
				c-1.25,16.22-4.33,31.71-5.59,47.93c3.22-4.66,8.49-8.42,12.13-12.75c0.89-1.06,2.07-2.21,3.43-1.98
				c1.82,0.31,2.31,2.67,2.37,4.51c0.47,13.25,0.95,26.5,1.42,39.75c2.46-3.44,4.92-6.89,7.38-10.33c1.01-1.41,2.61-3.01,4.2-2.32
				c1.17,0.51,1.52,1.96,1.73,3.21c2.45,14.65,4.91,29.3,7.36,43.94c1.98-5.35,3.96-10.71,5.94-16.06c1.33-3.6,3.08-7.62,6.71-8.87
				c3.95-1.36,8.35,1.47,10.21,5.21c1.86,3.74,1.7,5.92,1.62,10.09c3.59-5.98,3.7-12.08,9.28-16.38s15.53-3.95,16.01,7.75
				c4.44-7.04,8.54-17.73,14.44-23.04c2.67-2.4,6.12-4.45,9.65-3.83c3.53,0.62,2.85,7.8,3.08,11.21
				c5.93-7.26,10.45-13.88,16.51-19.34c1.41-1.27,4.11-3.17,5.94-3.64c1.81-0.47,2.7-0.92,4.31-1.87
				c14.51-8.5,16.81,2.01,25.27,1.94c3.59-0.03,7.25-0.21,10.61-1.47c7.27-2.73,11.77-9.94,15.04-16.99
				c7.66-16.5,21.79-40.63,5.21-33.14c-7.69,3.48,4.96-6.82,0.16-15.09c-9.4-16.17-17.39-19.48-23.84-37.03
				c-2.37-6.46-8.53-55.8-13.62-60.44c-4.43-4.04-16.95-8.26-22.64-10.12c-16.17-5.27-33.68-3.45-50.59-1.58
				c-13.56,1.5-27.22,3.02-40.25,7.09c-11.78,3.68-23.39,9.63-31.87,18.78c-8.4,9.06-14.34,23.53-18.73,34.97
				C230.46,298.88,228.4,306.43,227.64,314.17z"/>
			<path d="M254.24,353.09c1-0.16,1.8-0.9,2.53-1.6c1.76-1.69,3.64-3.6,3.81-6.03C261.12,338.11,252.25,353.41,254.24,353.09z"/>
			<path d="M265.35,354.41c-0.02,0.18-0.04,0.38,0.06,0.53c0.27,0.42,0.91,0.04,1.22-0.35c1.15-1.47,2.16-3.06,3.01-4.73
				c0.36-0.71,0.7-1.46,0.75-2.25c0.05-0.79-0.24-1.65-0.91-2.09C266.62,343.67,265.54,352.85,265.35,354.41z"/>
			<path d="M280.98,357.71c1.09-2.07,2.19-4.14,3.28-6.21c0.33-0.63,0.67-1.29,0.73-2c0.07-0.92-0.41-1.89-1.24-2.29
				C279.68,345.23,280.74,356.05,280.98,357.71z"/>
			<path d="M296.62,355.82c0.02,0.35,0.06,0.75,0.35,0.95c0.51,0.35,1.13-0.24,1.43-0.79c1.16-2.12,1.74-4.56,1.68-6.98
				c-0.01-0.43-0.05-0.89-0.31-1.24c-1.18-1.6-3.48-0.39-3.78,1C295.59,350.55,296.52,353.9,296.62,355.82z"/>
			<path d="M315.44,357.22c-0.39-1.2,0.23-2.48,0.93-3.53c0.69-1.05,1.51-2.13,1.55-3.39c0.08-2.81-3.65-4.18-4.62-1.36
				C312.23,352.02,314.6,354.61,315.44,357.22z"/>
			<path d="M328.95,350.22c1.41,1.66,2.81,3.32,4.22,4.98c0.49-1.67,0.66-3.44,0.49-5.18c-0.08-0.8-0.24-1.61-0.69-2.28
				c-0.45-0.67-1.23-1.15-2.03-1.04c-1.43,0.19-1.97,2.07-1.6,3.46"/>
			<path d="M346.42,349.45c0.1,2.5,2.59,4.64,5.07,4.37c-0.51-1.46-1.45-2.72-2.37-3.96c-0.43-0.58-0.94-1.21-1.66-1.32
				c-0.72-0.11-1.52,0.71-1.11,1.31"/>
			<path d="M387.7,367.19c0.37,0.16,0.79,0.28,1.17,0.14c0.77-0.26,0.88-1.29,0.85-2.11c-0.03-0.89-0.07-1.79-0.1-2.68
				c-0.1-2.7-3.09-7.96-5.89-3.91C381.83,361.39,385.21,366.15,387.7,367.19z"/>
			<path d="M287.07,324.68c-0.17,2.04,0.05,4.57,1.93,5.39c1.04,0.46,2.3,0.17,3.23-0.5c0.93-0.66,1.57-1.65,2.11-2.65
				c1.37-2.56,2.17-5.41,2.33-8.3c0.06-1.08,0.02-2.21-0.52-3.14c-0.78-1.35-2.52-1.98-4.06-1.68
				C287.29,314.72,287.39,320.92,287.07,324.68z"/>
			<path d="M308.55,314.7c0.42,2.47,1.21,4.88,2.35,7.12c0.43,0.84,0.93,1.69,1.7,2.23s1.9,0.69,2.65,0.12
				c0.54-0.41,0.8-1.1,0.98-1.76c0.66-2.4,0.76-5.04-0.26-7.3c-1.01-2.27-3.29-4.06-5.78-4.02c-0.4,0.01-0.84,0.08-1.11,0.38
				c-0.2,0.23-0.26,0.54-0.32,0.84c-0.13,0.69-0.25,1.38-0.38,2.07"/>
		</g>
		<g>
			<path d="M291.29,205.47c28.63-0.17,56.99-5.14,85.19-10.1c9.13-1.6,18.27-3.21,27.16-5.83c9.89-2.91,19.55-7.08,29.83-7.83
				c1.98-0.14,4.48,0.16,5.15,2.04c-3.12,5.19-9.95,6.34-15.76,8.06c-10.76,3.18-20.37,10.1-26.8,19.29
				c-2.87,4.09-5.18,8.68-8.94,11.96c-8.61,7.5-21.51,5.88-32.91,5.13c-10.08-0.66-20.24-0.29-30.25,1.12
				c-12.32,1.73-25.44,4.92-36.75-0.25c-11.33-5.18-19.01-17.05-28.64-24.64c3.24-1.99,11.31,0.3,15.23,0.55
				C279.62,205.34,285.45,205.51,291.29,205.47z"/>
			<path class="st2" d="M377.07,236.18c-6.74,2.05-13.88,2.21-20.92,2.36c-12.43,0.26-24.85,0.52-37.28,0.25
				c-13.51-0.29-27.67-1.41-39.06-8.68c-9.92-6.33-7.74-14.65-17.93-20.52c16.44,4.11,14.26,3.04,20.13,3.07
				c14.04,0.07,51.47-3.64,60.21-4.1c30.95-1.63,56.69-11.75,96.4-19.61c-10.83,8.63-21.85,16.42-31.81,26.1
				C399.97,221.69,387.61,236.13,377.07,236.18z"/>
			<path d="M268.25,192.72c-1.91-15.55-0.49-31.51,4.14-46.48c2.38-7.68,5.58-15.07,8.78-22.45c10.28-23.63,20.83-47.41,36.1-68.16
				c2.73-3.71,5.65-7.36,9.36-10.11c1.2,11.92,2.21,23.86,3.05,35.81c1.87,26.85,2.6,54.9-8.46,79.43
				c-2.91,6.46-6.59,12.55-10.32,18.58c-2.95,4.78-5.96,9.55-9.63,13.8c-5.62,6.51-13.02,12.13-21.11,15.19
				C271.45,211.63,269.06,199.27,268.25,192.72z"/>
			<path class="st1" d="M277.49,165.55c1.66-13.1,4.27-26.18,9.26-38.41c2.99-7.31,6.79-14.25,10.59-21.18
				c6.37-11.6,12.74-23.21,19.11-34.81c1.03-1.88,2.13-3.83,3.9-5.04c-0.59,25.57-1.76,51.2-6.03,76.42
				c-0.75,4.42-1.61,8.89-3.55,12.94c-1.63,3.41-3.97,6.42-6.25,9.44c-3.68,4.88-7.22,9.85-10.77,14.82
				c-3.05,4.27-6.09,8.54-9.14,12.82c-2.07,2.9-5.62,10.53-7.69,3.96C274.05,187.39,276.32,174.82,277.49,165.55z"/>
			<path d="M269.45,172.66c3.51,1.57,7.11,2.96,10.76,4.15c3.29,1.08,6.67,2.02,10.12,2.4c2.8,0.31,7.28-0.69,9.63,1.18
				c3.98,3.17,0.87,6.15-2.8,6.15c-4.69,0-10.34-1.79-14.69-3.4c-2.77-1.02-5.43-2.38-7.75-4.22
				C273.19,177.7,270.87,173.3,269.45,172.66z"/>
			<path d="M280.48,162.94c-3.11-1.21-6.58-2.84-7.49-6.04c11.08,4.38,23.77,1.84,34.71,6.38c10.79,4.48-4.98,6.85-9.24,6.08
				C292.33,168.24,286.26,165.19,280.48,162.94z"/>
			<path d="M280.22,139.68c-0.96-0.98-1.83-2.59-0.9-3.61c10.57,0.66,20.96,2.92,31.31,5.17c3.19,0.69,12.84,4.22,10.4,9.42
				c-1.51,3.23-7.58,1.36-10.1,0.75C300.96,148.95,287.73,147.32,280.22,139.68z"/>
			<path d="M304.67,103.96c-3.66-1.63-7.47-3.36-9.99-6.48c3.31-0.19,6.66-0.38,9.94,0.12c3.12,0.47,6.1,1.56,9.07,2.64
				c2.01,0.73,4.11,1.52,5.55,3.1c2.39,2.61,4.18,7.24-0.93,6.65C314.03,109.49,308.63,105.72,304.67,103.96z"/>
			<path d="M304.92,80.07c3.72,0.13,7.44,0.39,11.15,0.8c1.41,0.15,2.83,0.33,4.15,0.86c1.94,0.78,5.93,3.46,6.09,5.87
				c0.21,3.17-2.37,3.57-4.57,2.77c-2.46-0.9-4.93-3.84-7.21-5.22C311.43,83.27,308.21,81.59,304.92,80.07z"/>
			<path d="M286.08,117.16c10.32-0.98,21.2,0.76,29.7,6.69c1.94,1.35,3.79,2.98,4.76,5.13c1.54,3.41,0.75,5.94-2.75,5
				c-3.42-0.92-7.17-3.92-10.29-5.6C300.4,124.56,293.26,120.82,286.08,117.16z"/>
			<path d="M286.65,162.44c4.17-17.5,8.38-35.09,15.4-51.66c1.99-4.7,4.21-9.31,5.97-14.11c4.14-11.29,5.93-23.93,13.71-33.1
				c-3.99,13.8-7.97,27.59-11.96,41.39c-1.31,4.55-2.63,9.11-4.63,13.41c-1.97,4.25-4.58,8.18-6.73,12.34
				c-2.43,4.7-4.28,9.68-5.89,14.72c-3.18,9.93-5.48,20.15-6.86,30.49c-0.52,3.91-0.92,7.86-2.08,11.63
				c-0.66,2.15-1.56,4.22-2.46,6.29c-0.96,2.2-1.85,4.46-2.93,6.6c-1.38-4.55,2.59-13.4,3.71-18.08
				C283.34,176.31,286.67,168.62,286.65,162.44z"/>
			<path d="M362.43,148.61c4.47-9.44,9.76-18.58,16.72-26.37c8.66-9.69,19.62-16.99,29.16-25.8c5.8-5.36,11.06-11.26,16.78-16.7
				c23.54-22.39,54.2-36.22,85.76-43.91c-4.29,9.11-8.63,18.2-13.03,27.26c-14.1,29.05-28.97,58.15-50.12,82.55
				s-49.43,43.98-81.37,48.7c-2.41,0.36-4.97,0.68-6.91,2.16c-2.5,1.9-3.37,5.24-5.31,7.71c-2.98,3.79-8.21,3.15-8.09-1.81
				c0.15-6.01,2.24-12.62,3.71-18.43C352.81,171.81,357.06,159.95,362.43,148.61z"/>
			<path class="st1" d="M368.51,153.31c2.72-6.2,5.51-12.4,9.15-18.1c7.72-12.12,18.93-21.53,29.95-30.74
				c13.27-11.08,26.53-22.16,39.8-33.24c4.03-3.37,8.08-6.75,12.58-9.44c4.43-2.65,9.23-4.61,14.01-6.55
				c7.11-2.89,14.23-5.79,21.34-8.68c-10.53,19.79-21.07,39.58-32.2,59.04c-11.88,20.78-24.84,41.64-43.62,56.48
				c-5.48,4.33-11.39,8.08-17.35,11.72c-11.96,7.3-24.82,14.35-38.83,14.83c-1.12,0.04-2.3,0.05-3.28,0.61
				c-2.33,1.34-2.34,5.05-4.66,6.41c-1.15-0.77-2.7-0.92-4.02-0.9c1.48-7.02,5.58-14.31,8.35-20.95
				C362.6,166.94,365.52,160.11,368.51,153.31z"/>
			<path d="M374.17,174.5c4.96,2.98,9.46,6.67,14.19,10.01c1.02-1.07,2.04-2.15,3.06-3.22c0.27-0.29,0.56-0.6,0.61-0.99
				c0.07-0.53-0.31-1-0.67-1.39c-4.52-4.93-9.95-9.01-15.93-11.99c-1.91-0.95-3.9-1.8-6.01-2.07c-2.38-0.31-12.65,0.35-9.89,3.72
				c1.19,1.45,5.15,1.58,6.84,2.17C369.1,171.7,371.7,173.01,374.17,174.5z"/>
			<path d="M411.08,169.75c3.39-2.48,7.28-4.28,11.37-5.25c-3.69-2.67-8.12-4.08-12.46-5.45c-13.8-4.35-27.63-8.62-41.4-13.08
				c-3.92,4.19,2.61,5.17,5.31,5.66c4.69,0.85,9.29,2.16,13.74,3.87c4.34,1.67,8.54,3.73,12.51,6.15
				C401.2,162.29,411.1,169.73,411.08,169.75z"/>
			<path d="M434.45,151.81c1.86-2.41,4.52-4.2,7.47-4.99c-17.86-9.64-37.52-15.94-57.65-18.46c-2.24-0.28-4.77-0.44-6.51,1.02
				c-0.96,0.8-1.51,1.97-2.31,2.93c-0.52,0.61-1.29,1.08-1.92,1.53c4.93,1.13,10.65,0.7,15.79,1.57c5.3,0.9,10.51,2.22,15.63,3.84
				C407.59,140.08,434.53,151.71,434.45,151.81z"/>
			<path d="M450.54,131.85c2.19-1.1,4.39-2.21,6.58-3.31c0.31-0.16,0.67-0.38,0.68-0.73c0.01-0.34-0.31-0.58-0.6-0.76
				c-11.27-7.02-23.65-12.26-36.53-15.49c-5.01-1.25-10.15-2.2-15.3-1.88c-3.06,0.19-13.13,1.72-13.21,5.68
				c10.31,0.74,19.69,1.27,29.69,4.49C431.73,123.04,441.17,127.43,450.54,131.85z"/>
			<path d="M443.14,103.49c4.39,1.67,8.77,3.33,13.16,5c3.17,1.21,6.37,2.43,9.19,4.31c0.83-2.1,2.8-3.71,5.03-4.1
				c-9.4-5.08-19.23-9.37-29.36-12.8c-4.88-1.65-9.89-3.12-15.03-3.3c-3.3-0.12-7.62,0.15-10.56,1.86c-4.94,2.87-0.06,2.65,3,2.73
				C427.09,97.41,435.27,100.5,443.14,103.49z"/>
			<path d="M469.6,87.92c1.71,0.84,3.41,1.67,5.12,2.51c1.94-1.62,3.89-3.25,5.83-4.87c-4.88-2.73-10.78-2.74-16.1-4.45
				c-4.87-1.57-9.15-4.54-13.86-6.53c-4.71-1.99-10.35-2.92-14.79-0.39c-2.58,1.47-3.26,2.58,0.16,3.6
				c3.43,1.03,7.84,0.41,11.48,1.28C455.21,80.91,462.47,84.43,469.6,87.92z"/>
			<path d="M488.53,66.68c0.3,0.15,0.63,0.3,0.95,0.21c0.29-0.08,0.49-0.34,0.68-0.57c1.26-1.53,3.01-2.65,4.93-3.15
				c-6.94-2.9-13.95-5.63-21.03-8.17c-0.69-0.25-1.39-0.5-2.13-0.55c-0.69-0.05-1.38,0.08-2.06,0.2c-1.44,0.27-7.62,0.34-7.07,2.62
				c0.36,1.46,6.85,2.24,8.24,2.65c3.06,0.89,6.09,1.92,9.06,3.07C482.29,63.84,486.28,66.69,488.53,66.68z"/>
			<path d="M448.63,85.01c5.78-4.97,11.83-9.63,17.39-14.85c10.42-9.78,19.73-21.86,33.31-26.31
				c-22.59,17.61-43.51,37.35-62.41,58.87c-9.35,10.65-18.2,21.72-26.92,32.89c-3.21,4.11-6.45,8.28-10.61,11.42
				c-2.35,1.77-4.97,3.19-7.23,5.07c-4.77,3.98-7.65,9.74-11.66,14.48c-4.36,5.16-9.92,10.57-15,14.97
				c-4.96,4.29-8.04,7.32-11.35,12.78c-0.97-3.49,2.95-6.05,5.06-8.26c3.3-3.48,6.53-7.03,9.7-10.64c6.5-7.39,12.76-15,18.94-22.66
				c12.29-15.21,24.33-30.65,37.56-45.06C432.73,99.73,440.41,92.07,448.63,85.01z"/>
		</g>
		<g>
			<path class="st4" d="M316.77,376.46c-2.03,0.35-12,2.99-15.92,1.89s-21.7-10.66-23.1-11.49s-2.66-1.66-3.78-2.08
				c-1.12-0.41-4.88,1.14-4.17,4.49c0.71,3.35,2.56,9.77,4.11,12.14c1.55,2.37,7.88,11.84,9.14,13.23s9.27,10.58,10.81,11.69
				c1.54,1.11,9.95,6.8,11.49,7.63c1.54,0.83,8.83,5.55,15.51,0.77c6.68-4.78,7.66-5.06,10.43-9.83s3.75-5.75,5.97-9.11
				c2.22-3.36,8.47-10.52,10-12.2s5.97-8.41,8.05-11.63c2.08-3.22,4.73-5.05,4.85-7.85c0.13-2.79-0.44-5.45-4.35-4.17
				c-3.91,1.28-10.87,6.62-14.08,7.89C338.53,369.1,324.31,375.17,316.77,376.46z"/>
			<path class="st5" d="M284.33,375.37c0.22,3.89,0.34,7.32,1.49,11.04c-1.54-2.13-3.08-4.27-4.61-6.4
				c-0.37-0.52-0.74-1.03-1.03-1.6c-0.28-0.55-0.47-1.14-0.64-1.74c-0.23-0.78-0.91-2.24-0.37-2.92
				C280.84,374.4,282.49,375.47,284.33,375.37z"/>
			<path class="st5" d="M288.05,377.83c0,0.16,2.25,10.36,2.11,14.24c2.16,3.55,3.16,4.44,3.16,4.44s-0.69-12.52-0.28-15.98
				C289.94,379.08,288.05,377.83,288.05,377.83z"/>
			<path class="st5" d="M297.66,382.14c0,0,0.46,9.27,0.68,10.69s1.35,9.11,1.35,9.11c1.73,0.83,7.25,4.21,7.25,4.37
				c0.76-5.3,1-22.59,1-22.59C305.42,384.1,298.45,383.39,297.66,382.14z"/>
			<path class="st5" d="M313.06,383.07c0,0,1.09,8.38,0.99,9.74c-0.1,1.36-0.94,11.48-1.04,12.26s0.54,3.77,0.44,3.93
				s1.05,0.83,2.05,0.46c0.99-0.37,6.42-4.53,6.42-4.53c0-1.31-0.53-1.2-0.54-3.44c0.62-2.2,0.17-8.03,0.22-8.87
				c0.05-0.84-0.09-8.02,0.43-9.01s0.36-2.41,0.36-2.41S315.11,383.21,313.06,383.07z"/>
			<path class="st5" d="M328.08,379.75c0,0-0.43,9.33-0.37,10.95s0.09,7.65,0.09,7.65c1.82-2.21,5.08-7.19,5.86-7.88
				c0.78-0.68,2.05-2.64,2.05-2.64c-0.01-2.1,1.78-11.22,1.78-11.22S329.08,379.8,328.08,379.75z"/>
			<polygon class="st5" points="348.64,371.54 342.11,375.32 341.5,381.5 			"/>
		</g>
		<g>
			<path d="M396.08,212.94c3.71-10.43,9.04-21.25,18.87-26.33c3.89-2.01,8.22-2.96,12.5-3.89c37.18-8.11,75.29-16.26,113.01-10.88
				c1.14,0.16,2.11,0.96,2.41,2.07c0.52,1.91-1.24,2.93-2.74,3.61c-4.34,1.97-8.69,3.94-13.03,5.9c12.27-0.3,24.6,2.11,35.86,7
				c1.24,0.54,2.03,1.84,1.82,3.17c-0.24,1.51-1.45,1.8-2.55,2.04c-9.49,2.04-18.98,4.09-28.47,6.13
				c12.8,5.34,23.34,15.85,28.74,28.62c0.07,0.17-0.05,0.36-0.23,0.37c-9.03,0.41-17.71-9.91-25.75-5.71
				c6.23,6.6,10.39,15.11,11.86,24.06c0.64,3.89-3.8,6.55-6.97,4.21c-3.23-2.39-6.49-5.83-10.35-6.09c4.02,5.88,5.03,13.1,6.33,21
				c0.8,4.86-2.05,6.86-6.29,4.35c-5.43-3.22-10.61-7.68-14.34-11.87c2.05,6.01,3,12.39,2.78,18.74l-15.41-3.88
				c9.09,9.84,10.07,24.46,10.57,37.85c-3.12-3.96-6.77-7.51-10.82-10.5c1.54,13.43-0.44,28.98-11.37,36.93
				c-0.36-3.92-1.8-7.75-4.11-10.94c0.52,10.61-1.64,21.35-6.21,30.94l-1.92-6.2c-2.21,7.78-5.42,15.28-9.55,22.24
				c-2.37,4-7.81,6.49-11.34,3.47c-0.61,8.56-1.88,9.37-8.02,15.36c1.01-13.91-4.22-11-3.29-20.84c0.35-3.63-2.84-5.97-3.45-9.56
				c-0.61-3.59-1.14-7.72-4.61-8.83c-4.37-1.39-8.8,1.47-13.11,3.03c-8.73,3.15-19.24,0.51-25.44-6.4
				c-6.02-6.71-7.66-16.12-10.33-24.73c-2.86-9.23-7.22-18.28-7.13-27.94c0.07-7.71,2.79-15.17,2.29-22.92
				c-0.39-6.14-0.71-11.85-0.16-18.06C387.52,242.96,390.86,227.62,396.08,212.94z M491.87,288.56c0.01-6.92-1.79-13.87-5.32-19.84
				c-1.13-1.92-2.45-3.76-4.13-5.23c-2.83-2.47-6.52-3.74-10.19-4.5c-8.43-1.74-17.14-1.11-25.72-0.46
				c-2.96,0.22-5.94,0.45-8.79,1.24c-5.72,1.6-10.63,5.43-14.44,9.98c-1.79,2.13-3.37,4.46-4.42,7.04
				c-2.06,5.05-1.92,10.72-1.17,16.12c0.82,5.9,2.38,11.8,5.5,16.88c4.7,7.65,12.82,12.95,21.58,14.92
				c8.77,1.97,18.1,0.76,26.4-2.68c3.91-1.62,7.7-3.79,10.46-7.01c1.55-1.8,2.73-3.89,3.9-5.96
				C489.3,302.39,491.86,296.38,491.87,288.56z"/>
			<path class="st2" d="M528.71,175.8c-5.73,2.58-6.8,2.84-9.55,3.92c-2.75,1.08-5.05,5-2.65,6.72c0.69,0.5,1.58,0.61,2.43,0.7
				c7.43,0.84,19.65,2.74,27.08,3.58c-5.1,1.62-12.09,2.35-14.99,2.62s-3.45,0.02-6.04,1.37c-2.58,1.35-4.4,4.77-2.85,7.24
				c0.56,0.89,1.45,1.51,2.32,2.1c7.97,5.44,18.51,10.26,26.48,15.7c-5.22-0.88-13.01-1.13-18.23-2.01
				c-1.43-0.24-3.07-0.44-4.2,0.47c-1.97,1.58-0.76,4.72,0.59,6.85c3.63,5.76,7.27,11.53,10.9,17.29
				c-5.13-3.54-10.7-6.45-16.54-8.61c-0.81-0.3-1.71-0.59-2.52-0.28c-1.9,0.71-1.41,3.51-0.57,5.35
				c3.05,6.72,6.96,17.41,10.01,24.13c-5.48-5.56-12.52-15.43-20.3-16.05c-1.15-0.09-2.42-0.02-3.27,0.76
				c-1.35,1.23-0.93,3.4-0.4,5.15c1.72,5.67,6.65,13.81,8.37,19.47c-1.89-3.43-10.5-6.12-13.38-3.46
				c-2.88,2.66-3.45,7.13-2.43,10.92c1.02,3.78,3.37,7.05,5.66,10.23c-1.91-2.21-4.86-3.49-7.78-3.35
				c-3.53-14.91-15.2-27.76-29.89-32.13s-31.8,0.2-41.91,11.71c-10.11,11.51-12.36,29.46-4.9,42.84c1.72,3.09,3.93,5.95,6.72,8.13
				c2.83,2.21,6.17,3.66,9.47,5.07c6.25,2.67,12.63,5.33,19.39,6.05c17.66,1.86,35.52-11.94,38.17-29.5
				c3.39,4.26,4.09,10.18,3.1,15.53s-3.46,10.3-5.91,15.17c-0.26-3.32-2.14-6.48-4.93-8.3c-2.13,8.75-3.82,17.6-5.07,26.51
				c-1.02-3.36-3.09-6.4-5.85-8.57c-2.92,12.07-5.87,21.24-11.42,32.35c-1.39-2.39-3.74-4.18-5.14-6.57
				c-0.73,3.44-1.65,12.35-4.39,16.62c-0.38-6.42-1.58-17.54-4.28-23.39c-1.17-2.53-2.62-5.06-4.92-6.64
				c-2.3-1.58-5.64-1.95-7.8-0.19c-1.2,0.97-1.88,2.43-2.68,3.75c-4.55,7.48-13.98,11.2-22.68,10.21s-16.56-6.12-22.23-12.8
				s-9.36-14.8-12.25-23.07c-11.03-31.59-10.68-66.85,0.16-98.44c2.71-7.9,6.08-15.57,10.08-22.9c1.55-2.83,3.15-6.97,5.99-8.76
				c2.78-1.76,7.15-2.16,10.27-3.01c18.91-5.14,38.06-9.37,57.38-12.69C483.05,179.86,506.73,177.19,528.71,175.8z"/>
			<path d="M490.21,311.69c-1.35,2.38-2.71,4.78-4.49,6.86c-3.18,3.7-7.54,6.2-12.05,8.07c-9.56,3.96-20.3,5.36-30.4,3.08
				c-10.09-2.27-19.44-8.37-24.85-17.18c-3.6-5.85-5.39-12.64-6.34-19.44c-0.87-6.22-1.02-12.74,1.34-18.56
				c1.21-2.97,3.04-5.65,5.09-8.1c4.39-5.25,10.04-9.65,16.63-11.49c3.29-0.92,6.72-1.18,10.12-1.43
				c9.88-0.74,19.92-1.47,29.62,0.53c4.24,0.88,8.48,2.33,11.74,5.18c1.93,1.69,3.45,3.81,4.76,6.02
				c4.06,6.88,6.13,14.87,6.12,22.85C497.51,297.08,494.56,304,490.21,311.69z M489.22,290.96c0.01-5.36,0.74-9.48-2.44-14.1
				c-1.02-1.49-3.53-5.28-5.04-6.42c-2.55-1.91-5.98-3.55-10.07-4.68c-7.42-2.06-11.27-1.94-18.99-1.44
				c-2.66,0.17-7.1,0.93-9.67,1.55c-5.15,1.24-11.75,5.86-15.18,9.39c-1.61,1.65-3.39,4.63-4.34,6.63
				c-1.85,3.91-1.73,8.3-1.06,12.48c0.74,4.57,2.14,9.14,4.94,13.07c4.23,5.92,11.53,10.02,19.42,11.55
				c7.89,1.52,16.29,0.58,23.77-2.09c3.52-1.26,6.94-2.94,9.42-5.43c1.39-1.4,2.46-3.01,3.51-4.62
				C486.9,301.68,489.21,297.02,489.22,290.96z"/>
			<path d="M493.73,212.93c-3.71-0.05-7.38,2.23-10.95,1.23c-3.32-0.93-1.55-3.54,0.91-3.71
				C487.03,210.22,490.8,211.44,493.73,212.93z"/>
			<path d="M485.26,222.01c1.3,0.6,2.59,1.34,3.43,2.49c0.14,0.19,0.27,0.41,0.23,0.65c-0.07,0.42-0.6,0.55-1.02,0.59
				c-4.33,0.41-8.83,0.8-12.91-0.69c-1.34-0.49-2.81-1.52-2.68-2.94C472.79,216.7,482.98,220.97,485.26,222.01z"/>
			<path d="M478.67,239.1c-3.35-0.33-5.94-2.97-8.98-4.42c-1.11-0.53-2.3-0.91-3.31-1.61c-1.01-0.7-1.84-1.83-1.74-3.06
				c0.11-1.38,1.4-2.45,2.77-2.67C472.93,226.47,477.99,234.55,478.67,239.1z"/>
			<path d="M402.77,254.7c0.48-6.84,2.33-13.58,5.41-19.71c-1.96-0.7-3.7,1.38-5.63,2.16c-0.37,0.15-0.94,0.16-1.03-0.23
				c-0.04-0.18,0.05-0.37,0.15-0.53c2.13-3.67,4.93-6.95,8.22-9.64c1.23-1,2.58-1.95,4.15-2.24c1.56-0.29,3.37,0.23,4.18,1.6
				c0.9,1.53,0.23,3.22-0.36,4.72c-0.83,2.07-1.21,2.1-0.11,3.72c0.67,0.98,1.59,0.55,1.36,2.07c-0.16,1.08-1.77,2.16-2.53,2.79
				c-2.61,2.21-5.25,4.14-7.5,6.74C407.55,247.88,402.94,252.36,402.77,254.7z"/>
			<path d="M431.5,353.24c-2.72,1.63-6.22,0.53-9.09-0.83c-2.68-1.28-5.38-2.86-6.94-5.4c-0.06,1.8,0.13,3.6,0.57,5.35
				c-2.42,0.59-4.61-1.51-6.15-3.47c-4.64-5.92-8.53-12.74-9.37-20.22c-0.1-0.89-0.1-1.92,0.57-2.52c0.63-0.56,1.63-0.47,2.38-0.09
				c2.96,1.47,2.91,5.6,4.09,8.69c1.38,3.63,3.16-0.74,5.34-0.07c1.63,0.5,3.79,4.36,4.97,5.63
				C419.1,341.62,430.35,353.93,431.5,353.24z"/>
			<path d="M460.67,296.66c-0.3,1.37-0.75,2.71-1.51,3.89c-2.18,3.36-6.83,4.7-10.64,3.45c-3.81-1.25-6.66-4.76-7.61-8.65
				c-0.22-0.92-0.36-1.88-0.2-2.81c0.24-1.46,1.14-2.72,2.17-3.79c3.43-3.56,9.3-5.86,14.26-4.77
				C462.03,285.06,461.47,292.99,460.67,296.66z"/>
			<path class="st5" d="M454.96,282.09c0.14,2.38-0.98,4.74-2.71,6.39c-1.73,1.65-4.01,2.64-6.35,3.1
				c-1.96,0.39-4.18,0.38-5.76-0.84c-2.25-1.74-2.27-5.34-0.71-7.72c1.56-2.38,4.25-3.75,6.91-4.75c0.96-0.36,1.95-0.69,2.96-0.87
				C453.32,276.7,454.73,278.16,454.96,282.09z"/>
		</g>
		<g>
			<path d="M273.81,270.25c-2.38,3.23-5.25,6.07-7.62,9.32c-3.85,5.27-6.27,11.43-8.65,17.51c-4.73,12.1-9.46,24.2-14.19,36.3
				c-1.5,3.83-3.07,7.78-5.94,10.73c-2.56,2.63-5.96,4.25-9.14,6.08c-8.35,4.83-15.63,11.5-21.16,19.41
				c-1.63,2.33-4.51,5.09-6.81,3.41c-1.39-1.02-1.42-3.05-1.31-4.77c0.32-5.09,0.64-10.18,0.97-15.28
				c-3.97-0.36-6.6,5.42-10.55,4.87c-1.87-0.26-3.26-1.99-3.73-3.81c-0.47-1.83-0.21-3.75,0.06-5.62c0.52-3.67,1.04-7.35,1.56-11.02
				c0.39-2.73,0.76-5.58-0.19-8.17c-1.29-3.52-4.69-5.72-7.36-8.36c-5.03-4.96-7.76-12.18-7.26-19.23c0.15-2.06,0.55-4.12,0.27-6.17
				c-0.28-2.04-1.44-4.14-3.4-4.78c-2.41-0.78-4.84,0.85-7,2.17c-2.16,1.32-5.15,2.34-7.02,0.63c-1.57-1.43-1.36-3.92-1-6.02
				c1.31-7.75,3.07-15.99,8.73-21.44c2.46-2.37,5.9-5.09,4.87-8.35c-6.46-0.02-12.92,0.95-19.09,2.86
				c-0.23-4.42,3.25-8.09,6.71-10.85c10.21-8.15,23.42-13.25,36.29-15.44c0.98,0.16,2.03-0.41,2.44-1.32
				c-5.09-3.4-11.01-5.54-17.1-6.17c-0.47-1.94,0.77-4.14,2.68-4.73c-1.75-0.3-3.44-0.94-4.95-1.87c0.88-2.97,4.29-4.26,7.29-5.07
				c15.08-4.08,30.6-6.43,46.18-7.63c-0.94-1.11-2.36-1.68-3.43-2.66c-1.07-0.98-1.7-2.8-0.68-3.83c0.45-0.45,1.1-0.62,1.73-0.75
				c3.64-0.73,7.39-0.51,11.09-0.18c15.53,1.38,30.9,4.57,45.7,9.49c1.89,0.63,3.8,1.3,5.36,2.54c3.58,2.85,4.42,7.91,4.51,12.48
				c0.1,5.34-0.46,10.7-1.67,15.91C281.99,248.14,280.85,260.72,273.81,270.25z M169.79,294.42c-2.49,11.84,2.35,25.23,11.61,32.89
				c1.62,1.34,3.38,2.53,5.34,3.27c1.84,0.69,3.81,0.96,5.77,1.11c8.74,0.66,18.09-1.34,24.43-7.4c1.08-1.03,2.06-2.17,2.74-3.5
				c0.87-1.7,1.19-3.63,1.49-5.52c1.06-6.55,2.1-13.2,1.38-19.79c-0.72-6.6-3.44-13.24-8.66-17.34c-2.24-1.75-4.85-2.98-7.54-3.9
				c-5.77-1.97-12.1-2.58-18.02-1.11c-5.92,1.48-11.38,5.15-14.45,10.42C172.01,286.79,170.56,290.77,169.79,294.42z"/>
			<path class="st2" d="M246.03,206.4c1.53,2.43,5.24,4.06,4.59,6.85c-0.48,2.08-3.09,2.74-5.22,2.9
				c-16.63,1.27-33.72-2.86-49.86,1.34c3.93,1.56,7.86,3.12,11.8,4.69c-5.82-0.45-11.67-0.38-17.48,0.21
				c8.2,1.43,15.87,5.74,21.34,12.01c1.91,2.19,3.4,5.93,1.05,7.64c-1.29,0.94-3.07,0.63-4.64,0.35
				c-14.12-2.53-29.15,0.36-41.33,7.94c5.76-0.4,11.63,1.13,16.47,4.28c0.85,0.55,1.74,1.27,1.86,2.27
				c0.19,1.56-1.46,2.62-2.84,3.37c-9.55,5.22-16.48,14.96-18.3,25.69c3.04-1.99,7.44,0.13,10.6-1.66c1.3-0.74,2.18-2.04,3.09-3.22
				c7.01-9.05,20.83-13.17,30.48-7.02c6.6,4.21,9.99,11.98,12.02,19.54c1.7,6.3,2.72,12.92,1.63,19.36
				c-1.09,6.43-4.53,12.69-10.14,16.03c-5.54,3.3-12.35,3.4-18.81,3.4c-1.33,6.09-2.03,12.32-2.1,18.55
				c3.9-3.52,9.11-5.54,14.36-5.56c0.98,0,1.99,0.07,2.85,0.54c2.7,1.5,2.02,5.59,0.59,8.33c-1.43,2.74-3.27,6-1.75,8.69
				c3.74-10.16,12.57-18.29,23-21.18c4.03-1.12,8.23-1.49,12.25-2.63c7.96-2.26,14.86-7.48,20.21-13.79
				c5.35-6.31,9.29-13.7,12.77-21.21c8.14-17.57,13.98-36.12,18.54-54.91c2.26-9.3,4.2-18.68,5.98-28.09
				c1.11-5.91-0.09-5.98-5.76-7.26c-4.77-1.08-8.42,0.54-13.23-0.34c-5.57-1.03-13.72-2.54-22.16-5.11
				C254.84,207.48,246.95,207.87,246.03,206.4z"/>
			<path d="M201.12,253.49c-2.42,0.27-4.81,1.31-6.38,3.16c1.03,0.76,2.46,0.42,3.74,0.43c2.72,0.02,5.17,1.76,7.88,1.98
				c2.39,0.19,4.09-2.15,2.38-4.12C207.23,253.2,203.11,253.27,201.12,253.49z"/>
			<path d="M214.82,265.55c2.13-0.42,9.88,4.98,9.32-0.94c-0.2-2.11-2.08-2.3-3.85-2.12c-1.11,0.11-2.25,0.43-3.22,0.98
				C216.53,263.77,215.23,265.47,214.82,265.55z"/>
			<path d="M235.29,293.66c-3.18,3.36-5.58,7.46-5.85,11.83c-0.03,0.51-0.01,1.08,0.39,1.45c0.86,0.78,2.3-0.06,3.12-0.88
				c1.69-1.67,3.38-3.34,5.07-5.01c1.18-1.17,6.36,0.62,7.55-0.54c3.25-3.22,2.72-9.9,2.37-14.21c-0.03-0.41-0.12-0.84-0.43-1.14
				C245.85,283.59,236.53,292.35,235.29,293.66z"/>
			<path d="M235.82,318.09c-2.39,4.83-3.58,10.18-2.88,15.41c2.52-0.92,3.49-3.55,4.54-5.78c2.72-5.8,7.69-10.54,11.15-16.03
				c0.87-1.38,1.67-2.98,1.2-4.5c-1.37-4.43-5.7-0.54-7.2,1.12C239.93,311.31,237.56,314.57,235.82,318.09z"/>
			<path d="M170.42,280.68c3.55-6.1,9.87-10.35,16.72-12.05c6.85-1.71,14.16-1,20.84,1.28c3.11,1.06,6.13,2.48,8.72,4.51
				c6.04,4.73,9.18,12.42,10.02,20.05c0.84,7.63-0.37,15.32-1.59,22.89c-0.35,2.18-0.72,4.41-1.72,6.38
				c-0.78,1.53-1.92,2.86-3.17,4.05c-7.33,7-18.15,9.32-28.26,8.55c-2.27-0.17-4.55-0.49-6.68-1.29c-2.27-0.85-4.31-2.24-6.18-3.79
				c-10.71-8.86-16.31-24.34-13.43-38.04C166.58,289,168.25,284.4,170.42,280.68z M174.02,295.66c-2.09,9.93,1.97,21.16,9.74,27.58
				c1.36,1.12,2.83,2.13,4.48,2.74c1.54,0.58,3.2,0.81,4.84,0.93c7.33,0.55,15.17-1.13,20.49-6.2c0.9-0.86,1.73-1.82,2.3-2.93
				c0.73-1.43,0.99-3.04,1.25-4.63c0.89-5.49,1.76-11.07,1.15-16.6c-0.61-5.53-2.88-11.11-7.26-14.54c-1.88-1.47-4.07-2.5-6.33-3.27
				c-4.84-1.66-10.15-2.17-15.11-0.93c-4.96,1.24-9.54,4.32-12.12,8.74C175.87,289.25,174.66,292.6,174.02,295.66z"/>
			<path d="M213.98,343.28c0.78-1.29,2.39-1.77,3.81-2.3c0.51-0.19,1.02-0.4,1.42-0.77c0.4-0.36,0.67-0.91,0.57-1.44
				c-0.37-2-2.41-1.69-3.43-0.64C214.97,339.55,214.01,341.26,213.98,343.28z"/>
			<path d="M193.17,312.07c-1.22-0.15-2.47-0.44-3.46-1.18c-1.04-0.77-1.68-1.95-2.29-3.09c-0.83-1.54-1.68-3.21-1.47-4.95
				c0.24-1.99,1.88-3.58,3.73-4.35c1.85-0.77,3.89-0.87,5.89-0.95c1.67-0.07,3.43-0.13,4.9,0.66c2.86,1.52,4.91,6.44,3.62,9.55
				C202.48,311.67,196.78,312.52,193.17,312.07z"/>
			<path class="st5" d="M193.05,301.66c-1.57,1.18-3.58,1.93-5.51,1.57c-1.57-0.29-2.99-1.33-3.74-2.74s-0.83-3.16-0.19-4.63
				c1.69-3.92,8.7-7.56,12.69-5.37C201.52,293.34,196.06,299.39,193.05,301.66z"/>
		</g>
	</g>
</g>
</svg>
