<?xml version="1.0" encoding="utf-8"?>
<!-- Generator: Adobe Illustrator 26.0.3, SVG Export Plug-In . SVG Version: 6.00 Build 0)  -->
<svg version="1.1" id="Calque_1" xmlns="http://www.w3.org/2000/svg" xmlns:xlink="http://www.w3.org/1999/xlink" x="0px" y="0px"
	 viewBox="0 0 30.6 30.6" style="enable-background:new 0 0 30.6 30.6;" xml:space="preserve">
<g>
	<path d="M21,15.3l8.5-8.5c1.6-1.6,1.6-4.1,0-5.7c-1.6-1.6-4.1-1.6-5.7,0l-8.5,8.5L6.8,1.2c-1.6-1.6-4.1-1.6-5.7,0
		c-1.6,1.6-1.6,4.1,0,5.7l8.5,8.5l-8.5,8.5c-1.6,1.6-1.6,4.1,0,5.7v0c1.6,1.6,4.1,1.6,5.7,0l8.5-8.5l8.5,8.5c1.6,1.6,4.1,1.6,5.7,0
		v0c1.6-1.6,1.6-4.1,0-5.7L21,15.3z"/>
</g>
</svg>
