<svg xmlns="http://www.w3.org/2000/svg" xmlns:xlink="http://www.w3.org/1999/xlink" viewBox="0 0 212.7 48.8" xmlns:v="https://vecta.io/nano"><g fill="#fff"><path d="M25.9 43.7c3.3-1.1 6.5-2.5 8.9-4.8 2.3-2.3 3.6-5.6 2.4-8.5-1.4-3.3-6-5.2-9.8-4.1-2.6.8-1.2 5.8-1.2 7.7a154.68 154.68 0 0 1-.3 9.7zM8.3 5.3c2-1.9 4.4-3.5 7-4.4s5.5-1.2 8.2-.3c-2.3.5-4.6 1.1-6.7 2.3s-3.8 3-4.6 5.2c-.6 1.7-.7 3.7-2 4.8-.8.7-1.8.9-2.8 1.1-2.3.5-4.4-.4-3.3-2.9C5 8.8 6.5 7 8.3 5.3z"/><path d="M.3 23c.3.7 1 1.2 1.7 1.6 1 .5 2 .9 3 .8 3-.1 5.4-3.4 8.3-2.9 1.3.2 2.3 1.2 2.9 2.3s.8 2.4.9 3.7c.1 3.3.6 7.9-1.1 10.7-.7 1.2-1.6 2.3-2.9 2.8s-4.2-1-5.5-1.6c-3.2-1.5-5.4-4.7-6.7-8C.8 34 1.3 35.5 2 37c1.7 3.7 4.4 7 7.7 9.3 2 1.4 4.4 2.6 6.8 2 2.5-.5 4.3-2.8 5-5.2s.5-5.1.3-7.6c-.3-2.6-.7-5.2-1.1-7.8-.4-2.5-1-5-2.5-7s-4.3-3.2-6.6-2.2c-1.1.5-2 1.4-3.2 1.6h-.5c-.2-.1-.3-.4-.4-.7-.4-1.4-1.7-2.4-3.2-2.5-2.8-.2-5.2 3.6-4 6.1zm33.3-10.6c.1.4.1.7 0 1.1-.1.6-.6 1.2-1.1 1.5-.6.3-1.2.5-1.8.7-.9.2-1.7.5-2.6.5-.5 0-1 0-1.4-.4-.5-.4-.6-1.1-.6-1.7l.1-2.7c.2-1.1.6-2.3 1.6-2.6 2.4-.8 5.3 1.4 5.8 3.6zM25.3.4c4.4-1.2 8.5.3 12.4 2.2 3.3 1.6 5.7 4.2 7.7 6.8.9 1.1 1.8 3.5 2 4.9.3 1.7-.3 3.6-1.5 4.9s-2.9 2.1-4.6 2.3c3.3.1 6.3 2.5 7.4 5.6s.6 6.6-1 9.5-4.4 6.2-7.2 8c-3.7 2.3-7.9 3.8-12.3 4.3 2.6-1.6 5.4-3.4 8-5.1 1.3-.8 2.7-2.5 3.8-3.6 2-2.1 3-5.1 3.2-8 .1-1.3 0-2.7-.6-3.9-.8-1.6-2.5-2.6-4.2-3.3s-4.9-1.4-6.3-2.5c-.3-.3-.7-.6-.7-1.1-.1-.8.8-1.3 1.6-1.6 1.6-.6 4.6-1.1 6.2-1.7 1-.4 2-.8 2.6-1.6.7-1 .6-2.4.1-3.5s-1.4-2-2.3-2.8c-2.1-1.9-2-4.6-6.2-6.8-2.6-1.5-4.5-2.5-8.1-3zM8 32.6c-.2-.5-.4-1.1-.4-1.6 0-1.1.7-2.1 1.7-2.5s2.2-.1 2.9.7.9 1.9.6 2.9-1 1.8-1.8 2.4c-1.5.9-2.5-.6-3-1.9z"/><use xlink:href="#B"/><path d="M83.2 18.1c0-2.1.7-3.8 2.1-5.1s3.1-1.9 5.3-1.9c2.1 0 3.9.6 5.3 1.9s2.1 3 2.1 5.1V20c0 .9-.8 1.4-2.3 1.4s-2.3-.4-2.3-1.4v-2.2c0-1.8-1-3-2.7-3S88 16 88 17.8v13.4c0 1.8 1 3 2.7 3s2.7-1.2 2.7-3V29c0-.9.8-1.4 2.3-1.4S98 28 98 29v2c0 2.1-.7 3.8-2.1 5.1S92.8 38 90.6 38c-2.1 0-3.9-.6-5.3-1.9s-2.1-3-2.1-5.1V18.1zm22.5 13.2c0 1.8 1 3 2.7 3s2.7-1.2 2.7-3V12.5c0-.9.8-1.4 2.3-1.4s2.3.4 2.3 1.4V31c0 2.1-.7 3.8-2.1 5.1s-3.1 1.9-5.3 1.9c-2.1 0-3.9-.6-5.3-1.9s-2.1-3-2.1-5.1V12.5c0-.9.8-1.4 2.3-1.4s2.3.4 2.3 1.4v18.8zm22.6-13.5c0-2-.8-3-2.3-3s-2.3 1-2.3 3v18.8c0 .9-.8 1.4-2.3 1.4s-2.3-.4-2.3-1.4V18.1c0-4.3 2.6-7.1 6.8-7.1 2.1 0 3.7.7 4.8 2 1.2-1.3 2.8-2 4.8-2 4.2 0 6.8 2.8 6.8 7.1v18.5c0 .9-.8 1.4-2.3 1.4s-2.3-.4-2.3-1.4V17.8c0-2-.8-3-2.3-3s-2.3 1-2.3 3v18.8c0 .9-.8 1.4-2.3 1.4s-2.3-.4-2.3-1.4V17.8zM147 37.7c-.9 0-1.3-.5-1.3-1.5V12.9c0-1 .4-1.5 1.3-1.5h6.1c4 0 6.6 2.6 6.6 6.4v1.5c0 2.2-.8 3.8-2.4 4.7 1.8.9 2.7 2.5 2.7 5v2.2c0 3.8-2.5 6.4-6.5 6.4H147zm3.3-22.4v6.9h2.4c1.5 0 2.3-.8 2.3-2.5v-1.9c0-1.6-.8-2.5-2.3-2.5h-2.4zm0 18.5h2.8c1.5 0 2.3-.8 2.3-2.5v-2.8c0-1.7-.8-2.5-2.3-2.5h-2.8v7.8zm17.3-2.5c0 1.8 1 3 2.7 3s2.7-1.2 2.7-3V12.5c0-.9.8-1.4 2.3-1.4s2.3.4 2.3 1.4V31c0 2.1-.7 3.8-2.1 5.1s-3.1 1.9-5.3 1.9-3.9-.6-5.3-1.9-2.1-3-2.1-5.1V12.5c0-.9.8-1.4 2.3-1.4s2.3.4 2.3 1.4v18.8zm23.2-3.8H189c-.8 0-1.2-.6-1.2-1.9s.4-1.9 1.2-1.9h5c.9 0 1.4.5 1.4 1.5V31c0 2.1-.7 3.8-2.1 5.1S190.2 38 188 38c-2.1 0-3.9-.6-5.3-1.9s-2.1-3-2.1-5.1V18c0-2.1.7-3.8 2.1-5.1s3.1-1.9 5.3-1.9c2.1 0 3.9.6 5.3 1.9s2.1 3 2.1 5.1v2c0 .9-.8 1.4-2.3 1.4s-2.3-.4-2.3-1.4v-2.2c0-1.8-1-3-2.7-3-1.6 0-2.7 1.2-2.7 3v13.4c0 1.8 1 3 2.7 3 1.6 0 2.7-1.2 2.7-3v-3.7z"/><use xlink:href="#B" x="132.2"/></g><defs ><path id="B" d="M75.9 30.8c0-2.1-.7-3.2-3.4-4.4l-1.2-.5c-3.6-1.6-5.2-3.8-5.2-7.6v-.8c0-2 .7-3.6 2-4.8s3-1.8 5-1.8 3.7.6 5 1.8 2 2.8 2 4.8v1.1c0 .9-.8 1.4-2.3 1.4s-2.3-.4-2.3-1.4v-1.3c0-1.5-.9-2.5-2.3-2.5-1.5 0-2.3 1-2.3 2.5v.7c0 2.1.7 3.2 3.4 4.4l1.2.5c3.6 1.6 5.2 3.8 5.2 7.6v.6c0 2.1-.7 3.8-2 5.1s-3 1.9-5.1 1.9-3.8-.6-5.1-1.9-2-3-2-5.1v-.7c0-.9.8-1.4 2.3-1.4s2.3.4 2.3 1.4v.8c0 1.8.9 3 2.5 3s2.5-1.2 2.5-3v-.4z"/></defs></svg>